<svg width="137" height="40" viewBox="0 0 137 40" fill="none" xmlns="http://www.w3.org/2000/svg">
<g clip-path="url(#clip0_488_3332)">
<path d="M84.3693 36.4824L71.1799 4.42489C71.0758 4.13242 71.0209 3.82463 71.0176 3.51412C70.9916 2.85669 71.2242 2.21532 71.6652 1.72793C71.8914 1.49606 72.1645 1.31534 72.4661 1.19791C72.7678 1.08048 73.091 1.02905 73.4141 1.04706C73.9038 1.05271 74.3795 1.21162 74.7746 1.50157C75.1897 1.81029 75.5146 2.22498 75.7152 2.70238L88.257 34.079L100.801 2.70238C101 2.22475 101.324 1.8099 101.739 1.50157C102.135 1.21162 102.61 1.05271 103.1 1.04706C103.423 1.02879 103.747 1.0801 104.049 1.19754C104.351 1.31498 104.624 1.49583 104.851 1.72793C105.292 2.21532 105.524 2.85669 105.498 3.51412C105.495 3.82405 105.44 4.13127 105.336 4.42312L92.1464 36.4824C91.4035 38.1395 90.2988 38.9583 88.8411 38.9583H87.6746C86.217 38.9512 85.1141 38.1395 84.3693 36.4824Z" fill="url(#paint0_linear_488_3332)"/>
<path d="M111.105 37.9767C110.881 37.7507 110.705 37.4815 110.588 37.1855C110.471 36.8894 110.415 36.5726 110.424 36.2542V3.77402C110.412 3.12278 110.657 2.4931 111.105 2.02145C111.324 1.78781 111.591 1.60384 111.887 1.48184C112.183 1.35984 112.502 1.30264 112.822 1.31405H134.244C134.547 1.30556 134.848 1.36191 135.127 1.47932C135.406 1.59673 135.658 1.77251 135.864 1.99492C136.084 2.20365 136.258 2.45594 136.375 2.73574C136.492 3.01554 136.55 3.31673 136.545 3.62017C136.553 3.91903 136.496 4.21608 136.378 4.49084C136.261 4.76561 136.085 5.01158 135.864 5.21181C135.429 5.63144 134.847 5.86162 134.244 5.85201H115.285V17.6779H132.331C132.634 17.6698 132.935 17.7265 133.214 17.8442C133.494 17.9619 133.745 18.1379 133.951 18.3606C134.168 18.5706 134.341 18.8229 134.458 19.102C134.575 19.3811 134.634 19.6813 134.632 19.9841C134.64 20.2829 134.583 20.58 134.466 20.8547C134.348 21.1295 134.172 21.3755 133.951 21.5757C133.737 21.7858 133.484 21.9513 133.206 22.0627C132.928 22.1741 132.63 22.2292 132.331 22.2247H115.285V34.1126H134.244C134.547 34.1035 134.848 34.1598 135.128 34.2775C135.407 34.3953 135.658 34.5718 135.864 34.7952C136.084 35.0035 136.258 35.2554 136.375 35.535C136.492 35.8145 136.55 36.1155 136.545 36.4187C136.553 36.7175 136.496 37.0146 136.378 37.2894C136.261 37.5641 136.085 37.8101 135.864 38.0103C135.431 38.4332 134.848 38.6666 134.244 38.6594H112.822C112.503 38.683 112.183 38.6338 111.885 38.5156C111.588 38.3973 111.321 38.2131 111.105 37.9767Z" fill="url(#paint1_linear_488_3332)"/>
<path d="M74.1607 35.5735L60.973 3.51417C60.2301 1.85886 59.1201 1.04712 57.6677 1.04712H56.4995C55.0401 1.04712 53.9389 1.85886 53.1942 3.52301L47.4571 17.4941H43.1159C42.4895 17.4978 41.8897 17.7489 41.4467 18.1928C41.0037 18.6368 40.7532 19.2378 40.7495 19.8657V19.8975C40.7527 20.5255 41.0031 21.1268 41.4462 21.5709C41.8893 22.0149 42.4893 22.2658 43.1159 22.2691H45.4489L39.9783 35.5858C39.8743 35.8777 39.8194 36.1849 39.816 36.4948C39.7898 37.1523 40.0224 37.7937 40.4636 38.281C40.6899 38.5134 40.9632 38.6945 41.2652 38.8122C41.5671 38.9299 41.8907 38.9816 42.2142 38.9637C42.7036 38.9564 43.1789 38.7976 43.5748 38.5092C43.9896 38.1994 44.3143 37.7842 44.5154 37.3066L50.5418 22.2744H54.6871C55.3136 22.2707 55.9134 22.0196 56.3564 21.5757C56.7994 21.1317 57.0499 20.5306 57.0536 19.9028V19.8232C57.0504 19.1953 56.8 18.5939 56.3569 18.1499C55.9138 17.7058 55.3138 17.4549 54.6871 17.4517H52.4459L57.0818 5.92109L69.6236 37.2977C69.823 37.7754 70.1474 38.1902 70.5624 38.4985C70.9581 38.7888 71.4344 38.9478 71.9248 38.953C72.2479 38.9711 72.5711 38.9196 72.8727 38.8022C73.1743 38.6848 73.4474 38.5041 73.6736 38.2722C74.1149 37.7843 74.3475 37.1422 74.3212 36.4842C74.3352 36.1725 74.2804 35.8615 74.1607 35.5735Z" fill="url(#paint2_linear_488_3332)"/>
<path d="M34.7548 35.5732L21.5671 3.51393C20.8259 1.85861 19.7177 1.04688 18.2583 1.04688H17.0918C15.6342 1.04688 14.533 1.85861 13.7865 3.52277L8.05123 17.4939H3.70829C3.08195 17.4981 2.48244 17.7493 2.03954 18.1931C1.59664 18.637 1.34598 19.2377 1.34182 19.8654V19.8973C1.3492 20.5228 1.60129 21.1204 2.04384 21.5616C2.4864 22.0028 3.08407 22.2523 3.70829 22.2564H6.04123L0.570644 35.5732C0.466625 35.8651 0.411759 36.1723 0.408291 36.4822C0.381781 37.1397 0.61441 37.7813 1.05594 38.2684C1.28226 38.5007 1.55557 38.6818 1.85751 38.7996C2.15945 38.9173 2.48303 38.969 2.80653 38.951C3.29597 38.9438 3.7712 38.785 4.16711 38.4965C4.5819 38.1868 4.90662 37.7716 5.1077 37.294L11.1342 22.2617H15.3095C15.936 22.258 16.5357 22.007 16.9787 21.563C17.4217 21.1191 17.6722 20.518 17.6759 19.8902V19.823C17.6727 19.195 17.4223 18.5937 16.9792 18.1496C16.5361 17.7056 15.9361 17.4547 15.3095 17.4514H13.0736L17.6759 5.91908L30.2177 37.294C30.4176 37.7723 30.7425 38.1878 31.1583 38.4965C31.5542 38.785 32.0294 38.9438 32.5189 38.951C32.8423 38.9685 33.1658 38.9167 33.4676 38.7989C33.7695 38.6812 34.0429 38.5004 34.2695 38.2684C34.7105 37.781 34.9431 37.1396 34.9171 36.4822C34.929 36.171 34.8737 35.8609 34.7548 35.5732Z" fill="url(#paint3_linear_488_3332)"/>
</g>
<defs>
<linearGradient id="paint0_linear_488_3332" x1="2.34183" y1="39.7908" x2="140.172" y2="10.5432" gradientUnits="userSpaceOnUse">
<stop stop-color="#31BAC6"/>
<stop offset="1" stop-color="#B6509E"/>
</linearGradient>
<linearGradient id="paint1_linear_488_3332" x1="4.54428" y1="50.7166" x2="143.355" y2="33.3588" gradientUnits="userSpaceOnUse">
<stop stop-color="#31BAC6"/>
<stop offset="1" stop-color="#B6509E"/>
</linearGradient>
<linearGradient id="paint2_linear_488_3332" x1="1.33622" y1="36.2239" x2="139.077" y2="7.01724" gradientUnits="userSpaceOnUse">
<stop stop-color="#31BAC6"/>
<stop offset="1" stop-color="#B6509E"/>
</linearGradient>
<linearGradient id="paint3_linear_488_3332" x1="-1.50423" y1="26.3832" x2="136.342" y2="-2.91504" gradientUnits="userSpaceOnUse">
<stop stop-color="#31BAC6"/>
<stop offset="1" stop-color="#B6509E"/>
</linearGradient>
<clipPath id="clip0_488_3332">
<rect width="136.471" height="40" fill="white" transform="translate(0.237793)"/>
</clipPath>
</defs>
</svg>
