<svg width="179" height="46" viewBox="0 0 179 46" fill="none" xmlns="http://www.w3.org/2000/svg">
<g clip-path="url(#clip0_488_3338)">
<path d="M173.781 29.4497C173.781 31.0178 174.512 31.7496 176.113 31.7496C176.739 31.7496 177.435 31.6102 178.062 31.4011V35.5828C177.366 35.7919 176.182 36.0011 175.138 36.0011C171.449 36.0011 168.734 34.5723 168.734 29.7285V22.3408H166.228V18.2288H168.734V13.0713H173.781V18.2288H178.062V22.3408H173.781V29.4497Z" fill="white"/>
<path d="M159.338 26.0346C159.338 23.4211 158.19 22.062 156.205 22.062C154.221 22.062 153.073 23.4211 153.073 26.0346V35.6526H148.026V18.2288H152.969V20.7727C154.012 18.9257 155.857 17.8802 158.05 17.8802C161.67 17.8802 164.385 20.215 164.385 24.8847V35.6526H159.338V26.0346Z" fill="white"/>
<path d="M144.558 35.6525H139.51V18.2288H144.558V35.6525Z" fill="white"/>
<path d="M131.043 18.2288V21.2605C132.19 19.1 134.14 17.8802 136.611 17.8802C136.958 17.8802 137.307 17.8802 137.516 17.9499V23.1074C137.029 22.968 136.402 22.8287 135.706 22.8287C132.851 22.8287 131.216 24.2574 131.216 26.871V35.6526H126.169V18.2288H131.043Z" fill="white"/>
<path d="M110.498 44.3646H105.452V18.2288H110.394V20.459C111.682 18.8211 113.492 17.8802 115.615 17.8802C120.348 17.8802 123.725 21.5045 123.725 26.9407C123.725 32.3769 120.348 36.0011 115.615 36.0011C113.561 36.0011 111.786 35.0951 110.498 33.5618V44.3646ZM114.64 31.5058C117.007 31.5058 118.747 29.6936 118.747 26.9407C118.747 24.1877 117.007 22.3756 114.64 22.3756C112.274 22.3756 110.498 24.1877 110.498 26.9407C110.498 29.6936 112.274 31.5058 114.64 31.5058Z" fill="white"/>
<path d="M102.931 28.3346H90.2271C90.61 30.6346 92.037 31.8891 94.3342 31.8891C95.9352 31.8891 96.9794 31.2967 97.4667 30.1466H102.583C101.504 33.9799 98.4761 36.0011 94.195 36.0011C89.0786 36.0011 85.3892 32.2723 85.3892 26.9407C85.3892 21.6089 89.0786 17.8802 94.195 17.8802C99.3114 17.8802 103.001 21.6089 103.001 26.9407C103.001 27.4285 102.966 27.8816 102.931 28.3346ZM94.195 22.0272C92.037 22.0272 90.6796 23.1771 90.262 25.3725H98.128C97.7103 23.1771 96.3181 22.0272 94.195 22.0272Z" fill="white"/>
<path d="M71.8125 27.8467C71.8125 30.4602 72.9611 31.8192 74.8754 31.8192C76.7897 31.8192 77.9035 30.4602 77.9035 27.8467V18.2288H82.9503V35.6525H78.0079V33.1784C76.9637 34.9904 75.1887 36.0011 73.0307 36.0011C69.4457 36.0011 66.7656 33.6662 66.7656 28.9966V18.2288H71.8125V27.8467Z" fill="white"/>
<path d="M63.4711 35.6526H58.4243V9.51685H63.4711V35.6526Z" fill="white"/>
<path d="M39.9844 35.6526V9.51685H47.7809C52.1663 9.51685 55.1596 11.7471 55.1596 15.9985V16.347C55.1596 18.8909 53.9414 20.5287 52.0271 21.4696C54.3591 22.4453 55.9254 24.5013 55.9254 27.4982V28.1952C55.9254 33.0042 52.9321 35.6526 48.5466 35.6526H39.9844ZM47.3632 13.8728H44.9268V19.7969H47.3632C49.2427 19.7969 50.2869 18.9606 50.2869 16.8348V16.4864C50.2869 14.6046 49.2427 13.8728 47.3632 13.8728ZM47.9201 24.1529H44.9268V31.2967H47.9201C49.7995 31.2967 50.8437 30.2512 50.8437 27.7422V27.3938C50.8437 25.0241 49.7995 24.1529 47.9201 24.1529Z" fill="white"/>
<path d="M142.034 12.8906C141.021 12.3036 138.964 11.1091 138.841 11.0271L142.034 5.96655L145.227 11.0271L142.034 12.8906Z" fill="white"/>
<path d="M142.034 13.6881L138.841 11.6188L142.034 16.1639L145.227 11.6188L142.034 13.6881Z" fill="white"/>
<path fill-rule="evenodd" clip-rule="evenodd" d="M18.3237 7.14159C18.3237 7.02536 18.2683 6.91609 18.1748 6.84736L16.1985 5.39632C16.1028 5.32605 15.9789 5.30684 15.8664 5.34486L4.60038 9.15356C4.45226 9.20363 4.35254 9.34272 4.35254 9.49925V35.8121C4.35254 35.9283 4.40787 36.0376 4.50152 36.1063L6.36394 37.4733C6.4582 37.5425 6.5799 37.5622 6.69114 37.5263L22.0193 32.5815C22.17 32.533 22.272 32.3926 22.272 32.2343V19.7641C22.272 19.6462 22.2151 19.5356 22.1194 19.4672L20.2969 18.1639C20.2021 18.096 20.0806 18.0778 19.9699 18.1146L18.8033 18.5039C18.5674 18.5827 18.3237 18.4069 18.3237 18.1578V7.14159ZM19.6672 20.3809C19.903 20.303 20.1459 20.4787 20.1459 20.7274V24.7215V30.5617C20.1459 30.7202 20.0439 30.8604 19.8933 30.9091L10.6548 33.8895L6.95477 35.0831C6.71947 35.1592 6.47858 34.9834 6.47858 34.7359V25.0095C6.47858 24.8521 6.57938 24.7125 6.72863 24.6631L19.6672 20.3809ZM15.7965 19.3554C15.9453 19.3058 16.0458 19.1663 16.0458 19.0093V12.0755V8.073C16.0458 7.82341 15.801 7.6475 15.5649 7.72727L6.47859 10.7958L6.47858 21.959C6.47858 22.2079 6.72227 22.3838 6.95824 22.3051L10.6548 21.0714L15.7965 19.3554Z" fill="#21007F"/>
<path fill-rule="evenodd" clip-rule="evenodd" d="M20.4117 8.72028C20.4113 8.60644 20.3578 8.49931 20.2672 8.4306L18.3261 6.95922C18.2299 6.8863 18.1038 6.86578 17.9895 6.90443L6.479 10.7958V37.3746C6.479 37.4886 6.53221 37.5959 6.62282 37.665L8.48484 39.0829C8.58002 39.1554 8.70463 39.1764 8.81831 39.1395L24.1462 34.1407C24.2965 34.0917 24.3982 33.9512 24.3977 33.7928L24.3634 21.3821C24.363 21.2684 24.3097 21.1612 24.2192 21.0924L22.4256 19.7306C22.3297 19.6579 22.2043 19.6371 22.0901 19.6751L20.928 20.063C20.6926 20.1415 20.4493 19.9665 20.4485 19.7181L20.4117 8.72028ZM21.7937 21.9394C22.0295 21.8614 22.2724 22.0371 22.2724 22.2859V32.1202C22.2724 32.2787 22.1704 32.4189 22.0197 32.4675L9.08123 36.6416C8.84594 36.7175 8.60504 36.5419 8.60504 36.2944V26.5679C8.60504 26.4105 8.70584 26.2709 8.85508 26.2215L21.7937 21.9394ZM17.923 20.9138C18.0718 20.8642 18.1723 20.7247 18.1723 20.5677V9.63014C18.1723 9.38093 17.9282 9.20505 17.6922 9.28414L8.85382 12.2452C8.70522 12.295 8.60504 12.4343 8.60504 12.5912V23.5174C8.60504 23.7664 8.84873 23.9422 9.08471 23.8635L17.923 20.9138Z" fill="#352AB8"/>
<path fill-rule="evenodd" clip-rule="evenodd" d="M22.5 10.2584C22.5 10.1422 22.4446 10.0329 22.351 9.96417L20.3748 8.51314C20.279 8.44286 20.1551 8.42367 20.0426 8.46168L8.77665 12.2704C8.62853 12.3205 8.52881 12.4595 8.52881 12.6161V38.9365C8.52881 39.0484 8.58016 39.1542 8.66809 39.2234L10.5017 40.6659C10.5974 40.7412 10.7243 40.7635 10.84 40.7257L26.197 35.6991C26.3469 35.6501 26.4483 35.5101 26.4483 35.3522V22.8809C26.4483 22.7631 26.3914 22.6525 26.2957 22.584L24.4732 21.2807C24.3783 21.2129 24.2568 21.1945 24.1462 21.2315L22.9795 21.6208C22.7436 21.6996 22.5 21.5237 22.5 21.2746V10.2584ZM23.8435 23.4978C24.0793 23.4197 24.3222 23.5956 24.3222 23.8443V33.6786C24.3222 33.8369 24.2202 33.9773 24.0695 34.0259L11.131 38.2C10.8958 38.2759 10.6548 38.1003 10.6548 37.8528V33.8895V28.1263C10.6548 27.9689 10.7556 27.8293 10.9049 27.7798L20.146 24.7214L23.8435 23.4978ZM19.9728 22.4723C20.1216 22.4225 20.2221 22.2831 20.2221 22.1261V11.1879C20.2221 10.9389 19.9784 10.763 19.7424 10.8418L16.0459 12.0754L10.904 13.7914C10.7552 13.8411 10.6548 13.9805 10.6548 14.1376V21.0713V25.0758C10.6548 25.3248 10.8985 25.5006 11.1345 25.4219L19.9728 22.4723Z" fill="#4F5FEF"/>
<path d="M19.8933 30.9091C20.0439 30.8604 20.146 30.7202 20.146 30.5617V24.7214L10.9048 27.7799C10.7556 27.8294 10.6548 27.969 10.6548 28.1264V33.8895L19.8933 30.9091Z" fill="white"/>
<path d="M15.7966 19.3553C15.9454 19.3057 16.0458 19.1662 16.0458 19.0092V12.0754L10.904 13.7914C10.7552 13.8411 10.6548 13.9805 10.6548 14.1376V21.0713L15.7966 19.3553Z" fill="white"/>
<mask id="mask0_488_3338" style="mask-type:luminance" maskUnits="userSpaceOnUse" x="0" y="1" width="32" height="45">
<path d="M31.0772 1.6355H0.708496V45.4193H31.0772V1.6355Z" fill="white"/>
<path fill-rule="evenodd" clip-rule="evenodd" d="M18.3237 7.14147C18.3237 7.02523 18.2683 6.91597 18.1748 6.84724L16.1985 5.3962C16.1028 5.32592 15.9789 5.30672 15.8664 5.34474L4.60038 9.15344C4.45226 9.20351 4.35254 9.3426 4.35254 9.49913V35.812C4.35254 35.9282 4.40787 36.0375 4.50152 36.1062L6.36394 37.4731C6.4582 37.5423 6.5799 37.562 6.69114 37.5262L22.0193 32.5814C22.17 32.5329 22.272 32.3925 22.272 32.2342V19.7639C22.272 19.6461 22.2151 19.5355 22.1194 19.467L20.2969 18.1638C20.2021 18.0959 20.0806 18.0776 19.9699 18.1145L18.8033 18.5038C18.5674 18.5826 18.3237 18.4068 18.3237 18.1577V7.14147ZM19.6672 20.3808C19.903 20.3028 20.1459 20.4786 20.1459 20.7273V24.7213V30.5616C20.1459 30.7201 20.0439 30.8603 19.8933 30.909L10.6548 33.8894L6.95477 35.083C6.71947 35.159 6.47858 34.9833 6.47858 34.7358V25.0093C6.47858 24.852 6.57938 24.7123 6.72863 24.663L19.6672 20.3808ZM15.7965 19.3553C15.9453 19.3057 16.0458 19.1662 16.0458 19.0091V12.0754V8.07288C16.0458 7.82329 15.801 7.64738 15.5649 7.72715L6.47859 10.7957L6.47858 21.9588C6.47858 22.2078 6.72227 22.3837 6.95824 22.305L10.6548 21.0712L15.7965 19.3553Z" fill="black"/>
<path fill-rule="evenodd" clip-rule="evenodd" d="M20.4117 8.72028C20.4113 8.60644 20.3578 8.49931 20.2672 8.4306L18.3261 6.95922C18.2299 6.8863 18.1038 6.86578 17.9895 6.90443L6.479 10.7958V37.3746C6.479 37.4886 6.53221 37.5959 6.62282 37.665L8.48484 39.0829C8.58002 39.1554 8.70463 39.1764 8.81831 39.1395L24.1462 34.1407C24.2965 34.0917 24.3982 33.9512 24.3977 33.7928L24.3634 21.3821C24.363 21.2684 24.3097 21.1612 24.2192 21.0924L22.4256 19.7306C22.3297 19.6579 22.2043 19.6371 22.0901 19.6751L20.928 20.063C20.6926 20.1415 20.4493 19.9665 20.4485 19.7181L20.4117 8.72028ZM21.7937 21.9394C22.0295 21.8614 22.2724 22.0371 22.2724 22.2859V32.1202C22.2724 32.2787 22.1704 32.4189 22.0197 32.4675L9.08123 36.6416C8.84594 36.7175 8.60504 36.5419 8.60504 36.2944V26.5679C8.60504 26.4105 8.70584 26.2709 8.85508 26.2215L21.7937 21.9394ZM17.923 20.9138C18.0718 20.8642 18.1723 20.7247 18.1723 20.5677V9.63014C18.1723 9.38093 17.9282 9.20505 17.6922 9.28414L8.85382 12.2452C8.70522 12.295 8.60504 12.4343 8.60504 12.5912V23.5174C8.60504 23.7664 8.84873 23.9422 9.08471 23.8635L17.923 20.9138Z" fill="black"/>
<path fill-rule="evenodd" clip-rule="evenodd" d="M22.5 10.2584C22.5 10.1422 22.4446 10.0329 22.351 9.96417L20.3748 8.51314C20.279 8.44286 20.1551 8.42367 20.0426 8.46168L8.77665 12.2704C8.62853 12.3205 8.52881 12.4595 8.52881 12.6161V38.9365C8.52881 39.0484 8.58016 39.1542 8.66809 39.2234L10.5017 40.6659C10.5974 40.7412 10.7243 40.7635 10.84 40.7257L26.197 35.6991C26.3469 35.6501 26.4483 35.5101 26.4483 35.3522V22.8809C26.4483 22.763 26.3914 22.6525 26.2957 22.584L24.4732 21.2807C24.3783 21.2129 24.2568 21.1945 24.1462 21.2315L22.9795 21.6208C22.7436 21.6996 22.5 21.5237 22.5 21.2746V10.2584ZM23.8435 23.4978C24.0793 23.4197 24.3222 23.5955 24.3222 23.8443V33.6786C24.3222 33.8369 24.2202 33.9773 24.0695 34.0259L11.131 38.2C10.8958 38.2759 10.6548 38.1003 10.6548 37.8528V33.8895V28.1263C10.6548 27.9689 10.7556 27.8293 10.9049 27.7798L20.146 24.7214L23.8435 23.4978ZM19.9728 22.4722C20.1216 22.4225 20.2221 22.2831 20.2221 22.1261V11.1879C20.2221 10.9389 19.9784 10.763 19.7424 10.8418L16.0459 12.0754L10.904 13.7914C10.7552 13.8411 10.6548 13.9805 10.6548 14.1376V21.0713V25.0758C10.6548 25.3248 10.8985 25.5006 11.1345 25.4219L19.9728 22.4722Z" fill="black"/>
<path d="M19.8933 30.9091C20.0439 30.8604 20.146 30.7202 20.146 30.5617V24.7214L10.9048 27.7799C10.7556 27.8294 10.6548 27.969 10.6548 28.1264V33.8895L19.8933 30.9091Z" fill="black"/>
<path d="M15.7966 19.3553C15.9454 19.3057 16.0458 19.1662 16.0458 19.0092V12.0754L10.904 13.7914C10.7552 13.8411 10.6548 13.9805 10.6548 14.1376V21.0713L15.7966 19.3553Z" fill="black"/>
</mask>
<g mask="url(#mask0_488_3338)">
<path d="M16.046 12.0755H17.8681V9.54439L15.4697 10.3448L16.046 12.0755ZM10.655 21.0714H8.83284V23.6025L11.2312 22.8022L10.655 21.0714ZM20.1461 24.7215H21.9683V22.1971L19.5742 22.9893L20.1461 24.7215ZM10.655 33.8895H8.83284V36.3941L11.2138 35.6259L10.655 33.8895ZM17.8681 19.0093V12.0755H14.2239V19.0093H17.8681ZM15.4697 10.3448L10.3279 12.0608L11.4804 15.5222L16.6222 13.8062L15.4697 10.3448ZM8.83284 14.1377V21.0714H12.4771V14.1377H8.83284ZM11.2312 22.8022L16.373 21.0861L15.2206 17.6247L10.0788 19.3407L11.2312 22.8022ZM21.9683 30.5617V24.7215H18.324V30.5617H21.9683ZM19.5742 22.9893L10.3331 26.0477L11.4769 29.512L20.718 26.4537L19.5742 22.9893ZM8.83284 28.1264V33.8895H12.4771V28.1264H8.83284ZM11.2138 35.6259L20.4524 32.6455L19.3347 29.1727L10.0961 32.1532L11.2138 35.6259ZM10.3331 26.0477C9.43763 26.3441 8.83284 27.182 8.83284 28.1264H12.4771C12.4771 28.7559 12.0739 29.3145 11.4769 29.512L10.3331 26.0477ZM10.3279 12.0608C9.43509 12.3588 8.83284 13.1954 8.83284 14.1377H12.4771C12.4771 14.7659 12.0756 15.3235 11.4804 15.5222L10.3279 12.0608ZM18.324 30.5617C18.324 29.9282 18.7323 29.3669 19.3347 29.1727L20.4524 32.6455C21.3558 32.354 21.9683 31.5122 21.9683 30.5617H18.324ZM14.2239 19.0093C14.2239 18.3811 14.6254 17.8233 15.2206 17.6247L16.373 21.0861C17.2659 20.7881 17.8681 19.9516 17.8681 19.0093H14.2239ZM6.47878 10.7958L5.31293 7.3389L2.83455 8.17676V10.7958H6.47878ZM16.046 12.0755H12.4017V17.1377L17.1983 15.537L16.046 12.0755ZM10.655 21.0714H14.2992V16.0092L9.50256 17.61L10.655 21.0714ZM20.1461 24.7215H16.5019V29.7705L21.2899 28.1859L20.1461 24.7215ZM10.655 33.8895H14.2992V28.8804L9.5373 30.4168L10.655 33.8895ZM14.0436 8.33861L16.0199 9.78964L20.3301 3.90506L18.3537 2.45403L14.0436 8.33861ZM14.6797 7.14158V18.1578H21.9681V7.14158H14.6797ZM19.9559 21.9654L21.1226 21.5761L18.8177 14.6533L17.651 15.0426L19.9559 21.9654ZM18.179 21.1329L20.0015 22.4362L24.2378 16.4981L22.4154 15.1948L18.179 21.1329ZM18.6279 19.764V32.2343H25.9164V19.764H18.6279ZM20.902 29.1087L5.57375 34.0534L7.80893 40.9991L23.1371 36.0544L20.902 29.1087ZM8.51861 34.5305L6.65619 33.1636L2.34724 39.0491L4.20966 40.4159L8.51861 34.5305ZM7.99697 35.8121V9.49924H0.708496V35.8121H7.99697ZM5.76643 12.6105L17.0324 8.80175L14.7007 1.88797L3.43472 5.69666L5.76643 12.6105ZM10.123 21.9589L10.123 10.7958L2.83455 10.7958L2.83453 21.9589H10.123ZM7.64352 14.2531L16.7298 11.1845L14.4003 4.27L5.31293 7.3389L7.64352 14.2531ZM10.123 34.7359V25.0095H2.83453V34.7359H10.123ZM7.87258 28.1274L20.8111 23.8453L18.5236 16.9166L5.58507 21.1988L7.87258 28.1274ZM16.1262 9.86827L18.0673 11.3396L22.4667 5.52158L20.5254 4.05019L16.1262 9.86827ZM16.7672 8.7325L16.804 19.7302L24.0925 19.7059L24.0557 8.70808L16.7672 8.7325ZM22.0803 23.5243L23.2423 23.1366L20.9375 16.2138L19.7755 16.6015L22.0803 23.5243ZM20.2233 22.6378L22.0168 23.9996L26.421 18.1853L24.6275 16.8234L20.2233 22.6378ZM20.7189 21.3923L20.7533 33.803L28.0417 33.7826L28.0074 21.372L20.7189 21.3923ZM23.0173 30.6716L7.68945 35.6702L9.94674 42.6087L25.2746 37.6099L23.0173 30.6716ZM10.6907 36.1787L8.8287 34.7608L4.4165 40.5691L6.27852 41.987L10.6907 36.1787ZM10.123 37.3746V10.7958L2.83455 10.7958V37.3746H10.123ZM7.64464 14.2526L19.1551 10.3613L16.8234 3.44754L5.31293 7.3389L7.64464 14.2526ZM14.5278 9.63015V20.5677H21.8163V9.63015H14.5278ZM16.7704 17.4524L7.93208 20.4021L10.2369 27.3249L19.0752 24.3752L16.7704 17.4524ZM12.2491 23.5174V12.5912H4.96058V23.5174H12.2491ZM10.01 15.7053L18.8483 12.7442L16.5355 5.82408L7.69719 8.78515L10.01 15.7053ZM18.6279 22.2859V32.1202H25.9164V22.2859H18.6279ZM20.902 28.9946L7.96335 33.1688L10.1987 40.1145L23.1372 35.9403L20.902 28.9946ZM12.2491 36.2944V26.5679H4.96058V36.2944H12.2491ZM9.99862 29.6858L22.9371 25.4036L20.6496 18.4751L7.71112 22.7572L9.99862 29.6858ZM18.2198 11.4555L20.1961 12.9065L24.5062 7.02195L22.53 5.57092L18.2198 11.4555ZM18.8558 10.2585V21.2747H26.1443V10.2585H18.8558ZM24.1321 25.0823L25.2987 24.6929L22.9939 17.7701L21.8273 18.1595L24.1321 25.0823ZM22.3552 24.2498L24.1776 25.5531L28.4139 19.6151L26.5916 18.3118L22.3552 24.2498ZM22.8041 22.881V35.3523H30.0926V22.881H22.8041ZM25.0648 32.2311L9.70775 37.2577L11.9726 44.1938L27.3297 39.1672L25.0648 32.2311ZM12.7533 37.7969L10.9197 36.3545L6.41671 42.0924L8.25027 43.5349L12.7533 37.7969ZM12.1732 38.9366V12.6161H4.88468V38.9366H12.1732ZM9.94262 15.7273L21.2086 11.9186L18.8769 5.00485L7.61092 8.81355L9.94262 15.7273ZM16.5779 11.188V22.1262H23.8664V11.188H16.5779ZM18.8206 19.0108L9.98222 21.9605L12.287 28.8834L21.1253 25.9337L18.8206 19.0108ZM20.6781 23.8443V33.6787H27.9666V23.8443H20.6781ZM22.9521 30.5531L10.0135 34.7273L12.2488 41.6728L25.1873 37.4988L22.9521 30.5531ZM14.2992 25.0759V21.0714H7.01072V25.0759H14.2992ZM9.50256 17.61L5.80603 18.8436L8.11084 25.7664L11.8074 24.5328L9.50256 17.61ZM17.1983 15.537L20.8949 14.3032L18.59 7.38042L14.8936 8.61409L17.1983 15.537ZM12.4017 8.073V12.0755H19.6902V8.073H12.4017ZM14.2992 37.8528V33.8895H7.01072V37.8528H14.2992ZM9.5373 30.4168L5.8373 31.6104L8.07263 38.556L11.7726 37.3623L9.5373 30.4168ZM21.2899 28.1859L24.9873 26.9621L22.6998 20.0336L19.0025 21.2572L21.2899 28.1859ZM16.5019 20.7274V24.7215H23.7904V20.7274H16.5019ZM10.0135 34.7273C12.1311 34.0441 14.2992 35.6252 14.2992 37.8528H7.01072C7.01072 40.5753 9.66063 42.5079 12.2488 41.6728L10.0135 34.7273ZM27.9666 23.8443C27.9666 21.1091 25.2937 19.1752 22.6998 20.0336L24.9873 26.9621C22.865 27.6645 20.6781 26.0822 20.6781 23.8443H27.9666ZM9.98222 21.9605C12.106 21.2517 14.2992 22.8344 14.2992 25.0759H7.01072C7.01072 27.8153 9.69131 29.7497 12.287 28.8834L9.98222 21.9605ZM16.5779 22.1262C16.5779 20.7127 17.4812 19.4578 18.8206 19.0108L21.1253 25.9337C22.7622 25.3873 23.8664 23.8537 23.8664 22.1262H16.5779ZM23.8664 11.188C23.8664 8.44852 21.1858 6.51412 18.59 7.38042L20.8949 14.3032C18.771 15.012 16.5779 13.4294 16.5779 11.188H23.8664ZM12.1732 12.6161C12.1732 14.0248 11.2757 15.2767 9.94262 15.7273L7.61092 8.81355C5.9816 9.36437 4.88468 10.8943 4.88468 12.6161H12.1732ZM10.9197 36.3545C11.7111 36.977 12.1732 37.929 12.1732 38.9366H4.88468C4.88468 40.1681 5.44946 41.3316 6.41671 42.0924L10.9197 36.3545ZM9.70775 37.2577C10.7491 36.9169 11.8918 37.1192 12.7533 37.7969L8.25027 43.5349C9.30323 44.3632 10.6997 44.6104 11.9726 44.1938L9.70775 37.2577ZM22.8041 35.3523C22.8041 33.9319 23.7163 32.6725 25.0648 32.2311L27.3297 39.1672C28.9777 38.6277 30.0926 37.0884 30.0926 35.3523H22.8041ZM24.1776 25.5531C23.3157 24.9367 22.8041 23.9415 22.8041 22.881H30.0926C30.0926 21.5848 29.4674 20.3684 28.4139 19.6151L24.1776 25.5531ZM25.2987 24.6929C24.3032 25.0252 23.2091 24.8605 22.3552 24.2498L26.5916 18.3118C25.5479 17.5654 24.2106 17.3641 22.9939 17.7701L25.2987 24.6929ZM18.8558 21.2747C18.8558 24.0142 21.5364 25.9485 24.1321 25.0823L21.8273 18.1595C23.9511 17.4507 26.1443 19.0333 26.1443 21.2747H18.8558ZM20.1961 12.9065C19.3535 12.2879 18.8558 11.3045 18.8558 10.2585H26.1443C26.1443 8.97999 25.536 7.77799 24.5062 7.02195L20.1961 12.9065ZM22.53 5.57092C21.477 4.79785 20.1139 4.58663 18.8769 5.00485L21.2086 11.9186C20.1964 12.2608 19.0813 12.088 18.2198 11.4555L22.53 5.57092ZM12.2491 26.5679C12.2491 27.9843 11.3419 29.2412 9.99862 29.6858L7.71112 22.7572C6.06934 23.3006 4.96058 24.8366 4.96058 26.5679H12.2491ZM7.96335 33.1688C10.081 32.4857 12.2491 34.0669 12.2491 36.2944H4.96058C4.96058 39.0169 7.61049 40.9494 10.1987 40.1145L7.96335 33.1688ZM18.6279 32.1202C18.6279 30.6947 19.5467 29.4319 20.902 28.9946L23.1372 35.9403C24.7936 35.4059 25.9164 33.8625 25.9164 32.1202H18.6279ZM25.9164 22.2859C25.9164 19.5506 23.2436 17.6167 20.6496 18.4751L22.9371 25.4036C20.8149 26.1061 18.6279 24.5237 18.6279 22.2859H25.9164ZM12.2491 12.5912C12.2491 14.0033 11.3475 15.2572 10.01 15.7053L7.69719 8.78515C6.06254 9.3328 4.96058 10.8654 4.96058 12.5912H12.2491ZM7.93208 20.4021C10.0558 19.6933 12.2491 21.276 12.2491 23.5174H4.96058C4.96058 26.2568 7.64117 28.1912 10.2369 27.3249L7.93208 20.4021ZM14.5278 20.5677C14.5278 19.1542 15.4311 17.8993 16.7704 17.4524L19.0752 24.3752C20.7121 23.829 21.8163 22.2952 21.8163 20.5677H14.5278ZM21.8163 9.63015C21.8163 6.88877 19.1321 4.95414 16.5355 5.82408L18.8483 12.7442C16.7238 13.456 14.5278 11.8731 14.5278 9.63015H21.8163ZM8.8287 34.7608C9.64421 35.3818 10.123 36.3487 10.123 37.3746H2.83455C2.83455 38.6284 3.41976 39.8101 4.4165 40.5691L8.8287 34.7608ZM20.7533 33.803C20.7494 32.3779 21.664 31.1129 23.0173 30.6716L25.2746 37.6099C26.9288 37.0706 28.0466 35.5245 28.0417 33.7826L20.7533 33.803ZM22.0168 23.9996C21.2018 23.3807 20.7217 22.4165 20.7189 21.3923L28.0074 21.372C28.0038 20.1202 27.4172 18.9416 26.421 18.1853L22.0168 23.9996ZM23.2423 23.1366C22.2155 23.4793 21.0857 23.2927 20.2233 22.6378L24.6275 16.8234C23.5733 16.023 22.1926 15.7949 20.9375 16.2138L23.2423 23.1366ZM16.804 19.7302C16.8131 22.464 19.4899 24.389 22.0803 23.5243L19.7755 16.6015C21.8949 15.8943 24.085 17.4692 24.0925 19.7059L16.804 19.7302ZM18.0673 11.3396C17.2515 10.7212 16.7706 9.75703 16.7672 8.7325L24.0557 8.70808C24.0514 7.45589 23.4639 6.2774 22.4667 5.52158L18.0673 11.3396ZM20.5254 4.05019C19.4672 3.24806 18.0809 3.0224 16.8234 3.44754L19.1551 10.3613C18.1261 10.7092 16.992 10.5246 16.1262 9.86827L20.5254 4.05019ZM10.123 25.0095C10.123 26.426 9.21585 27.6828 7.87258 28.1274L5.58507 21.1988C3.94329 21.7421 2.83453 23.2782 2.83453 25.0095H10.123ZM2.83453 34.7359C2.83453 37.4584 5.48443 39.391 8.07263 38.556L5.8373 31.6104C7.95492 30.9272 10.123 32.5084 10.123 34.7359H2.83453ZM20.8111 23.8453C18.6888 24.5477 16.5019 22.9652 16.5019 20.7274H23.7904C23.7904 17.9921 21.1176 16.0582 18.5236 16.9166L20.8111 23.8453ZM2.83453 21.9589C2.83453 24.6984 5.51511 26.6327 8.11084 25.7664L5.80603 18.8436C7.92981 18.1349 10.123 19.7176 10.123 21.9589H2.83453ZM16.7298 11.1845C14.6039 11.9025 12.4017 10.3193 12.4017 8.073H19.6902C19.6902 5.32752 16.9986 3.39251 14.4003 4.27L16.7298 11.1845ZM7.99697 9.49924C7.99697 10.908 7.09952 12.1598 5.76643 12.6105L3.43472 5.69666C1.80539 6.24749 0.708496 7.77746 0.708496 9.49924H7.99697ZM6.65619 33.1636C7.499 33.7822 7.99697 34.7658 7.99697 35.8121H0.708496C0.708496 37.0909 1.31713 38.2931 2.34724 39.0491L6.65619 33.1636ZM5.57375 34.0534C6.575 33.7303 7.67022 33.9078 8.51861 34.5305L4.20966 40.4159C5.24659 41.177 6.5852 41.3938 7.80893 40.9991L5.57375 34.0534ZM18.6279 32.2343C18.6279 30.8086 19.5467 29.5458 20.902 29.1087L23.1371 36.0544C24.7935 35.52 25.9164 33.9766 25.9164 32.2343H18.6279ZM20.0015 22.4362C19.1395 21.8198 18.6279 20.8246 18.6279 19.764H25.9164C25.9164 18.4679 25.2912 17.2516 24.2378 16.4981L20.0015 22.4362ZM21.1226 21.5761C20.1271 21.9082 19.0328 21.7436 18.179 21.1329L22.4154 15.1948C21.3717 14.4485 20.0344 14.2472 18.8177 14.6533L21.1226 21.5761ZM14.6797 18.1578C14.6797 20.8973 17.3602 22.8317 19.9559 21.9654L17.651 15.0426C19.7749 14.3338 21.9681 15.9164 21.9681 18.1578H14.6797ZM16.0199 9.78964C15.1773 9.17106 14.6797 8.18761 14.6797 7.14158H21.9681C21.9681 5.8631 21.3597 4.66111 20.3301 3.90506L16.0199 9.78964ZM7.68945 35.6702C8.71264 35.3365 9.83422 35.5266 10.6907 36.1787L6.27852 41.987C7.32537 42.7842 8.69618 43.0165 9.94674 42.6087L7.68945 35.6702ZM20.6781 33.6787C20.6781 32.2531 21.5968 30.9903 22.9521 30.5531L25.1873 37.4988C26.8438 36.9644 27.9666 35.421 27.9666 33.6787H20.6781ZM18.3537 2.45403C17.3008 1.68095 15.9378 1.46974 14.7007 1.88797L17.0324 8.80175C16.0203 9.14394 14.905 8.97112 14.0436 8.33861L18.3537 2.45403Z" fill="white"/>
</g>
</g>
<defs>
<clipPath id="clip0_488_3338">
<rect width="177.353" height="45" fill="white" transform="translate(0.708496 0.5)"/>
</clipPath>
</defs>
</svg>
