<svg width="115" height="50" viewBox="0 0 115 50" fill="none" xmlns="http://www.w3.org/2000/svg">
<g clip-path="url(#clip0_488_3364)">
<path d="M9.87126 0.536865C7.20501 0.536865 4.93229 1.47772 3.05097 3.35942C1.16966 5.24113 0.229004 7.50811 0.229004 10.1604V23.5899C0.229004 26.2421 1.16966 28.5134 3.05097 30.4036C4.91756 32.2789 7.19239 33.2155 9.87126 33.2155C12.5501 33.2155 14.8102 32.2747 16.6915 30.3929C18.5729 28.5112 19.5135 26.2443 19.5135 23.592V21.7976L16.0918 23.3983V23.658C16.0918 25.3886 15.4794 26.8594 14.2526 28.0706C13.0257 29.2967 11.5653 29.9098 9.86915 29.9098C8.17303 29.9098 6.67681 29.2967 5.46469 28.0706C4.25257 26.8445 3.64651 25.3758 3.64651 23.658V10.0986C3.64651 8.36808 4.25257 6.89507 5.46469 5.67536C6.67681 4.45779 8.14356 3.849 9.86915 3.849C11.5947 3.849 13.0257 4.46205 14.2526 5.68814C15.4794 6.91422 16.0918 8.3851 16.0918 10.1008V11.9399L19.5135 10.3605V10.1668C19.5135 7.54217 18.5729 5.27944 16.6915 3.37645C14.8376 1.48836 12.5649 0.543251 9.87126 0.543251V0.536865Z" fill="white"/>
<path d="M32.2677 0.536865C29.6015 0.536865 27.3288 1.47772 25.4475 3.35942C23.5661 5.24113 22.6255 7.50811 22.6255 10.1604V33.2155H26.0472V18.6174H38.4904V33.2155H41.9121V10.1604C41.9121 7.50811 40.9714 5.24113 39.0901 3.35942C37.2088 1.47772 34.934 0.536865 32.2698 0.536865H32.2677ZM38.4904 15.1563H26.0472V10.0305C26.0472 8.34253 26.6533 6.89507 27.8654 5.68388C29.0922 4.45779 30.559 3.84475 32.2698 3.84475C33.9807 3.84475 35.4264 4.45779 36.6533 5.68388C37.8654 6.89507 38.4778 8.36595 38.4925 10.0965V15.1563H38.4904Z" fill="white"/>
<path d="M52.9583 33.2155H56.3779V4.43014H64.5029L65.9991 0.968994H44.8333L43.335 4.43014H52.9583V33.2155Z" fill="white"/>
<path d="M76.0158 0.651855C72.2301 0.651855 69.1514 3.76603 69.1514 7.59543V31.4892C69.1514 41.1872 76.9523 49.0781 86.5398 49.0781H102.386C103.08 49.0781 103.644 48.5076 103.644 47.8051H103.783C104.284 46.0448 104.72 44.2567 105.01 42.4517C105.877 37.0747 104.183 32.4748 100.391 28.6986C100.751 28.1579 100.986 27.8152 101.212 27.4661C104.41 22.4639 104.353 21.5486 99.6796 18.0491C96.2052 15.4479 92.5121 13.1469 88.7305 10.584C88.1686 14.0175 92.7204 16.9805 88.1286 19.6328C86.0516 18.3471 84.0083 17.0827 81.9649 15.8204C81.7713 15.9247 81.5756 16.029 81.382 16.1333C83.2675 21.4102 85.1004 26.7062 87.1143 31.932C87.3458 32.5323 88.6211 33.0793 89.3829 33.0431C91.8471 32.9218 94.2966 32.5174 96.8871 32.2066C96.8871 32.2066 96.986 32.511 97.0196 32.8239C97.4342 36.6916 95.0647 39.4652 93.4296 42.5879C92.1312 45.0656 90.5381 46.4151 87.7014 46.4407C87.4405 46.4428 87.1754 46.4726 86.9081 46.5195C78.9346 46.2555 72.5289 39.6163 72.5289 31.4892V8.46604C72.5289 6.04153 73.619 4.0683 76.0158 4.0683H110.963V14.1984L114.341 12.3933V0.651855H76.0158ZM93.8336 26.2209C93.5621 27.9834 92.5857 29.1924 90.656 29.0285C88.7894 28.871 87.9498 26.9787 88.6253 24.4584C89.7343 25.1587 90.6707 25.7483 92.2027 26.7147C91.6366 25.0352 91.3063 24.0518 90.9738 23.0663C92.9077 23.1025 94.1198 24.3647 93.8336 26.2188V26.2209ZM95.9885 24.535C94.2124 24.1923 93.5642 22.4958 94.2503 20.0607C95.2309 20.6865 96.1842 21.2953 97.712 22.2702C97.2174 20.6609 96.9018 19.6243 96.5756 18.5642C98.6632 18.8622 99.7953 20.2118 99.385 22.0232C98.9851 23.7836 97.9371 24.9118 95.9885 24.5372V24.535Z" fill="white"/>
<path d="M6.99684 38.5094L7.56923 37.1854H1.00989L0.4375 38.5094H3.34785V48.0329H1.00989L0.4375 49.3569H6.99684L7.56923 48.0329H4.65678V38.5094H6.99684Z" fill="white"/>
<path d="M12.5713 37.0214C11.5507 37.0214 10.6816 37.3811 9.96187 38.1006C9.24217 38.8201 8.88232 39.6885 8.88232 40.7018V49.5206H10.1912V40.6528C10.1912 40.0078 10.4227 39.4523 10.8857 38.9903C11.355 38.522 11.9168 38.2879 12.5713 38.2879C13.2258 38.2879 13.7792 38.522 14.2485 38.9903C14.7114 39.4544 14.9471 40.0163 14.9513 40.6783V49.5228H16.2603V40.7039C16.2603 39.6885 15.9004 38.8222 15.1807 38.1027C14.461 37.3832 13.5919 37.0235 12.5713 37.0235V37.0214Z" fill="white"/>
<path d="M29.7095 37.0214C28.6889 37.0214 27.8197 37.3811 27.1001 38.1006C26.3804 38.8201 26.0205 39.6885 26.0205 40.7018V49.5206H27.3294V43.9373H32.0895V49.5206H33.3985V40.7018C33.3985 39.6864 33.0386 38.8201 32.3189 38.1006C31.5992 37.3811 30.7301 37.0214 29.7095 37.0214ZM32.0895 42.6133H27.3294V40.6528C27.3294 40.0078 27.5609 39.4523 28.0239 38.9903C28.4931 38.522 29.055 38.2879 29.7095 38.2879C30.3639 38.2879 30.9174 38.522 31.3867 38.9903C31.8496 39.4544 32.0853 40.0163 32.0895 40.6783V42.6154V42.6133Z" fill="white"/>
<path d="M48.6844 42.375L48.7328 42.326C49.3157 41.7257 49.6082 40.9935 49.6082 40.1335C49.6082 39.3715 49.3115 38.6903 48.7159 38.09C48.1204 37.4898 47.3965 37.1875 46.54 37.1875H43.1709V49.3568H46.8767C47.8847 49.3568 48.7412 48.9929 49.4462 48.2649C50.1595 47.5305 50.5173 46.6514 50.5173 45.6254C50.5173 44.5994 50.1616 43.7096 49.4546 42.9859C49.2147 42.739 48.9579 42.5346 48.6865 42.375H48.6844ZM44.4798 38.5115H46.5169C46.9967 38.5221 47.4175 38.6988 47.7774 39.0415C48.1267 39.3608 48.3014 39.7206 48.3014 40.1165V40.208C48.3014 40.687 48.1351 41.1042 47.8026 41.4575C47.5291 41.7449 47.1166 41.8896 46.5589 41.896H44.4819V38.5115H44.4798ZM48.5686 47.3219C48.1057 47.7966 47.548 48.0328 46.8999 48.0328H44.4798V43.2179H46.8999C47.548 43.2179 48.1057 43.452 48.5686 43.9203C49.0316 44.3886 49.2631 44.957 49.2631 45.6254C49.2631 46.2938 49.0316 46.8472 48.5686 47.3219Z" fill="white"/>
<path d="M55.4141 37.0214C54.3934 37.0214 53.5243 37.3811 52.8046 38.1006C52.0849 38.8201 51.7251 39.6885 51.7251 40.7018V45.8403C51.7251 46.8556 52.0849 47.7241 52.8046 48.4457C53.518 49.163 54.3892 49.5206 55.4141 49.5206C56.4389 49.5206 57.3038 49.1609 58.0235 48.4414C58.7432 47.722 59.103 46.8535 59.103 45.8403V40.7018C59.103 39.6864 58.7432 38.8201 58.0235 38.1006C57.3038 37.3811 56.4347 37.0214 55.4141 37.0214ZM57.7941 45.8658C57.7899 46.5278 57.5542 47.0898 57.0913 47.5538C56.622 48.0221 56.0643 48.2562 55.4141 48.2562C54.7638 48.2562 54.1914 48.0221 53.7285 47.5538C53.2655 47.0855 53.034 46.5214 53.034 45.8658V40.6783C53.034 40.0163 53.2655 39.4523 53.7285 38.9861C54.1914 38.5199 54.7533 38.2879 55.4141 38.2879C56.0748 38.2879 56.622 38.522 57.0913 38.9903C57.5542 39.4544 57.7899 40.0163 57.7941 40.6783V45.8658Z" fill="white"/>
<path d="M66.5674 40.0972L65.9845 38.5093L63.9811 41.9768L61.1191 37.0214L59.9575 37.6003L63.2277 43.2816L59.9575 48.9417L61.1444 49.5228L63.9811 44.5907L66.8199 49.5228L68.0068 48.9417L64.7366 43.2816L66.5674 40.0972Z" fill="white"/>
</g>
<defs>
<clipPath id="clip0_488_3364">
<rect width="114.583" height="50" fill="white" transform="translate(0.0615234)"/>
</clipPath>
</defs>
</svg>
