<svg width="135" height="46" viewBox="0 0 135 46" fill="none" xmlns="http://www.w3.org/2000/svg">
<g clip-path="url(#clip0_488_3375)">
<path d="M9.65097 29.0715C9.65097 28.2824 9.03062 27.6428 8.26537 27.6428H2.03014C1.26489 27.6428 0.644531 28.2824 0.644531 29.0715V35.5C0.644531 36.2889 1.26489 36.9285 2.03014 36.9285H7.57256C8.33781 36.9285 8.95816 37.5683 8.95816 38.3571V44.0713C8.95816 44.8604 9.57853 45.5 10.3438 45.5H16.579C17.3443 45.5 17.9646 44.8604 17.9646 44.0713V37.6428C17.9646 36.8539 17.3443 36.2143 16.579 36.2143H11.0366C10.2713 36.2143 9.65097 35.5748 9.65097 34.7857V29.0715Z" fill="url(#paint0_linear_488_3375)"/>
<path d="M17.9646 1.92857C17.9646 1.13959 17.3443 0.5 16.579 0.5H10.3438C9.57853 0.5 8.95816 1.13959 8.95816 1.92857V7.64285C8.95816 8.43184 8.33781 9.07142 7.57256 9.07142H2.03014C1.26489 9.07142 0.644531 9.71103 0.644531 10.5V16.9286C0.644531 17.7175 1.26489 18.3571 2.03014 18.3571H8.26537C9.03062 18.3571 9.65097 17.7175 9.65097 16.9286V11.2143C9.65097 10.4253 10.2713 9.78571 11.0366 9.78571H16.579C17.3443 9.78571 17.9646 9.14612 17.9646 8.35714V1.92857Z" fill="url(#paint1_linear_488_3375)"/>
<path d="M28.3564 1.92857C28.3564 1.13959 28.9769 0.5 29.7421 0.5H35.9775C36.7426 0.5 37.3629 1.13959 37.3629 1.92857V7.64285C37.3629 8.43184 37.9834 9.07142 38.7485 9.07142H44.291C45.0563 9.07142 45.6766 9.71103 45.6766 10.5V16.9286C45.6766 17.7175 45.0563 18.3571 44.291 18.3571H38.0558C37.2904 18.3571 36.6702 17.7175 36.6702 16.9286V11.2143C36.6702 10.4253 36.0499 9.78571 35.2846 9.78571H29.7421C28.9769 9.78571 28.3564 9.14612 28.3564 8.35714V1.92857Z" fill="url(#paint2_linear_488_3375)"/>
<path d="M36.6702 29.0715C36.6702 28.2824 37.2904 27.6428 38.0558 27.6428H44.291C45.0563 27.6428 45.6766 28.2824 45.6766 29.0715V35.5C45.6766 36.2889 45.0563 36.9285 44.291 36.9285H38.7485C37.9834 36.9285 37.3629 37.5683 37.3629 38.3571V44.0713C37.3629 44.8604 36.7426 45.5 35.9775 45.5H29.7421C28.9769 45.5 28.3564 44.8604 28.3564 44.0713V37.6428C28.3564 36.8539 28.9769 36.2143 29.7421 36.2143H35.2846C36.0499 36.2143 36.6702 35.5748 36.6702 34.7857V29.0715Z" fill="url(#paint3_linear_488_3375)"/>
<path d="M16.4128 23.8012C16.0948 23.3173 16.0948 22.6827 16.4128 22.1988L22.0136 13.2919C22.5632 12.4554 23.7583 12.4554 24.3079 13.2919L29.9087 22.1988C30.2267 22.6827 30.2267 23.3173 29.9087 23.8012L24.3079 32.7081C23.7583 33.5445 22.5632 33.5445 22.0136 32.7081L16.4128 23.8012Z" fill="url(#paint4_linear_488_3375)"/>
<path d="M56.5601 26.6158C56.5601 24.5589 56.9646 22.7347 57.7732 21.1429C58.6063 19.5513 59.7335 18.3269 61.1547 17.4699C62.576 16.6128 64.1566 16.1843 65.8964 16.1843C67.2198 16.1843 68.4816 16.4781 69.6824 17.0658C70.883 17.629 71.8389 18.3882 72.5494 19.3431V9.1707C72.5494 9.03099 72.6628 8.91772 72.8026 8.91772H77.5159C77.6557 8.91772 77.7691 9.03099 77.7691 9.1707V36.6107C77.7691 36.7504 77.6557 36.8637 77.5159 36.8637H72.8026C72.6628 36.8637 72.5494 36.7504 72.5494 36.6107V33.8518C71.9123 34.8557 71.0179 35.6638 69.8661 36.276C68.7144 36.8882 67.3789 37.1944 65.8596 37.1944C64.1443 37.1944 62.576 36.7535 61.1547 35.8719C59.7335 34.9905 58.6063 33.7538 57.7732 32.1622C56.9646 30.5461 56.5601 28.6972 56.5601 26.6158ZM72.5862 26.6892C72.5862 25.4404 72.3411 24.3752 71.851 23.4938C71.361 22.5877 70.6994 21.902 69.8661 21.4367C69.033 20.947 68.1386 20.7022 67.183 20.7022C66.2273 20.7022 65.3451 20.9349 64.5364 21.4001C63.7278 21.8654 63.0662 22.551 62.5515 23.457C62.0614 24.3384 61.8165 25.3914 61.8165 26.6158C61.8165 27.8402 62.0614 28.9177 62.5515 29.8482C63.0662 30.7541 63.7278 31.452 64.5364 31.9419C65.3695 32.4316 66.2518 32.6764 67.183 32.6764C68.1386 32.6764 69.033 32.4437 69.8661 31.9785C70.6994 31.4887 71.361 30.8032 71.851 29.9216C72.3411 29.0155 72.5862 27.9381 72.5862 26.6892Z" fill="white"/>
<path d="M87.6873 16.5149C87.8271 16.5149 87.9404 16.6282 87.9404 16.7679V36.6107C87.9404 36.7504 87.8271 36.8637 87.6873 36.8637H83.0476C82.9078 36.8637 82.7944 36.7504 82.7944 36.6107V16.7679C82.7944 16.6282 82.9078 16.5149 83.0476 16.5149H87.6873Z" fill="white"/>
<path d="M82.6499 9.211C82.6499 9.07154 82.7631 8.9585 82.9027 8.9585H87.7575C87.8971 8.9585 88.0103 9.07154 88.0103 9.211V14.0625C88.0103 14.202 87.8971 14.3151 87.7575 14.3151H82.9027C82.7631 14.3151 82.6499 14.202 82.6499 14.0625V9.211Z" fill="white"/>
<path d="M101.287 32.1438L106.376 16.707C106.41 16.6033 106.507 16.5332 106.616 16.5332H111.546C111.723 16.5332 111.845 16.7088 111.784 16.874L104.436 36.7168C104.399 36.8162 104.304 36.8819 104.199 36.8819H98.3027C98.1966 36.8819 98.1018 36.816 98.0652 36.7164L90.7531 16.8736C90.6922 16.7084 90.8146 16.5332 90.9906 16.5332H95.9581C96.0673 16.5332 96.1642 16.6033 96.1985 16.707L101.287 32.1438Z" fill="white"/>
<path d="M113.477 26.6341C113.477 24.5772 113.881 22.7529 114.69 21.1613C115.523 19.5696 116.638 18.3453 118.035 17.4882C119.456 16.6312 121.037 16.2026 122.777 16.2026C124.296 16.2026 125.619 16.5087 126.746 17.1209C127.898 17.7331 128.817 18.5044 129.503 19.4349V16.7862C129.503 16.6465 129.617 16.5332 129.756 16.5332H134.433C134.573 16.5332 134.686 16.6465 134.686 16.7862V36.6292C134.686 36.7689 134.573 36.882 134.433 36.882H129.756C129.617 36.882 129.503 36.7689 129.503 36.6292V33.9069C128.842 34.8618 127.923 35.6578 126.746 36.2944C125.595 36.9066 124.259 37.2126 122.74 37.2126C121.025 37.2126 119.456 36.7718 118.035 35.8904C116.638 35.0088 115.523 33.7723 114.69 32.1804C113.881 30.5643 113.477 28.7156 113.477 26.6341ZM129.503 26.7077C129.503 25.4588 129.258 24.3937 128.768 23.5121C128.278 22.606 127.616 21.9204 126.783 21.4552C125.95 20.9655 125.056 20.7205 124.1 20.7205C123.144 20.7205 122.262 20.9531 121.453 21.4184C120.645 21.8837 119.983 22.5692 119.468 23.4753C118.978 24.3569 118.733 25.4099 118.733 26.6341C118.733 27.8585 118.978 28.9359 119.468 29.8665C119.983 30.7725 120.645 31.4704 121.453 31.9601C122.287 32.4498 123.169 32.6948 124.1 32.6948C125.056 32.6948 125.95 32.4622 126.783 31.9969C127.616 31.5072 128.278 30.8214 128.768 29.94C129.258 29.034 129.503 27.9565 129.503 26.7077Z" fill="white"/>
</g>
<defs>
<linearGradient id="paint0_linear_488_3375" x1="23.1606" y1="0.499993" x2="23.1606" y2="45.5" gradientUnits="userSpaceOnUse">
<stop stop-color="#1766FF"/>
<stop offset="1" stop-color="#16ABFF"/>
</linearGradient>
<linearGradient id="paint1_linear_488_3375" x1="23.1606" y1="0.5" x2="23.1606" y2="45.5" gradientUnits="userSpaceOnUse">
<stop stop-color="#1766FF"/>
<stop offset="1" stop-color="#16ABFF"/>
</linearGradient>
<linearGradient id="paint2_linear_488_3375" x1="23.1605" y1="0.5" x2="23.1605" y2="45.5" gradientUnits="userSpaceOnUse">
<stop stop-color="#1766FF"/>
<stop offset="1" stop-color="#16ABFF"/>
</linearGradient>
<linearGradient id="paint3_linear_488_3375" x1="23.1605" y1="0.499993" x2="23.1605" y2="45.5" gradientUnits="userSpaceOnUse">
<stop stop-color="#1766FF"/>
<stop offset="1" stop-color="#16ABFF"/>
</linearGradient>
<linearGradient id="paint4_linear_488_3375" x1="23.1608" y1="0.499993" x2="23.1608" y2="45.5" gradientUnits="userSpaceOnUse">
<stop stop-color="#1766FF"/>
<stop offset="1" stop-color="#16ABFF"/>
</linearGradient>
<clipPath id="clip0_488_3375">
<rect width="134.118" height="45" fill="white" transform="translate(0.644531 0.5)"/>
</clipPath>
</defs>
</svg>
