<svg width="171" height="55" viewBox="0 0 171 55" fill="none" xmlns="http://www.w3.org/2000/svg">
<path d="M77.001 40.2283H68.3711V13.5713H77.2741C79.886 13.5713 82.1293 14.1051 84.0035 15.1723C85.878 16.231 87.314 17.7538 88.312 19.7411C89.3185 21.7195 89.8216 24.0928 89.8216 26.8607C89.8216 29.6375 89.3142 32.0237 88.2988 34.0196C87.2923 36.0155 85.8344 37.5515 83.9253 38.6273C82.0165 39.6946 79.7082 40.2283 77.001 40.2283ZM72.3932 36.7139H76.7796C78.8102 36.7139 80.4979 36.3322 81.8429 35.5685C83.188 34.7962 84.1945 33.6811 84.8625 32.2233C85.5309 30.7569 85.8648 28.9694 85.8648 26.8607C85.8648 24.7695 85.5309 22.9949 84.8625 21.5371C84.2031 20.0793 83.2183 18.9731 81.9079 18.218C80.5976 17.4631 78.9705 17.0857 77.027 17.0857H72.3932V36.7139ZM93.6055 13.5713H98.1743L105.138 25.6893H105.424L112.388 13.5713H116.957L107.286 29.7635V40.2283H103.277V29.7635L93.6055 13.5713ZM122.485 40.2283H118.215L127.808 13.5713H132.455L142.048 40.2283H137.779L130.242 18.4133H130.034L122.485 40.2283ZM123.201 29.7893H137.05V33.1737H123.201V29.7893ZM156.726 40.2283H148.097V13.5713H157C159.611 13.5713 161.855 14.1051 163.729 15.1723C165.603 16.231 167.039 17.7538 168.037 19.7411C169.044 21.7195 169.547 24.0928 169.547 26.8607C169.547 29.6375 169.04 32.0237 168.024 34.0196C167.018 36.0155 165.56 37.5515 163.651 38.6273C161.742 39.6946 159.434 40.2283 156.726 40.2283ZM152.119 36.7139H156.505C158.536 36.7139 160.223 36.3322 161.568 35.5685C162.913 34.7962 163.92 33.6811 164.588 32.2233C165.256 30.7569 165.59 28.9694 165.59 26.8607C165.59 24.7695 165.256 22.9949 164.588 21.5371C163.929 20.0793 162.944 18.9731 161.633 18.218C160.323 17.4631 158.696 17.0857 156.752 17.0857H152.119V36.7139Z" fill="white"/>
<path d="M27.731 52C41.5381 52 52.731 40.8071 52.731 27C52.731 13.1929 41.5381 2 27.731 2C13.9238 2 2.73096 13.1929 2.73096 27C2.73096 40.8071 13.9238 52 27.731 52Z" fill="url(#paint0_linear_491_3865)"/>
<path d="M27.731 52C41.5381 52 52.731 40.8071 52.731 27C52.731 13.1929 41.5381 2 27.731 2C13.9238 2 2.73096 13.1929 2.73096 27C2.73096 40.8071 13.9238 52 27.731 52Z" stroke="url(#paint1_linear_491_3865)" stroke-width="1.875"/>
<path d="M27.5153 37.3517C33.3344 37.3517 38.0517 32.6344 38.0517 26.8154C38.0517 20.9963 33.3344 16.2791 27.5153 16.2791C21.6963 16.2791 16.979 20.9963 16.979 26.8154C16.979 32.6344 21.6963 37.3517 27.5153 37.3517Z" stroke="black" stroke-width="1.25"/>
<path d="M27.0122 40.2775L25.1475 44.184H29.6581L27.7934 40.2775H27.0122ZM27.4028 12.4266C28.5534 12.4266 29.4863 11.4937 29.4863 10.3431C29.4863 9.19254 28.5534 8.25989 27.4028 8.25989C26.2522 8.25989 25.3196 9.19254 25.3196 10.3431C25.3196 11.4937 26.2522 12.4266 27.4028 12.4266ZM27.7934 40.6681V10.3431H27.0122V40.6681H27.7934Z" fill="black"/>
<defs>
<linearGradient id="paint0_linear_491_3865" x1="27.731" y1="0.828036" x2="27.731" y2="53.1717" gradientUnits="userSpaceOnUse">
<stop stop-color="#C5C4C4"/>
<stop offset="1" stop-color="white"/>
</linearGradient>
<linearGradient id="paint1_linear_491_3865" x1="27.731" y1="0.828036" x2="27.731" y2="53.1717" gradientUnits="userSpaceOnUse">
<stop stop-color="white"/>
<stop offset="1" stop-opacity="0"/>
</linearGradient>
</defs>
</svg>
