<?xml version="1.0" encoding="UTF-8" standalone="no"?>
<!-- Created with Inkscape (http://www.inkscape.org/) -->

<svg
   version="1.1"
   id="svg2"
   width="379.29068"
   height="247.936"
   viewBox="0 0 379.29068 247.936"
   sodipodi:docname="ethereum-foundation.ai"
   xmlns:inkscape="http://www.inkscape.org/namespaces/inkscape"
   xmlns:sodipodi="http://sodipodi.sourceforge.net/DTD/sodipodi-0.dtd"
   xmlns="http://www.w3.org/2000/svg"
   xmlns:svg="http://www.w3.org/2000/svg">
  <defs
     id="defs6">
    <clipPath
       clipPathUnits="userSpaceOnUse"
       id="clipPath40">
      <path
         d="M 0,185.952 H 284.468 V 0 H 0 Z"
         id="path38" />
    </clipPath>
  </defs>
  <sodipodi:namedview
     id="namedview4"
     pagecolor="#ffffff"
     bordercolor="#000000"
     borderopacity="0.25"
     inkscape:showpageshadow="2"
     inkscape:pageopacity="0.0"
     inkscape:pagecheckerboard="0"
     inkscape:deskcolor="#d1d1d1" />
  <g
     id="g8"
     inkscape:groupmode="layer"
     inkscape:label="ethereum-foundation"
     transform="matrix(1.3333333,0,0,-1.3333333,0,247.936)">
    <g
       id="g10"
       transform="translate(48.8689,77.4921)">
      <path
         d="M 0,0 V 51.063 L -22.29,13.32 Z"
         style="fill:#ffe644;fill-opacity:1;fill-rule:nonzero;stroke:none"
         id="path12" />
    </g>
    <g
       id="g14"
       transform="translate(48.8689,128.5556)">
      <path
         d="M 0,0 22.29,-37.743 0,-51.063 Z"
         style="fill:#ec7463;fill-opacity:1;fill-rule:nonzero;stroke:none"
         id="path16" />
    </g>
    <g
       id="g18"
       transform="translate(26.5789,87.9462)">
      <path
         d="M 0,0 22.29,-13.319 V -30.55"
         style="fill:#009ecb;fill-opacity:1;fill-rule:nonzero;stroke:none"
         id="path20" />
    </g>
    <g
       id="g22"
       transform="translate(71.159,87.9462)">
      <path
         d="M 0,0 -22.29,-13.319 V -30.55"
         style="fill:#4d68ae;fill-opacity:1;fill-rule:nonzero;stroke:none"
         id="path24" />
    </g>
    <g
       id="g26"
       transform="translate(48.8689,104.1317)">
      <path
         d="M 0,0 -22.29,-13.319 0,-26.64 Z"
         style="fill:#57a759;fill-opacity:1;fill-rule:nonzero;stroke:none"
         id="path28" />
    </g>
    <g
       id="g30"
       transform="translate(48.8689,104.1317)">
      <path
         d="M 0,0 22.29,-13.32 0,-26.641 Z"
         style="fill:#8e5298;fill-opacity:1;fill-rule:nonzero;stroke:none"
         id="path32" />
    </g>
    <g
       id="g34">
      <g
         id="g36"
         clip-path="url(#clipPath40)">
        <g
           id="g42"
           transform="translate(96.3499,103.8178)">
          <path
             d="M 0,0 C -0.06,0.739 -0.421,1.422 -1,1.887 -2.27,2.877 -4.048,2.888 -5.33,1.913 -5.901,1.423 -6.275,0.744 -6.384,0 Z m -10.132,-1.5 c -0.027,1.319 0.275,2.625 0.877,3.8 0.556,1.072 1.408,1.96 2.456,2.561 1.114,0.617 2.373,0.927 3.646,0.9 C -1.906,5.782 -0.676,5.46 0.401,4.832 1.444,4.208 2.29,3.303 2.842,2.221 3.443,1.036 3.745,-0.277 3.722,-1.605 V -2.692 H -6.437 c 0.025,-0.804 0.38,-1.561 0.982,-2.094 0.664,-0.555 1.513,-0.841 2.378,-0.8 0.665,-0.007 1.322,0.148 1.913,0.452 0.722,0.408 1.368,0.937 1.913,1.562 l 2.3,-2.352 C 2.282,-6.784 1.351,-7.482 0.31,-7.978 c -1.06,-0.498 -2.218,-0.75 -3.388,-0.738 -1.291,-0.028 -2.567,0.282 -3.7,0.9 -1.056,0.59 -1.919,1.475 -2.482,2.546 -0.601,1.164 -0.901,2.46 -0.872,3.77"
             style="fill:#26293b;fill-opacity:1;fill-rule:nonzero;stroke:none"
             id="path44" />
        </g>
        <g
           id="g46"
           transform="translate(111.6267,105.8895)">
          <path
             d="M 0,0 V -5.506 C -0.034,-5.872 0.083,-6.235 0.323,-6.513 0.628,-6.75 1.012,-6.861 1.396,-6.825 h 3.128 v -3.567 H 1.06 c -1.263,-0.081 -2.513,0.3 -3.516,1.073 -0.856,0.781 -1.312,1.907 -1.241,3.063 V 0 h -3.36 v 3.309 h 3.361 V 6.8 h 3.7 V 3.309 H 5.378 V 0 Z"
             style="fill:#26293b;fill-opacity:1;fill-rule:nonzero;stroke:none"
             id="path48" />
        </g>
        <g
           id="g50"
           transform="translate(122.0188,114.3705)">
          <path
             d="m 0,0 h 3.7 v -6.437 h 0.052 c 1.734,1.787 4.459,2.17 6.618,0.931 0.786,-0.495 1.414,-1.204 1.81,-2.044 0.447,-0.953 0.668,-1.997 0.646,-3.05 v -8.272 h -3.7 v 7.78 c 0.045,0.779 -0.205,1.545 -0.7,2.147 C 7.934,-8.417 7.234,-8.133 6.513,-8.169 5.748,-8.126 4.999,-8.403 4.445,-8.933 3.921,-9.505 3.65,-10.265 3.695,-11.04 v -7.833 h -3.7 z"
             style="fill:#26293b;fill-opacity:1;fill-rule:nonzero;stroke:none"
             id="path52" />
        </g>
        <g
           id="g54"
           transform="translate(149.0789,103.8178)">
          <path
             d="M 0,0 C -0.06,0.739 -0.422,1.422 -1,1.887 -2.271,2.877 -4.048,2.888 -5.33,1.913 -5.903,1.424 -6.28,0.745 -6.39,0 Z m -10.133,-1.5 c -0.027,1.32 0.276,2.625 0.879,3.8 0.556,1.072 1.408,1.961 2.456,2.561 1.114,0.617 2.372,0.928 3.645,0.9 1.248,0.021 2.476,-0.3 3.554,-0.929 1.043,-0.624 1.89,-1.529 2.443,-2.611 0.6,-1.185 0.902,-2.498 0.879,-3.826 V -2.692 H -6.433 c 0.024,-0.804 0.379,-1.562 0.982,-2.094 0.664,-0.555 1.513,-0.841 2.377,-0.8 0.665,-0.007 1.321,0.148 1.913,0.452 0.722,0.408 1.369,0.936 1.914,1.562 l 2.3,-2.352 c -0.768,-0.86 -1.699,-1.558 -2.74,-2.054 -1.059,-0.498 -2.217,-0.751 -3.388,-0.738 -1.291,-0.029 -2.567,0.281 -3.7,0.9 -1.057,0.59 -1.919,1.475 -2.482,2.546 -0.603,1.164 -0.904,2.459 -0.876,3.77"
             style="fill:#26293b;fill-opacity:1;fill-rule:nonzero;stroke:none"
             id="path56" />
        </g>
        <g
           id="g58"
           transform="translate(158.1863,109.1976)">
          <path
             d="m 0,0 h 3.541 v -1.265 h 0.052 c 1.023,1.103 2.476,1.706 3.98,1.653 1.117,0.025 2.207,-0.346 3.076,-1.047 0.889,-0.738 1.522,-1.737 1.811,-2.856 L 8.995,-4.652 C 8.675,-3.583 7.652,-2.883 6.54,-2.97 5.748,-2.916 4.972,-3.214 4.422,-3.786 3.909,-4.414 3.65,-5.211 3.696,-6.021 V -13.7 h -3.699 z"
             style="fill:#26293b;fill-opacity:1;fill-rule:nonzero;stroke:none"
             id="path60" />
        </g>
        <g
           id="g62"
           transform="translate(184.239,103.8178)">
          <path
             d="M 0,0 C -0.06,0.739 -0.422,1.422 -1,1.887 -2.271,2.877 -4.048,2.888 -5.33,1.913 -5.902,1.423 -6.278,0.744 -6.391,0 Z m -10.133,-1.5 c -0.026,1.32 0.276,2.625 0.879,3.8 0.556,1.072 1.408,1.96 2.456,2.561 1.114,0.617 2.371,0.927 3.645,0.9 C -1.906,5.782 -0.677,5.461 0.4,4.832 1.444,4.208 2.292,3.303 2.845,2.221 3.444,1.036 3.745,-0.277 3.722,-1.605 V -2.692 H -6.436 c 0.024,-0.804 0.379,-1.562 0.982,-2.094 0.664,-0.556 1.513,-0.841 2.378,-0.8 0.665,-0.007 1.321,0.148 1.913,0.452 0.722,0.408 1.368,0.937 1.913,1.562 l 2.3,-2.352 C 2.283,-6.785 1.352,-7.483 0.31,-7.978 c -1.059,-0.498 -2.216,-0.75 -3.386,-0.738 -1.291,-0.029 -2.567,0.282 -3.7,0.9 -1.056,0.59 -1.918,1.475 -2.482,2.546 -0.602,1.164 -0.903,2.46 -0.875,3.77"
             style="fill:#26293b;fill-opacity:1;fill-rule:nonzero;stroke:none"
             id="path64" />
        </g>
        <g
           id="g66"
           transform="translate(192.4607,100.1527)">
          <path
             d="m 0,0 v 9.048 h 3.7 v -8.2 c -0.181,-1.202 0.646,-2.323 1.847,-2.504 0.211,-0.032 0.425,-0.033 0.636,-0.003 0.66,-0.031 1.303,0.217 1.771,0.685 0.453,0.495 0.691,1.151 0.659,1.822 v 8.2 h 3.7 v -13.7 H 8.771 v 1.214 H 8.719 C 8.303,-3.95 7.766,-4.35 7.155,-4.601 5.199,-5.425 2.947,-5.08 1.327,-3.709 0.399,-2.705 -0.08,-1.365 0,0"
             style="fill:#26293b;fill-opacity:1;fill-rule:nonzero;stroke:none"
             id="path68" />
        </g>
        <g
           id="g70"
           transform="translate(208.8738,109.1976)">
          <path
             d="M 0,0 H 3.259 V -1.189 H 3.312 C 3.586,-0.74 3.973,-0.37 4.435,-0.116 4.898,0.136 5.42,0.266 5.948,0.26 7.03,0.262 8.028,-0.322 8.557,-1.265 h 0.052 c 0.613,0.975 1.694,1.555 2.845,1.525 0.928,0.031 1.82,-0.359 2.428,-1.061 0.645,-0.773 0.977,-1.76 0.932,-2.765 v -10.135 h -3.408 v 9.487 c 0.022,0.329 -0.09,0.654 -0.31,0.9 -0.239,0.219 -0.556,0.332 -0.879,0.312 C 9.892,-2.988 9.575,-3.116 9.35,-3.352 9.125,-3.613 9.01,-3.952 9.028,-4.296 v -9.409 H 5.797 v 9.491 c 0.017,0.325 -0.09,0.644 -0.3,0.892 -0.22,0.225 -0.526,0.343 -0.84,0.325 -0.336,0.015 -0.662,-0.112 -0.9,-0.35 C 3.523,-3.604 3.401,-3.944 3.42,-4.291 V -13.7 H 0.008 Z"
             style="fill:#26293b;fill-opacity:1;fill-rule:nonzero;stroke:none"
             id="path72" />
        </g>
        <g
           id="g74"
           transform="translate(90.3538,77.079)">
          <path
             d="M 0,0 H -3.619 V 3.309 H 0 V 5.325 C -0.052,6.41 0.389,7.46 1.2,8.182 2.142,8.926 3.324,9.299 4.522,9.229 H 8.503 V 5.945 H 4.963 C 4.66,5.967 4.361,5.864 4.134,5.662 3.935,5.445 3.833,5.156 3.85,4.862 V 3.312 H 9.335 V 0 H 3.85 V -8.867 H 0 Z"
             style="fill:#26293b;fill-opacity:1;fill-rule:nonzero;stroke:none"
             id="path76" />
        </g>
        <g
           id="g78"
           transform="translate(114.0828,75.0624)">
          <path
             d="M 0,0 C 0.061,1.018 -0.247,2.022 -0.866,2.832 -1.481,3.53 -2.384,3.906 -3.313,3.854 -4.232,3.902 -5.124,3.525 -5.73,2.832 -6.349,2.022 -6.656,1.018 -6.596,0 c -0.061,-1.017 0.247,-2.021 0.866,-2.831 1.298,-1.335 3.434,-1.364 4.769,-0.066 0.026,0.026 0.052,0.052 0.078,0.08 C -0.258,-2.016 0.056,-1.015 0,0 m -10.288,0 c -0.025,1.308 0.277,2.601 0.879,3.761 0.563,1.071 1.42,1.959 2.469,2.559 2.276,1.223 5.014,1.223 7.29,0 1.05,-0.6 1.906,-1.488 2.469,-2.559 1.172,-2.37 1.172,-5.152 0,-7.522 C 2.256,-4.831 1.4,-5.719 0.35,-6.318 c -2.276,-1.224 -5.014,-1.224 -7.29,0 -1.051,0.598 -1.909,1.486 -2.473,2.557 -0.6,1.161 -0.901,2.454 -0.875,3.761"
             style="fill:#26293b;fill-opacity:1;fill-rule:nonzero;stroke:none"
             id="path80" />
        </g>
        <g
           id="g82"
           transform="translate(122.1429,72.8671)">
          <path
             d="m 0,0 v 9.048 h 3.7 v -8.2 c -0.178,-1.202 0.653,-2.321 1.855,-2.498 0.208,-0.031 0.42,-0.032 0.628,-0.002 0.661,-0.033 1.304,0.216 1.771,0.684 0.454,0.495 0.691,1.152 0.659,1.822 v 8.194 h 3.7 v -13.7 H 8.768 v 1.213 H 8.716 C 8.299,-3.95 7.762,-4.35 7.152,-4.602 4.82,-5.893 1.883,-5.048 0.593,-2.716 0.135,-1.889 -0.07,-0.944 0.004,-0.002 Z"
             style="fill:#26293b;fill-opacity:1;fill-rule:nonzero;stroke:none"
             id="path84" />
        </g>
        <g
           id="g86"
           transform="translate(139.597,81.913)">
          <path
             d="m 0,0 h 3.7 v -1.293 h 0.05 c 0.513,0.523 1.118,0.948 1.785,1.254 0.685,0.294 1.425,0.439 2.171,0.427 0.876,0.005 1.738,-0.213 2.506,-0.632 0.803,-0.451 1.458,-1.125 1.887,-1.941 0.514,-1.002 0.764,-2.118 0.725,-3.244 V -13.7 h -3.7 v 7.781 C 9.161,-5.155 8.922,-4.403 8.452,-3.8 7.963,-3.248 7.248,-2.953 6.513,-2.999 5.748,-2.956 4.999,-3.233 4.445,-3.764 3.921,-4.336 3.65,-5.096 3.695,-5.87 v -7.833 h -3.7 z"
             style="fill:#26293b;fill-opacity:1;fill-rule:nonzero;stroke:none"
             id="path88" />
        </g>
        <g
           id="g90"
           transform="translate(166.2732,74.1864)">
          <path
             d="m 0,0 v 1.781 c 0.001,0.513 -0.143,1.015 -0.414,1.449 -0.284,0.455 -0.68,0.828 -1.15,1.084 -0.502,0.28 -1.068,0.422 -1.642,0.415 -0.887,0.037 -1.736,-0.353 -2.288,-1.048 -1.127,-1.698 -1.122,-3.908 0.013,-5.6 0.537,-0.692 1.373,-1.087 2.249,-1.06 0.855,-0.029 1.687,0.283 2.315,0.865 0.595,0.54 0.929,1.309 0.917,2.112 z m -10.03,0.877 c -0.021,1.285 0.253,2.559 0.8,3.723 0.493,1.054 1.272,1.95 2.249,2.585 0.979,0.624 2.121,0.948 3.283,0.93 1.33,0.078 2.638,-0.368 3.644,-1.241 h 0.053 v 6.024 H 3.698 V -5.974 h -3.41 v 1.189 H 0.234 c -1.045,-1.063 -2.491,-1.635 -3.98,-1.574 -1.146,-0.019 -2.273,0.294 -3.244,0.899 -0.972,0.619 -1.747,1.502 -2.237,2.545 -0.555,1.186 -0.83,2.483 -0.803,3.792"
             style="fill:#26293b;fill-opacity:1;fill-rule:nonzero;stroke:none"
             id="path92" />
        </g>
        <g
           id="g94"
           transform="translate(183.5398,73.3046)">
          <path
             d="M 0,0 V 1.551 H -0.05 C -0.236,1.268 -0.508,1.051 -0.825,0.931 -1.378,0.723 -1.95,0.566 -2.533,0.466 -3.227,0.354 -3.898,0.132 -4.522,-0.192 c -0.344,-0.202 -0.552,-0.573 -0.544,-0.971 -0.014,-0.364 0.169,-0.708 0.478,-0.9 0.423,-0.232 0.902,-0.339 1.383,-0.31 0.543,-0.002 1.08,0.108 1.577,0.325 0.464,0.188 0.872,0.488 1.19,0.875 0.277,0.328 0.432,0.743 0.439,1.173 z m -8.582,-1.422 c -0.06,1.142 0.425,2.244 1.305,2.973 1.301,0.87 2.798,1.403 4.357,1.551 0.753,0.084 1.488,0.28 2.183,0.582 0.346,0.151 0.573,0.489 0.582,0.866 0.004,0.406 -0.214,0.783 -0.569,0.982 -0.472,0.265 -1.01,0.39 -1.551,0.362 C -2.977,5.908 -3.66,5.67 -4.201,5.222 -4.747,4.768 -5.118,4.137 -5.248,3.438 l -3.438,0.776 c 0.165,0.915 0.566,1.77 1.164,2.482 0.616,0.734 1.394,1.313 2.274,1.693 0.937,0.41 1.95,0.617 2.973,0.607 C -0.732,9.074 0.779,8.547 1.939,7.527 3.007,6.505 3.581,5.072 3.516,3.596 V -5.09 H 0.209 v 1.523 H 0.157 c -0.413,-0.617 -0.99,-1.105 -1.667,-1.409 -0.759,-0.344 -1.584,-0.514 -2.417,-0.5 -0.829,-0.014 -1.65,0.162 -2.4,0.516 -0.677,0.317 -1.251,0.819 -1.656,1.448 -0.399,0.623 -0.607,1.35 -0.599,2.09"
             style="fill:#26293b;fill-opacity:1;fill-rule:nonzero;stroke:none"
             id="path96" />
        </g>
        <g
           id="g98"
           transform="translate(199.5183,78.6034)">
          <path
             d="M 0,0 V -5.506 C -0.035,-5.871 0.081,-6.235 0.321,-6.513 0.626,-6.75 1.01,-6.861 1.395,-6.825 h 3.127 v -3.567 H 1.059 c -1.263,-0.081 -2.512,0.3 -3.514,1.073 -0.857,0.781 -1.313,1.907 -1.242,3.063 V 0 h -3.36 v 3.31 h 3.36 v 3.489 h 3.7 V 3.31 H 5.378 V 0 Z"
             style="fill:#26293b;fill-opacity:1;fill-rule:nonzero;stroke:none"
             id="path100" />
        </g>
        <path
           d="m 214.329,87.698 h 3.8 v -3.643 h -3.8 z m 8.66,-16.099 v -3.386 h -13.467 v 3.386 h 4.886 v 6.927 h -4.631 v 3.388 h 8.325 V 71.599 Z"
           style="fill:#26293b;fill-opacity:1;fill-rule:nonzero;stroke:none"
           id="path102" />
        <g
           id="g104"
           transform="translate(237.1297,75.0624)">
          <path
             d="M 0,0 C 0.061,1.018 -0.247,2.022 -0.866,2.832 -1.481,3.528 -2.382,3.905 -3.31,3.854 -4.229,3.901 -5.12,3.525 -5.726,2.832 -6.346,2.022 -6.652,1.018 -6.592,0 c -0.061,-1.017 0.246,-2.022 0.866,-2.831 1.298,-1.335 3.433,-1.364 4.769,-0.066 0.026,0.026 0.053,0.052 0.078,0.08 C -0.255,-2.016 0.057,-1.015 0,0 m -10.288,0 c -0.025,1.308 0.276,2.6 0.877,3.761 0.564,1.07 1.421,1.958 2.471,2.559 2.275,1.223 5.013,1.223 7.29,0 1.048,-0.6 1.905,-1.488 2.468,-2.559 1.17,-2.37 1.17,-5.151 0,-7.522 -0.562,-1.07 -1.419,-1.958 -2.468,-2.557 -2.277,-1.224 -5.015,-1.224 -7.29,0 -1.05,0.599 -1.908,1.487 -2.471,2.557 -0.6,1.161 -0.902,2.454 -0.877,3.761"
             style="fill:#26293b;fill-opacity:1;fill-rule:nonzero;stroke:none"
             id="path106" />
        </g>
        <g
           id="g108"
           transform="translate(245.0721,81.913)">
          <path
             d="m 0,0 h 3.7 v -1.293 h 0.052 c 0.513,0.523 1.117,0.949 1.784,1.254 0.685,0.294 1.425,0.439 2.171,0.427 0.875,0.005 1.738,-0.213 2.507,-0.632 0.803,-0.451 1.458,-1.125 1.887,-1.941 0.513,-1.002 0.762,-2.118 0.724,-3.244 V -13.7 h -3.7 v 7.781 C 9.162,-5.155 8.924,-4.402 8.453,-3.8 7.965,-3.248 7.249,-2.953 6.514,-2.999 5.748,-2.957 5,-3.233 4.446,-3.764 3.922,-4.336 3.651,-5.096 3.696,-5.87 v -7.833 h -3.7 z"
             style="fill:#26293b;fill-opacity:1;fill-rule:nonzero;stroke:none"
             id="path110" />
        </g>
      </g>
    </g>
  </g>
</svg>
