<svg width="1017" height="200" viewBox="0 0 1017 200" fill="none" xmlns="http://www.w3.org/2000/svg">
<rect width="200" height="200" rx="100" fill="#24E5DF"/>
<path d="M100.135 17C54.2233 17 17 54.3878 17 100.501C17 146.615 54.2233 184 100.135 184C146.047 184 183.266 146.616 183.266 100.501C183.266 54.3868 146.044 17 100.135 17ZM128.267 128.765C100.018 157.142 64.5171 167.491 48.9755 151.883C33.4348 136.279 43.744 100.619 71.9995 72.2417C100.25 43.8647 135.749 33.5118 151.292 49.1165C166.833 64.7212 156.524 100.381 128.267 128.765Z" fill="#133D38"/>
<path d="M665.896 101.084C665.896 133.023 648.038 158.51 603.908 158.51H558.747V41.6858H603.908C649.068 41.6858 665.896 69.1459 665.896 101.084ZM642.543 100.098C642.543 79.8365 630.867 62.2901 606.484 62.2901H583.964V136.378H606.484C630.867 136.378 642.543 120.36 642.543 100.098Z" fill="#133D38"/>
<path d="M776.823 41.6858L776.903 135.2V137.568C776.903 148.485 784.901 157.369 795.818 157.369H809.612V136.831C803.558 138.17 799.167 137.57 799.167 130.454L799.972 41.6859L776.823 41.6858Z" fill="#133D38"/>
<path d="M819.673 41.6858L819.754 135.2V137.568C819.754 148.485 827.752 157.369 838.669 157.369H852.462V136.831C846.409 138.17 842.018 137.57 842.018 130.454L842.822 41.6859L819.673 41.6858Z" fill="#133D38"/>
<path d="M392.409 41.6858L392.49 135.2V137.568C392.49 148.485 400.488 157.369 411.405 157.369H425.198V136.831C419.144 138.17 414.754 137.57 414.754 130.454L415.558 41.6859L392.409 41.6858Z" fill="#133D38"/>
<path d="M477.256 64.0017C448.676 64.0017 431.527 85.1345 431.527 111.116C431.527 137.098 448.676 158.23 477.256 158.23C505.837 158.23 522.984 137.099 522.984 111.116C522.984 85.1335 505.836 64.0017 477.256 64.0017ZM477.256 138.137C462.186 138.137 453.699 126.013 453.699 111.116C453.699 96.2193 462.186 84.0949 477.256 84.0949C492.327 84.0949 500.813 96.2198 500.813 111.116C500.813 126.012 492.326 138.137 477.256 138.137Z" fill="#133D38"/>
<path d="M332.43 115.219H348.069C344.464 128.612 336.926 135.865 321.336 135.865C302.555 135.865 288.947 124.525 288.947 99.2213C288.947 85.6014 298.51 61.6043 322.195 61.6043C336.13 61.6043 347.749 67.3741 351.939 79.9038H376.193C372.535 59.1847 353.767 41 319.811 41C281.272 41 262 73.1299 262 100.774C262 136.378 288.478 158.51 316.701 158.51C339.299 158.51 349.032 143.202 352.637 134.445C352.981 133.586 353.275 132.581 354.649 133.098C355.679 133.44 355.528 134.473 355.013 135.848C352.609 141.687 352.416 145.289 352.416 149.238V157.137H376.456V95.9879H332.43L332.43 115.219Z" fill="#133D38"/>
<path d="M766.376 113.181C766.376 138.934 749.376 159.885 721.043 159.885C692.711 159.885 675.711 138.934 675.711 113.181C675.711 87.4274 692.711 66.4724 721.043 66.4724C749.376 66.4724 766.376 87.4234 766.376 113.181ZM744.397 113.181C744.397 98.4111 735.983 86.3912 721.043 86.3912C706.104 86.3912 697.69 98.411 697.69 113.181C697.69 127.951 706.104 139.966 721.043 139.966C735.983 139.966 744.397 127.947 744.397 113.181Z" fill="#133D38"/>
<path d="M894.705 105.11C910.847 104.25 925.099 105.796 924.927 97.3828C924.755 91.2015 922.352 84.3308 906.725 84.3308C891.271 84.3308 887.321 90.6835 886.12 98.0683H864.484C867.575 75.2322 887.15 66.4724 907.413 66.4724C928.189 66.4724 946.906 73.3432 946.906 108.37V158.51H924.927V152.157C924.927 148.037 925.957 145.119 927.503 142.198C928.189 140.652 928.877 138.934 927.331 138.249C925.614 137.563 924.927 139.281 924.583 140.138C919.432 152.672 909.473 159.885 893.332 159.885C876.332 159.885 861.736 148.893 861.736 133.614C861.736 113.523 876.504 106.139 894.705 105.11ZM898.483 119.705C889.039 120.733 883.716 124.34 883.716 132.41C883.716 139.966 890.928 144.773 901.059 143.402C912.735 141.855 924.755 134.299 924.927 111.806C919.775 117.473 911.533 118.33 898.483 119.705Z" fill="#133D38"/>
<path d="M983.667 85.5343C989.162 72.9964 994.142 66.4724 1016.29 66.4724V88.7944C990.707 87.0807 983.323 96.1793 983.323 119.191V158.51H961.344V67.8474H983.323V72.8251C983.323 76.7746 982.293 80.21 980.748 83.3026C980.061 84.8449 979.546 86.9054 981.607 87.2521C982.637 87.4235 983.496 86.0484 983.667 85.5343Z" fill="#133D38"/>
</svg>
