<svg width="169" height="41" viewBox="0 0 169 41" fill="none" xmlns="http://www.w3.org/2000/svg">
<g clip-path="url(#clip0_488_3386)">
<path d="M59.2446 31.0929H73.778V27.3071H63.554V6.10657H59.2446V31.0929Z" fill="white"/>
<path d="M81.3569 12.4583H77.1745V31.0928H81.3569V12.4583ZM79.2869 9.38753C80.6811 9.38753 81.9064 8.20975 81.9064 6.77955C81.9064 5.34935 80.6811 4.21362 79.2869 4.21362C77.8503 4.21362 76.625 5.34935 76.625 6.77955C76.625 8.20975 77.8503 9.38753 79.2869 9.38753Z" fill="white"/>
<path d="M102.806 13.4259C100.905 12.6266 98.2851 12.0377 95.7076 12.0377C89.0751 12.0377 84.9346 15.8235 84.9346 21.7967C84.9346 27.9801 89.0751 31.5136 95.1162 31.5136C96.5953 31.5136 97.947 31.2191 98.6653 30.9247V38.6645H102.806V13.4259ZM98.6653 27.3071C97.6088 27.6857 96.7216 27.896 95.37 27.896C91.6096 27.896 89.1595 25.4984 89.1595 21.7967C89.1595 17.9267 91.6521 15.7394 95.7076 15.7394C96.8485 15.7394 97.8201 15.9497 98.6653 16.2021V27.3071Z" fill="white"/>
<path d="M122.916 12.458H118.776V27.8115C117.678 27.9798 116.495 28.064 115.565 28.064C112.819 28.064 111.129 27.0544 111.129 24.2781V12.458H106.989V24.5726C106.989 29.7886 110.284 31.5133 115.65 31.5133C117.847 31.5133 120.719 31.2188 122.916 30.6719V12.458Z" fill="white"/>
<path d="M132.458 12.4583H128.276V31.0928H132.458V12.4583ZM130.388 9.38753C131.782 9.38753 133.007 8.20975 133.007 6.77955C133.007 5.34935 131.782 4.21362 130.388 4.21362C128.951 4.21362 127.726 5.34935 127.726 6.77955C127.726 8.20975 128.951 9.38753 130.388 9.38753Z" fill="white"/>
<path d="M135.629 15.9495H138.46V25.7505C138.46 29.999 141.037 31.5134 144.079 31.5134C145.853 31.5134 147.374 31.1348 148.599 30.5038V26.7601C147.458 27.4331 146.402 27.8117 145.177 27.8117C143.572 27.8117 142.6 27.0545 142.6 24.8251V15.9495H147.924V12.4581H142.6V7.91516H138.46V12.4581H135.629V15.9495Z" fill="white"/>
<path d="M153.835 12.458H149.356L157.088 31.9339L154.468 38.6642H158.567L168.706 12.458H164.397L159.158 27.1385L153.835 12.458Z" fill="white"/>
<path d="M21.0028 39.6258C31.6436 39.6258 40.2697 30.9641 40.2697 20.2793C40.2697 9.59448 31.6436 0.932739 21.0028 0.932739C10.3619 0.932739 1.73584 9.59448 1.73584 20.2793C1.73584 30.9641 10.3619 39.6258 21.0028 39.6258Z" fill="#2EB6EA"/>
<path d="M20.8977 39.6255C1.73541 39.6255 -5.82731 14.3123 11.0987 3.64453C9.08577 24.8012 19.7936 25.2691 29.7301 24.8012C46.3803 24.017 46.3914 39.6255 46.3914 39.6255H20.8977Z" fill="#1542CD"/>
<path fill-rule="evenodd" clip-rule="evenodd" d="M39.2143 26.608C36.3155 34.0681 29.1873 39.4026 20.7891 39.6401C20.9865 39.6455 21.1851 39.6483 21.3851 39.6483H46.7187C46.7187 39.6483 46.7122 30.4999 39.2143 26.608Z" fill="#745DDF"/>
</g>
<defs>
<clipPath id="clip0_488_3386">
<rect width="167.692" height="40" fill="white" transform="translate(0.591309 0.5)"/>
</clipPath>
</defs>
</svg>
