<svg width="203" height="55" viewBox="0 0 203 55" fill="none" xmlns="http://www.w3.org/2000/svg">
<path d="M103.616 27.0513C103.616 24.4535 101.998 22.5797 99.5388 22.5797C97.0801 22.5797 95.462 24.4554 95.462 27.0513C95.462 29.6472 97.0791 31.5248 99.5388 31.5248C102 31.5248 103.616 29.6491 103.616 27.0513ZM90.9956 27.0513C90.9956 22.4147 94.2974 18.4702 98.5998 18.4702C100.832 18.4702 102.516 19.6199 103.259 20.6723V18.8303H107.689V35.2667H103.269V33.4248C102.53 34.477 100.842 35.6287 98.6089 35.6287C94.3066 35.6287 91.0048 31.6899 91.0048 27.0457" fill="white"/>
<path d="M122.957 18.8303L118.687 29.3528L114.416 18.8303H109.531L116.681 35.2724H120.727L127.909 18.8303H122.957Z" fill="white"/>
<path d="M132.429 25.1382H140.033C139.516 22.9362 137.8 22.1147 136.312 22.1147C134.241 22.1147 132.85 23.2982 132.437 25.1382H132.429ZM127.939 27.0138C127.939 22.1147 131.53 18.4628 136.448 18.4628C141.173 18.4628 145.153 21.9159 144.894 28.0981H132.266C132.429 30.0394 133.852 31.7161 136.635 31.7161C138.189 31.7161 139.548 31.0578 140.066 29.9061H144.693C143.754 33.2335 140.518 35.6419 136.41 35.6419C131.459 35.6419 127.932 32.0257 127.932 27.027" fill="white"/>
<path d="M163.984 18.8303H159.551V35.2724H163.984V18.8303Z" fill="white"/>
<path d="M166.315 27.0513C166.315 22.2834 169.907 18.4702 174.826 18.4702C179.29 18.4702 182.235 21.3305 183.108 25.1119H178.513C177.899 23.632 176.733 22.546 174.822 22.546C172.49 22.546 170.776 24.2903 170.776 27.0476C170.776 29.8048 172.49 31.5491 174.822 31.5491C176.73 31.5491 177.894 30.465 178.513 28.9851H183.108C182.235 32.7664 179.29 35.6269 174.826 35.6269C169.907 35.6269 166.315 31.8118 166.315 27.0438" fill="white"/>
<path d="M194.912 18.8303L189.669 24.8812V18.8303H185.237V35.2724H189.669V27.7098L196.271 35.2724H201.74L193.844 26.2299L200.251 18.8303H194.912Z" fill="white"/>
<path d="M84.2242 26.4926C84.2242 24.026 83.486 22.5799 81.6994 22.5799C79.791 22.5799 78.5618 23.9942 78.464 27.0196V35.2725H74.0345V26.4926C74.0345 24.026 73.2962 22.5799 71.5115 22.5799C69.5699 22.5799 68.2761 24.0917 68.2761 27.2484V35.2669H63.8467V18.8305H68.2761V20.7062C69.247 19.2713 70.8655 18.4291 72.5782 18.4703C74.9093 18.4703 76.5907 19.6201 77.5946 21.4939C78.5932 19.5207 80.7931 18.4703 82.5981 18.4703C86.474 18.4703 88.65 21.265 88.65 25.7366V35.2669H84.2205L84.2242 26.4926Z" fill="white"/>
<path d="M147.144 18.8303H151.572V21.6589C152.126 20.0477 153.772 18.8303 155.585 18.8303H157.072V23.5983C156.428 23.3619 155.751 23.24 155.067 23.2382C152.964 23.2382 151.572 24.8812 151.572 27.6104V35.2668H147.144V18.8303Z" fill="white"/>
<path d="M27.2582 2.69397C12.9146 2.69211 1.28604 14.3207 1.28418 28.6644C1.28232 43.008 12.9109 54.6366 27.2546 54.6384C41.5982 54.6403 53.2268 43.0117 53.2286 28.668V28.6644C53.2268 14.3225 41.6001 2.69584 27.2582 2.69397Z" fill="#6400FF"/>
<path d="M27.1298 32.7088V26.8889L11.2124 35.0547H40.7612V18.7233L27.1298 32.7088Z" fill="white"/>
</svg>
