<svg width="239" height="41" viewBox="0 0 239 41" fill="none" xmlns="http://www.w3.org/2000/svg">
<path d="M55.8569 37.0515V13.1H59.4206L59.76 15.0333H59.9297C60.9478 13.7091 62.6781 12.7606 65.0872 12.7606C69.4963 12.7606 73.0266 16.3576 73.0266 21.6818C73.0266 27.0061 69.4994 30.603 65.0872 30.603C62.7115 30.603 61.0509 29.6182 60.1691 28.5H59.9994V37.0485H55.86L55.8569 37.0515ZM68.8842 21.6849C68.8842 18.5637 66.8812 16.597 64.4388 16.597C61.9963 16.597 59.9933 18.5637 59.9933 21.6849C59.9933 24.8061 61.9963 26.7727 64.4388 26.7727C66.8812 26.7727 68.8842 24.8061 68.8842 21.6849Z" fill="#22143D"/>
<path d="M75.1265 21.6818C75.1265 16.4909 78.8568 12.7606 83.8447 12.7606C88.8325 12.7606 92.5628 16.4909 92.5628 21.6818C92.5628 26.8727 88.8325 30.603 83.8447 30.603C78.8568 30.603 75.1265 26.8364 75.1265 21.6818ZM88.3901 21.6818C88.3901 18.6273 86.3537 16.594 83.8447 16.594C81.3356 16.594 79.2659 18.6303 79.2659 21.6818C79.2659 24.7333 81.3356 26.7364 83.8447 26.7364C86.3537 26.7364 88.3901 24.7364 88.3901 21.6818Z" fill="#22143D"/>
<path d="M95.563 30.2667V6.51819H99.7024V30.2667H95.563Z" fill="#22143D"/>
<path d="M115.069 13.1H119.478L112.015 33.9636C111.269 36.0333 110.251 37.0515 107.569 37.0515H103.566V33.2182H106.96C107.572 33.2182 107.908 32.9121 108.115 32.403L108.521 31.2848L101.533 13.1H105.942L110.387 25.0091H111.066L115.069 13.1Z" fill="#22143D"/>
<path d="M120.269 31.1152H124.475C124.645 32.2333 125.763 33.7606 128.411 33.7606C130.887 33.7606 132.517 32.2 132.517 29.8243V27.4152H132.348C131.432 28.4 129.736 29.2818 127.563 29.2818C123.154 29.2818 119.76 25.8879 119.76 21.003C119.76 16.1182 123.154 12.7606 127.563 12.7606C129.836 12.7606 131.499 13.6758 132.551 14.9667H132.72L133.06 13.1H136.657V29.8243C136.657 34.3697 133.602 37.3909 128.411 37.3909C122.611 37.3909 120.372 33.5909 120.269 31.1152ZM132.517 21.0061C132.517 18.3273 130.617 16.4606 128.208 16.4606C125.799 16.4606 123.932 18.3273 123.932 21.0061C123.932 23.6849 125.832 25.5849 128.208 25.5849C130.584 25.5849 132.517 23.7182 132.517 21.0061Z" fill="#22143D"/>
<path d="M139.533 21.6818C139.533 16.4909 143.263 12.7606 148.251 12.7606C153.239 12.7606 156.969 16.4909 156.969 21.6818C156.969 26.8727 153.239 30.603 148.251 30.603C143.263 30.603 139.533 26.8364 139.533 21.6818ZM152.796 21.6818C152.796 18.6273 150.76 16.594 148.251 16.594C145.742 16.594 143.672 18.6303 143.672 21.6818C143.672 24.7333 145.742 26.7364 148.251 26.7364C150.76 26.7364 152.796 24.7364 152.796 21.6818Z" fill="#22143D"/>
<path d="M159.851 30.2667V13.1H163.411L163.751 14.7273H163.92C164.599 13.9485 166.296 12.7606 168.872 12.7606C172.808 12.7606 175.657 15.6091 175.657 19.9515V30.2636H171.517V20.494C171.517 18.2879 169.957 16.694 167.82 16.694C165.684 16.694 163.987 18.3576 163.987 20.494V30.2636H159.848L159.851 30.2667Z" fill="#22143D"/>
<path d="M183.417 30.2667V6.51819H185.317V30.2667H183.417Z" fill="#22143D"/>
<path d="M188.854 25.4485C188.854 22.2939 190.957 20.1909 195.403 20.1909H200.39V19.3424C200.39 16.4576 198.694 14.7636 195.912 14.7636C193.13 14.7636 191.466 16.3576 191.297 18.2242H189.363C189.533 15.4424 191.806 12.9667 195.912 12.9667C200.018 12.9667 202.324 15.2727 202.324 19.3455V30.2697H200.66L200.387 27.6576H200.218C199.336 29.3212 197.266 30.6091 194.551 30.6091C191.157 30.6091 188.851 28.5061 188.851 25.4515L188.854 25.4485ZM200.387 22.803V22.0212H195.4C192.245 22.0212 190.784 23.4121 190.784 25.4485C190.784 27.4849 192.175 28.8061 194.551 28.8061C198.351 28.8061 200.387 26.2606 200.387 22.8V22.803Z" fill="#22143D"/>
<path d="M208.645 27.3152H208.475L208.202 30.2667H206.575V6.51819H208.475V16.2546H208.645C210.002 14.2515 211.833 12.9636 214.412 12.9636C218.721 12.9636 222.045 16.4576 222.045 21.7849C222.045 27.1121 218.721 30.6061 214.412 30.6061C211.833 30.6061 210.002 29.3182 208.645 27.3152ZM220.145 21.7849C220.145 17.4758 217.43 14.7636 214.309 14.7636C211.187 14.7636 208.472 17.4788 208.472 21.7849C208.472 26.0909 211.254 28.8061 214.309 28.8061C217.363 28.8061 220.145 26.0909 220.145 21.7849Z" fill="#22143D"/>
<path d="M224.063 25.3454H225.996C225.996 27.1424 227.693 28.806 230.611 28.806C233.53 28.806 235.09 27.4485 235.09 25.7879C235.09 24.2273 234.072 23.2424 231.936 22.8697L228.984 22.3606C225.999 21.8515 224.405 20.3939 224.405 17.7818C224.405 15.1697 226.442 12.9636 230.445 12.9636C234.448 12.9636 236.857 15.4394 236.857 18.2212H234.924C234.924 16.3545 233.227 14.7606 230.445 14.7606C227.663 14.7606 226.339 16.1182 226.339 17.7788C226.339 19.1697 227.121 20.1545 229.324 20.5273L232.275 21.0364C235.533 21.6121 237.024 23.2091 237.024 25.7848C237.024 28.3606 234.851 30.603 230.611 30.603C226.372 30.603 224.063 28.1273 224.063 25.3454Z" fill="#22143D"/>
<path d="M33.5839 28.2606L43.7597 22.3848C44.2991 22.0727 44.6324 21.4939 44.6324 20.8727V9.1212C44.6324 8.49999 44.2991 7.9212 43.7597 7.60908L33.5839 1.73332C33.0445 1.4212 32.3748 1.42423 31.8385 1.73332L21.6627 7.60908C21.1233 7.9212 20.79 8.49999 20.79 9.1212V30.1212L13.6536 34.2394L6.51727 30.1212V21.8818L13.6536 17.7636L18.3597 20.4818V14.9545L14.5264 12.7394C14.2627 12.5879 13.9597 12.506 13.6536 12.506C13.3476 12.506 13.0445 12.5879 12.7809 12.7394L2.60515 18.6151C2.06575 18.9273 1.73242 19.506 1.73242 20.1273V31.8788C1.73242 32.5 2.06575 33.0788 2.60515 33.3909L12.7809 39.2667C13.3203 39.5757 13.987 39.5757 14.5264 39.2667L24.7021 33.3909C25.2415 33.0788 25.5748 32.5 25.5748 31.8788V10.8788L25.7021 10.806L32.7082 6.76059L39.8445 10.8788V19.1182L32.7082 23.2364L28.0082 20.5242V26.0515L31.8355 28.2606C32.3748 28.5697 33.0445 28.5697 33.5809 28.2606H33.5839Z" fill="url(#paint0_linear_488_3790)"/>
<defs>
<linearGradient id="paint0_linear_488_3790" x1="1.59303" y1="33.0303" x2="42.79" y2="9.11817" gradientUnits="userSpaceOnUse">
<stop stop-color="#A726C1"/>
<stop offset="0.88" stop-color="#803BDF"/>
<stop offset="1" stop-color="#7B3FE4"/>
</linearGradient>
</defs>
</svg>
