<svg width="572" height="109" viewBox="0 0 572 109" fill="none" xmlns="http://www.w3.org/2000/svg">
<g clip-path="url(#clip0_230_754)">
<path d="M31.4325 65.8888C33.9829 65.8888 36.0505 63.8535 36.0505 61.3428C36.0505 58.8322 33.9829 56.7969 31.4325 56.7969C28.882 56.7969 26.8145 58.8322 26.8145 61.3428C26.8145 63.8535 28.882 65.8888 31.4325 65.8888Z" fill="black"/>
<path d="M71.4419 65.8902C74.0075 65.8902 76.0874 63.8428 76.0874 61.3172C76.0874 58.7916 74.0075 56.7441 71.4419 56.7441C68.8763 56.7441 66.7964 58.7916 66.7964 61.3172C66.7964 63.8428 68.8763 65.8902 71.4419 65.8902Z" fill="black"/>
<path fill-rule="evenodd" clip-rule="evenodd" d="M5.08652 62.2366L17.0851 70.4762C17.9555 71.0715 17.8777 71.2339 16.8514 70.9633L7.56045 68.5685C7.50942 68.547 7.45179 68.5463 7.40024 68.5666C7.34869 68.5869 7.30744 68.6265 7.28557 68.6768C7.2637 68.727 7.263 68.7837 7.28362 68.8345C7.30424 68.8852 7.34449 68.9258 7.39553 68.9474L20.4524 77.3358C20.4875 77.3613 20.5128 77.3979 20.524 77.4394C20.5352 77.481 20.5317 77.5251 20.5141 77.5644C20.4966 77.6038 20.4659 77.636 20.4272 77.656C20.3885 77.6759 20.3441 77.6823 20.3012 77.674L8.93486 74.7922C8.88045 74.7831 8.82451 74.7922 8.77596 74.818C8.7274 74.8439 8.68901 74.8849 8.66689 74.9347C8.64477 74.9845 8.64019 75.0401 8.65388 75.0927C8.66757 75.1454 8.69874 75.192 8.74244 75.2252L21.7031 83.5595C21.7326 83.5748 21.7546 83.5995 21.7652 83.6294C21.7759 83.6593 21.7746 83.6924 21.7615 83.723C21.7485 83.7535 21.7244 83.7796 21.6937 83.7967C21.6629 83.8138 21.6273 83.8208 21.5931 83.8165L11.3676 82.2335C10.4055 82.0802 10.323 82.2786 11.1202 82.8288C21.0984 89.7019 31.0765 96.566 41.0547 103.421C49.796 109.415 55.2936 108.17 63.9249 102.082C73.3166 95.443 82.7405 88.9082 92.1964 82.4771C92.2118 82.4709 92.2257 82.4617 92.2374 82.4502C92.2396 82.4481 92.2416 82.446 92.2436 82.4438C92.2466 82.4403 92.2495 82.4367 92.2521 82.4329C92.2572 82.4257 92.2615 82.418 92.2649 82.4099C92.2713 82.3948 92.2746 82.3787 92.2746 82.3623C92.2747 82.346 92.2714 82.3298 92.2651 82.3147C92.2588 82.2996 92.2495 82.2859 92.2378 82.2743C92.2301 82.2667 92.2215 82.2601 92.2121 82.2547C92.2093 82.2531 92.2065 82.2516 92.2036 82.2502L92.1969 82.2473C92.1858 82.2427 92.1741 82.2398 92.1623 82.2385C92.1577 82.238 92.1531 82.2377 92.1486 82.2377C92.1437 82.2377 92.1389 82.238 92.1341 82.2385C92.1314 82.2388 92.1288 82.2392 92.1263 82.2396C92.1244 82.2399 92.1226 82.2403 92.1208 82.2407C92.1138 82.2422 92.1069 82.2444 92.1002 82.2471L81.586 83.8977C80.6514 84.051 80.5781 83.8752 81.3661 83.37L93.9694 75.3605C94.0156 75.3332 94.0501 75.2903 94.0663 75.2397C94.0825 75.1891 94.0793 75.1345 94.0573 75.0861C94.0352 75.0377 93.9959 74.9989 93.9468 74.9772C93.8976 74.9554 93.8421 74.9522 93.7907 74.9681L82.7817 77.7687C82.7252 77.7939 82.6609 77.7959 82.6029 77.7743C82.5449 77.7527 82.498 77.7094 82.4725 77.6537C82.447 77.5981 82.4449 77.5348 82.4668 77.4777C82.4888 77.4206 82.5328 77.3744 82.5893 77.3493L95.7149 68.8121C95.7479 68.7877 95.7714 68.7528 95.7812 68.7133C95.7911 68.6738 95.7867 68.6322 95.7689 68.5955C95.751 68.5588 95.7209 68.5293 95.6835 68.5121C95.6461 68.4948 95.6037 68.4909 95.5637 68.5009L85.613 71.3286C85.5823 71.3437 85.5489 71.3527 85.5147 71.3551C85.4805 71.3575 85.4461 71.3532 85.4136 71.3425C85.381 71.3319 85.3509 71.315 85.325 71.2929C85.2991 71.2707 85.2779 71.2438 85.2625 71.2136C85.2472 71.1834 85.238 71.1505 85.2356 71.1168C85.2332 71.0831 85.2375 71.0493 85.2484 71.0173C85.2592 70.9852 85.2764 70.9556 85.2988 70.9301C85.3213 70.9046 85.3487 70.8837 85.3793 70.8686L96.7045 62.9672C96.7555 62.9347 96.7926 62.8847 96.8086 62.8269C96.8246 62.7691 96.8184 62.7075 96.7912 62.654C96.764 62.6004 96.7177 62.5585 96.6611 62.5365C96.6045 62.5144 96.5417 62.5136 96.4846 62.5343L90.0111 64.5367C89.936 64.557 89.856 64.5516 89.7844 64.5214C89.7128 64.4911 89.6538 64.4377 89.617 64.3701C89.5802 64.3024 89.5679 64.2245 89.5821 64.149C89.5963 64.0736 89.6361 64.0051 89.695 63.9549L98.8623 56.6895C99.2105 56.4189 99.1692 56.2159 98.7386 56.0806C98.5003 56.0085 98.253 56.049 97.9964 56.2024C96.1364 57.2848 94.4367 58.1281 92.8973 58.7324C92.1735 59.0121 92.0544 58.8542 92.54 58.2589L102.298 46.2716C102.321 46.2378 102.331 46.1973 102.327 46.1571C102.322 46.1169 102.304 46.0793 102.275 46.0508C102.246 46.0222 102.208 46.0043 102.167 46.0002C102.126 45.996 102.085 46.0059 102.051 46.028L101.801 46.2326C92.8696 53.5479 83.2902 61.3937 77.394 71.1121C72.9776 78.4091 69.4866 86.1031 66.9211 94.1938C66.9005 94.2667 66.8547 94.3303 66.7915 94.3735C66.7284 94.4167 66.6519 94.4368 66.5753 94.4304C66.4987 94.424 66.4268 94.3914 66.3719 94.3383C66.3171 94.2853 66.2829 94.215 66.2751 94.1397C65.9612 91.9605 65.5584 89.5646 65.135 87.0466L65.1349 87.0458C63.4266 76.8855 61.3841 64.737 63.4988 56.8112C65.762 48.2965 71.5024 42.9072 80.7201 40.6432C91.2206 38.059 97.7902 32.6336 99.6319 21.661C100.704 15.2885 99.0272 10.3096 91.7291 9.91725C80.7751 9.33547 71.9789 20.5651 69.1888 30.3065C67.2647 37.0443 66.8203 36.8955 67.8557 29.86L69.6699 17.548C69.6752 17.4882 69.6591 17.4284 69.6244 17.3791C69.5896 17.3297 69.5384 17.2939 69.4796 17.2778C69.4209 17.2618 69.3582 17.2664 69.3026 17.2911C69.247 17.3157 69.2019 17.3587 69.1751 17.4127L62.2756 32.566C62.261 32.618 62.226 32.6622 62.1783 32.6889C62.1306 32.7155 62.0742 32.7224 62.0213 32.708C61.9685 32.6937 61.9236 32.6593 61.8965 32.6123C61.8694 32.5654 61.8624 32.5098 61.877 32.4577L64.4884 16.4521C64.4925 16.3957 64.4767 16.3387 64.4438 16.2912C64.4109 16.2436 64.3631 16.2087 64.3087 16.1924C64.2544 16.1762 64.1971 16.1798 64.1469 16.2026C64.0968 16.2254 64.0571 16.2658 64.0348 16.3168L57.259 32.7825C57.2343 32.8438 57.1883 32.8932 57.1292 32.9218C57.0702 32.9503 57.0021 32.9562 56.9372 32.9381C56.8723 32.9201 56.815 32.8795 56.7757 32.8236C56.7364 32.7678 56.7177 32.7003 56.723 32.6336C57.8408 24.2723 59.0091 15.9921 60.2277 7.79308C60.2644 7.55857 60.2231 7.38268 60.104 7.26542C59.9024 7.06699 59.7696 7.10307 59.7054 7.37366L55.2524 24.2858C55.233 24.3435 55.1944 24.394 55.143 24.4289C55.0915 24.4639 55.0303 24.4812 54.9694 24.4781C54.9086 24.4749 54.8517 24.4515 54.8082 24.4116C54.7646 24.3717 54.7371 24.3178 54.7301 24.2587L51.7889 0.771163C51.7889 0.71375 51.7657 0.65869 51.7244 0.618093C51.6832 0.577496 51.6273 0.554688 51.5689 0.554688C51.5106 0.554688 51.4547 0.577496 51.4134 0.618093C51.3722 0.65869 51.349 0.71375 51.349 0.771163L48.1879 24.0423C48.1763 24.1129 48.1404 24.1775 48.0861 24.2251C48.0318 24.2727 47.9625 24.3005 47.8899 24.3036C47.8172 24.3068 47.7457 24.2852 47.6873 24.2426C47.629 24.1999 47.5873 24.1387 47.5694 24.0693C46.1584 18.3598 44.7794 12.6097 43.4325 6.81894C43.405 6.71973 43.3592 6.63855 43.295 6.57541C43.1301 6.43109 42.9743 6.39501 42.8277 6.46717C42.8204 6.46874 42.8134 6.47177 42.8073 6.47608C42.8012 6.48038 42.7961 6.48588 42.7922 6.49221C42.7884 6.49855 42.7859 6.5056 42.7849 6.51293C42.7839 6.52026 42.7844 6.52771 42.7865 6.53482L46.1675 32.7689C46.1876 32.8461 46.1757 32.9279 46.1344 32.9964C46.0932 33.0649 46.026 33.1145 45.9476 33.1342C45.8693 33.154 45.7861 33.1422 45.7165 33.1016C45.6469 33.0611 45.5966 32.9949 45.5765 32.9178L39.3092 16.7633C39.2817 16.7064 39.2348 16.6609 39.1768 16.6344C39.1187 16.6079 39.0531 16.6022 38.9912 16.6182C38.9294 16.6342 38.8751 16.671 38.8378 16.7222C38.8005 16.7734 38.7826 16.8357 38.787 16.8986L41.0272 32.4713C41.0317 32.5341 41.0137 32.5965 40.9764 32.6477C40.9391 32.6988 40.8849 32.7356 40.823 32.7516C40.7611 32.7677 40.6955 32.762 40.6374 32.7355C40.5794 32.709 40.5325 32.6634 40.505 32.6066L33.8254 17.1286C33.809 17.073 33.7708 17.026 33.7192 16.9981C33.6677 16.9702 33.607 16.9636 33.5505 16.9798C33.494 16.9959 33.4463 17.0335 33.418 17.0842C33.3896 17.135 33.3829 17.1947 33.3993 17.2503L35.4609 32.593C35.4846 32.7025 35.4632 32.8167 35.4013 32.9106C35.3394 33.0045 35.2422 33.0703 35.1311 33.0936C35.0199 33.117 34.9038 33.0959 34.8085 33.035C34.7131 32.9741 34.6462 32.8784 34.6225 32.7689C32.5059 25.3095 28.6851 19.0814 23.16 14.0844C14.8723 6.60247 -0.0812451 9.28135 3.93202 23.1899C6.18605 30.9695 10.6804 37.3014 18.5145 39.6691C19.4943 39.9628 20.4691 40.2246 21.4312 40.483C24.9899 41.4387 28.3735 42.3475 31.1865 44.648C39.859 51.7376 40.9998 59.9772 39.7078 71.3557C38.8465 78.8872 37.8936 86.4323 36.8491 93.9909C36.7758 94.5501 36.6292 94.5681 36.4092 94.045C35.9502 92.9594 35.4941 91.8684 35.0369 90.775C30.4574 79.821 25.7752 68.6216 17.0026 60.2072C11.9082 55.3094 6.62128 50.6146 1.14198 46.1227C1.04119 46.0326 0.949558 46.001 0.867094 46.028C0.802955 46.0551 0.757143 46.0912 0.729655 46.1363C0.702167 46.1904 0.761723 46.3077 0.908327 46.4881L10.0344 57.8124C10.5383 58.4348 10.4009 58.6287 9.62206 58.3942C8.00943 57.8891 6.47925 57.1901 5.03155 56.2971C4.7475 56.1257 4.50011 56.0941 4.28937 56.2024C3.987 56.3647 3.97325 56.5496 4.24813 56.7571L13.2917 63.7655C13.9973 64.3157 13.9056 64.5186 13.0168 64.3743C10.3872 63.9504 7.87657 63.1206 5.4851 61.8849C5.39347 61.8398 5.26978 61.8488 5.11401 61.9119C4.92159 62.0111 4.91243 62.1194 5.08652 62.2366ZM9.38724 12.9883L14.9673 17.4667C15.0197 17.5074 15.0569 17.5641 15.0731 17.6279C15.0893 17.6916 15.0836 17.7588 15.057 17.8191C15.0303 17.8793 14.9841 17.9292 14.9256 17.9609C14.8672 17.9926 14.7997 18.0043 14.7337 17.9943L11.6825 17.5478C10.6563 17.3945 10.5601 17.62 11.3939 18.2243L14.2114 20.2808C14.6237 20.5785 14.6558 20.9167 14.3076 21.2956C6.07491 30.2793 18.3346 36.6383 26.0588 36.1241C26.2883 36.108 26.5111 36.041 26.7104 35.9282C26.9096 35.8154 27.08 35.6597 27.2086 35.4731C27.3372 35.2865 27.4205 35.0739 27.4523 34.8514C27.4841 34.629 27.4634 34.4025 27.392 34.1894C24.3958 25.0839 20.2176 15.3425 9.97823 11.933C9.8391 11.8815 9.68578 11.881 9.54633 11.9317C9.40688 11.9824 9.29063 12.0808 9.21887 12.2089C9.14711 12.3371 9.12463 12.4864 9.15555 12.6295C9.18646 12.7726 9.26871 12.9 9.38724 12.9883ZM88.2914 18.1978L90.9989 17.6025C91.123 17.577 91.2522 17.5945 91.3647 17.6521C91.4772 17.7096 91.566 17.8037 91.6161 17.9183C91.6663 18.0329 91.6746 18.161 91.6398 18.281C91.6049 18.401 91.5291 18.5054 91.425 18.5766L89.0748 20.119C88.5433 20.4708 88.4929 20.8812 88.9236 21.3502C97.28 30.6451 84.8279 36.0164 77.3511 36.03C76.0042 36.039 75.514 35.4031 75.8805 34.1223C78.4506 25.3009 83.0961 15.0995 93.143 11.9471C93.2857 11.9036 93.4393 11.9101 93.5776 11.9655C93.716 12.0209 93.8305 12.1218 93.9018 12.251C93.9731 12.3802 93.9967 12.5297 93.9686 12.6741C93.9406 12.8185 93.8625 12.9489 93.7477 13.043L88.0027 17.616C87.2697 18.2113 87.3659 18.4053 88.2914 18.1978ZM61.4081 91.3528C61.3073 90.5501 60.8996 89.9502 60.1849 89.5534C54.2108 86.18 48.3009 86.2747 42.4551 89.8375C42.245 89.964 42.0667 90.1356 41.9335 90.3394C41.8002 90.5432 41.7154 90.774 41.6854 91.0146C39.5688 107.196 63.2911 106.723 61.4081 91.3528Z" fill="black"/>
</g>
<path d="M141.433 38.9145C143.981 38.9145 146.251 39.5116 148.241 40.706C150.232 41.8605 151.784 43.4729 152.899 45.5431C154.014 47.5735 154.571 49.8627 154.571 52.4106V53.1869C154.571 55.7349 154.014 58.0439 152.899 60.1141C151.784 62.1843 150.232 63.8166 148.241 65.0109C146.251 66.1655 143.981 66.7428 141.433 66.7428H131.58V80H118.382V38.9145H141.433ZM131.58 57.1283H137.014C138.408 57.1283 139.443 56.77 140.12 56.0533C140.836 55.3367 141.194 54.3614 141.194 53.1272V52.6495C141.194 51.3755 140.836 50.4001 140.12 49.7233C139.443 49.0067 138.408 48.6484 137.014 48.6484H131.58V57.1283ZM179.215 38.1979C186.302 38.1979 191.776 40.0093 195.638 43.6321C199.499 47.255 201.43 52.53 201.43 59.4572C201.43 66.3844 199.499 71.6595 195.638 75.2823C191.776 78.9052 186.302 80.7166 179.215 80.7166C172.129 80.7166 166.655 78.9251 162.793 75.342C158.971 71.7192 157.06 66.4243 157.06 59.4572C157.06 52.4902 158.971 47.2152 162.793 43.6321C166.655 40.0093 172.129 38.1979 179.215 38.1979ZM179.215 48.0512C176.389 48.0512 174.239 48.9072 172.766 50.6191C171.293 52.331 170.556 54.64 170.556 57.5463V61.3682C170.556 64.2744 171.293 66.5835 172.766 68.2954C174.239 70.0073 176.389 70.8632 179.215 70.8632C182.042 70.8632 184.192 70.0073 185.665 68.2954C187.178 66.5835 187.934 64.2744 187.934 61.3682V57.5463C187.934 54.64 187.178 52.331 185.665 50.6191C184.192 48.9072 182.042 48.0512 179.215 48.0512ZM223.108 38.1979C228.363 38.1979 232.683 39.2728 236.067 41.4226C239.451 43.5326 241.182 46.6777 241.262 50.8579V51.5745H228.901V51.3357C228.901 50.1413 228.463 49.146 227.587 48.3498C226.711 47.5536 225.377 47.1555 223.586 47.1555C221.834 47.1555 220.48 47.4142 219.525 47.9318C218.609 48.4493 218.151 49.0863 218.151 49.8427C218.151 50.9177 218.788 51.7139 220.062 52.2314C221.336 52.749 223.387 53.2864 226.213 53.8438C229.518 54.5206 232.225 55.2372 234.335 55.9936C236.485 56.7102 238.356 57.9046 239.948 59.5767C241.541 61.2488 242.357 63.518 242.397 66.3844C242.397 71.2415 240.744 74.8444 237.44 77.1933C234.176 79.5422 229.796 80.7166 224.302 80.7166C217.893 80.7166 212.896 79.6417 209.313 77.4919C205.77 75.342 203.998 71.54 203.998 66.0859H216.479C216.479 68.1561 217.017 69.5495 218.092 70.2661C219.167 70.9429 220.839 71.2813 223.108 71.2813C224.78 71.2813 226.154 71.1021 227.228 70.7438C228.343 70.3855 228.901 69.649 228.901 68.5343C228.901 67.539 228.283 66.8025 227.049 66.3247C225.855 65.8072 223.884 65.2697 221.137 64.7124C217.793 63.9958 215.026 63.2592 212.837 62.5028C210.647 61.7066 208.736 60.4127 207.104 58.6212C205.471 56.8297 204.655 54.4012 204.655 51.3357C204.655 46.837 206.387 43.5326 209.851 41.4226C213.354 39.2728 217.773 38.1979 223.108 38.1979ZM263.517 38.1979C268.773 38.1979 273.092 39.2728 276.476 41.4226C279.86 43.5326 281.592 46.6777 281.672 50.8579V51.5745H269.31V51.3357C269.31 50.1413 268.872 49.146 267.996 48.3498C267.12 47.5536 265.787 47.1555 263.995 47.1555C262.243 47.1555 260.89 47.4142 259.934 47.9318C259.019 48.4493 258.561 49.0863 258.561 49.8427C258.561 50.9177 259.198 51.7139 260.472 52.2314C261.746 52.749 263.796 53.2864 266.623 53.8438C269.927 54.5206 272.634 55.2372 274.744 55.9936C276.894 56.7102 278.765 57.9046 280.358 59.5767C281.95 61.2488 282.766 63.518 282.806 66.3844C282.806 71.2415 281.154 74.8444 277.85 77.1933C274.585 79.5422 270.206 80.7166 264.712 80.7166C258.302 80.7166 253.306 79.6417 249.723 77.4919C246.18 75.342 244.408 71.54 244.408 66.0859H256.889C256.889 68.1561 257.426 69.5495 258.501 70.2661C259.576 70.9429 261.248 71.2813 263.517 71.2813C265.19 71.2813 266.563 71.1021 267.638 70.7438C268.753 70.3855 269.31 69.649 269.31 68.5343C269.31 67.539 268.693 66.8025 267.459 66.3247C266.264 65.8072 264.294 65.2697 261.547 64.7124C258.203 63.9958 255.436 63.2592 253.246 62.5028C251.056 61.7066 249.145 60.4127 247.513 58.6212C245.881 56.8297 245.065 54.4012 245.065 51.3357C245.065 46.837 246.797 43.5326 250.26 41.4226C253.764 39.2728 258.183 38.1979 263.517 38.1979ZM327.575 63.4583C327.575 69.0717 325.803 73.3515 322.26 76.2975C318.717 79.2436 313.681 80.7166 307.152 80.7166C300.623 80.7166 295.567 79.2436 291.983 76.2975C288.44 73.3515 286.669 69.0717 286.669 63.4583V38.9145H299.866V63.2791C299.866 65.5882 300.483 67.4395 301.717 68.8329C302.952 70.1865 304.743 70.8632 307.092 70.8632C309.441 70.8632 311.232 70.1665 312.467 68.7731C313.741 67.3797 314.377 65.5484 314.377 63.2791V38.9145H327.575V63.4583ZM369.019 80V65.1901C369.019 63.3588 369.079 61.4876 369.198 59.5767C369.358 57.6259 369.517 55.9936 369.676 54.6799C369.835 53.3661 369.935 52.53 369.975 52.1717H369.736L362.152 80H351.821L344.177 52.2314H343.938C343.978 52.5897 344.077 53.4258 344.237 54.7396C344.436 56.0135 344.615 57.6259 344.774 59.5767C344.933 61.4876 345.013 63.3588 345.013 65.1901V80H332.89V38.9145H351.522L357.733 62.6223H357.972L364.123 38.9145H382.097V80H369.019ZM404.631 38.9145H417.829V69.4897H438.909V80H404.631V38.9145ZM469.305 80L467.573 74.2074H453.181L451.449 80H437.953L452.942 38.9145H468.29L483.279 80H469.305ZM455.928 65.0109H464.826L460.526 50.3802H460.287L455.928 65.0109ZM512.918 38.9145C514.988 38.9145 516.879 39.3524 518.591 40.2283C520.342 41.0643 521.716 42.2586 522.711 43.8113C523.746 45.3639 524.264 47.0957 524.264 49.0067C524.264 54.0628 521.975 57.2477 517.396 58.5615V58.8003C522.612 59.9947 525.219 63.4185 525.219 69.0717C525.219 71.2216 524.682 73.1325 523.607 74.8046C522.572 76.4369 521.139 77.7108 519.307 78.6265C517.476 79.5422 515.466 80 513.276 80H485.567V38.9145H512.918ZM498.765 54.9187H507.842C508.717 54.9187 509.434 54.6201 509.991 54.023C510.589 53.386 510.887 52.6096 510.887 51.694V51.0968C510.887 50.221 510.589 49.4844 509.991 48.8873C509.394 48.2503 508.678 47.9318 507.842 47.9318H498.765V54.9187ZM498.765 70.4452H508.797C509.673 70.4452 510.39 70.1466 510.947 69.5495C511.544 68.9125 511.843 68.1362 511.843 67.2205V66.6233C511.843 65.7077 511.544 64.9512 510.947 64.3541C510.39 63.7171 509.673 63.3986 508.797 63.3986H498.765V70.4452ZM546.617 38.1979C551.872 38.1979 556.192 39.2728 559.576 41.4226C562.96 43.5326 564.692 46.6777 564.771 50.8579V51.5745H552.41V51.3357C552.41 50.1413 551.972 49.146 551.096 48.3498C550.22 47.5536 548.887 47.1555 547.095 47.1555C545.343 47.1555 543.99 47.4142 543.034 47.9318C542.119 48.4493 541.661 49.0863 541.661 49.8427C541.661 50.9177 542.298 51.7139 543.572 52.2314C544.846 52.749 546.896 53.2864 549.723 53.8438C553.027 54.5206 555.734 55.2372 557.844 55.9936C559.994 56.7102 561.865 57.9046 563.458 59.5767C565.05 61.2488 565.866 63.518 565.906 66.3844C565.906 71.2415 564.254 74.8444 560.949 77.1933C557.685 79.5422 553.306 80.7166 547.812 80.7166C541.402 80.7166 536.406 79.6417 532.823 77.4919C529.279 75.342 527.508 71.54 527.508 66.0859H539.989C539.989 68.1561 540.526 69.5495 541.601 70.2661C542.676 70.9429 544.348 71.2813 546.617 71.2813C548.289 71.2813 549.663 71.1021 550.738 70.7438C551.852 70.3855 552.41 69.649 552.41 68.5343C552.41 67.539 551.793 66.8025 550.559 66.3247C549.364 65.8072 547.394 65.2697 544.647 64.7124C541.302 63.9958 538.536 63.2592 536.346 62.5028C534.156 61.7066 532.245 60.4127 530.613 58.6212C528.981 56.8297 528.165 54.4012 528.165 51.3357C528.165 46.837 529.896 43.5326 533.36 41.4226C536.863 39.2728 541.283 38.1979 546.617 38.1979Z" fill="black"/>
<defs>
<clipPath id="clip0_230_754">
<rect width="101.706" height="108.238" fill="white"/>
</clipPath>
</defs>
</svg>
