<svg xmlns="http://www.w3.org/2000/svg" fill="none" viewBox="0 0 444 443" style="max-height: 500px" width="444" height="443">
  <circle fill="white" r="220" cy="220" cx="220"/>
  <g transform="translate(44 34)">
    <path fill="#C6A85B" d="M66 275L77 220H275L288.2 275L263.439 278.994C234.526 283.657 205.286 286 176 286C146.717 286 117.484 283.581 88.5987 278.766L66 275Z"/>
    <path fill="black" d="M272.8 220V199.5C272.8 174.122 275.383 148.809 280.51 123.953L284.9 102.667L297 55.7333C297 49.2532 291.747 44 285.267 44H272.8H236.5H176H115.5H79.2H66.7333C60.2532 44 55 49.2532 55 55.7333L67.1 102.667L71.4903 123.953C76.6168 148.809 79.2 174.122 79.2 199.5V220H272.8Z"/>
    <path fill="black" d="M253.854 272.629L242 275C198.301 282.283 153.699 282.283 110 275L98.1455 272.629C69.452 266.89 40.2618 264 11 264C3.95258 264 0.96206 272.972 6.6 277.2L30.049 294.787C31.994 296.245 34.2276 297.273 36.6009 297.8L98.6071 311.579C120.802 316.512 143.471 319 166.208 319H176H185.792C208.529 319 231.198 316.512 253.393 311.579L315.399 297.8C317.772 297.273 320.006 296.245 321.951 294.787L345.4 277.2C351.038 272.972 348.047 264 341 264C311.738 264 282.548 266.89 253.854 272.629Z"/>
    <path fill="#383838" d="M272.8 220V199.5C272.8 174.122 275.383 148.809 280.51 123.953L284.9 102.667L297 55.7333C297 49.2532 291.747 44 285.267 44H272.8H236.5L222.387 104.215C213.492 142.167 209 181.019 209 220H272.8Z"/>
    <path fill="#E7CE8F" d="M286 264L230.436 282.521C223.524 284.825 216.286 286 209 286V220H275L286 264Z"/>
    <path fill="#383838" d="M253.854 272.629L242 275L209 279.4V297L220 317.02L269.5 307.01L315.228 297.763C317.711 297.261 320.052 296.211 322.079 294.691L345.4 277.2C351.038 272.972 348.047 264 341 264C311.738 264 282.548 266.89 253.854 272.629Z"/>
  </g>
</svg>