<svg width="200" height="200" viewBox="0 0 200 200" fill="none" xmlns="http://www.w3.org/2000/svg">
<path d="M37.5 150L43.75 125H156.25L162.5 150L148.717 154.594C133.008 159.831 116.558 162.5 100 162.5C83.4416 162.5 66.9915 159.831 51.2829 154.594L37.5 150Z" fill="#C6A85B"/>
<path d="M155 125V113.353C155 98.9327 156.468 84.5504 159.381 70.4278L161.875 58.3333L168.75 31.6667C168.75 27.9848 165.765 25 162.083 25H155H134.375H100H65.625H45H37.9167C34.2348 25 31.25 27.9848 31.25 31.6667L38.125 58.3333L40.6195 70.4279C43.5323 84.5504 45 98.9327 45 113.353V125H155Z" fill="black"/>
<path d="M144.235 154.903L137.5 156.25C112.671 160.388 87.3288 160.388 62.5 156.25L55.7645 154.903C39.4614 151.642 22.876 150 6.25 150C2.24578 150 0.546625 155.097 3.75 157.5L17.0733 167.492C18.1784 168.321 19.4475 168.905 20.796 169.205L56.0267 177.034C68.6377 179.836 81.5175 181.25 94.4361 181.25H100H105.564C118.482 181.25 131.362 179.836 143.973 177.034L179.204 169.205C180.553 168.905 181.822 168.321 182.927 167.492L196.25 157.5C199.453 155.097 197.754 150 193.75 150C177.124 150 160.539 151.642 144.235 154.903Z" fill="black"/>
<path d="M155 125V113.353C155 98.9327 156.468 84.5504 159.381 70.4278L161.875 58.3333L168.75 31.6667C168.75 27.9848 165.765 25 162.083 25H155H134.375L126.356 59.2128C121.302 80.7769 118.75 102.852 118.75 125H155Z" fill="#383838"/>
<path d="M162.5 150L130.929 160.524C127.002 161.833 122.89 162.5 118.75 162.5V125H156.25L162.5 150Z" fill="#E7CE8F"/>
<path d="M144.235 154.903L137.5 156.25L118.75 158.75V168.75L125 180.125L153.125 174.438L179.107 169.183C180.518 168.898 181.848 168.302 182.999 167.438L196.25 157.5C199.453 155.097 197.754 150 193.75 150C177.124 150 160.539 151.642 144.235 154.903Z" fill="#383838"/>
</svg>
