<svg width="155" height="38" viewBox="0 0 155 38" fill="none" xmlns="http://www.w3.org/2000/svg">
<path d="M5.4375 24.3438L6.34375 20.7188H22.6562L23.5625 24.3438L21.564 25.0099C19.2862 25.7692 16.901 26.1562 14.5 26.1562C12.099 26.1562 9.71378 25.7692 7.43602 25.0099L5.4375 24.3438Z" fill="#C6A85B"/>
<path d="M22.475 20.7188V19.0299C22.475 16.939 22.6878 14.8536 23.1102 12.8058L23.4719 11.0521L24.4688 7.18542C24.4688 6.65154 24.036 6.21875 23.5021 6.21875H22.475H19.4844H14.5H9.51562H6.525H5.49792C4.96404 6.21875 4.53125 6.65154 4.53125 7.18542L5.52813 11.0521L5.88983 12.8058C6.31218 14.8536 6.525 16.939 6.525 19.0299V20.7188H22.475Z" fill="black"/>
<path d="M20.9141 25.0547L19.9375 25.25C16.3373 25.85 12.6627 25.85 9.0625 25.25L8.08585 25.0547C5.7219 24.5819 3.31702 24.3438 0.90625 24.3438C0.325638 24.3438 0.0792606 25.0829 0.54375 25.4312L2.47563 26.8802C2.63587 27.0003 2.81989 27.085 3.01542 27.1284L8.12388 28.2636C9.95247 28.67 11.82 28.875 13.6932 28.875H14.5H15.3068C17.18 28.875 19.0475 28.67 20.8761 28.2636L25.9846 27.1284C26.1801 27.085 26.3641 27.0003 26.5244 26.8802L28.4562 25.4312C28.9207 25.0829 28.6744 24.3438 28.0938 24.3438C25.683 24.3438 23.2781 24.5819 20.9141 25.0547Z" fill="black"/>
<path d="M22.475 20.7188V19.0299C22.475 16.939 22.6878 14.8536 23.1102 12.8058L23.4719 11.0521L24.4688 7.18542C24.4688 6.65154 24.036 6.21875 23.5021 6.21875H22.475H19.4844L18.3217 11.1796C17.5888 14.3064 17.2188 17.5072 17.2188 20.7188H22.475Z" fill="#383838"/>
<path d="M23.5625 24.3438L18.9847 25.8697C18.4153 26.0595 17.819 26.1562 17.2188 26.1562V20.7188H22.6562L23.5625 24.3438Z" fill="#E7CE8F"/>
<path d="M20.9141 25.0547L19.9375 25.25L17.2188 25.6125V27.0625L18.125 28.7119L22.2031 27.8872L25.9705 27.1253C26.1751 27.084 26.3679 26.9975 26.5349 26.8723L28.4563 25.4312C28.9207 25.0829 28.6744 24.3438 28.0938 24.3438C25.683 24.3438 23.2781 24.5819 20.9141 25.0547Z" fill="#383838"/>
<path d="M42.888 29.32C41.1813 29.32 39.8907 28.84 39.016 27.88C38.1413 26.8987 37.704 25.5013 37.704 23.688V22.408H41.032V23.944C41.032 25.3947 41.64 26.12 42.856 26.12C43.4533 26.12 43.9013 25.9493 44.2 25.608C44.52 25.2453 44.68 24.6693 44.68 23.88C44.68 22.9413 44.4667 22.12 44.04 21.416C43.6133 20.6907 42.824 19.8267 41.672 18.824C40.2213 17.544 39.208 16.392 38.632 15.368C38.056 14.3227 37.768 13.1493 37.768 11.848C37.768 10.0773 38.216 8.712 39.112 7.752C40.008 6.77067 41.3093 6.28 43.016 6.28C44.7013 6.28 45.9707 6.77067 46.824 7.752C47.6987 8.712 48.136 10.0987 48.136 11.912V12.84H44.808V11.688C44.808 10.92 44.6587 10.3653 44.36 10.024C44.0613 9.66133 43.624 9.48 43.048 9.48C41.8747 9.48 41.288 10.1947 41.288 11.624C41.288 12.4347 41.5013 13.192 41.928 13.896C42.376 14.6 43.176 15.4533 44.328 16.456C45.8 17.736 46.8133 18.8987 47.368 19.944C47.9227 20.9893 48.2 22.216 48.2 23.624C48.2 25.4587 47.7413 26.8667 46.824 27.848C45.928 28.8293 44.616 29.32 42.888 29.32ZM50.2183 6.6H53.7383V29H50.2183V6.6ZM56.3745 6.6H61.5905C63.4038 6.6 64.7265 7.02667 65.5585 7.88C66.3905 8.712 66.8065 10.0027 66.8065 11.752V13.128C66.8065 15.4533 66.0385 16.9253 64.5025 17.544V17.608C65.3558 17.864 65.9532 18.3867 66.2945 19.176C66.6572 19.9653 66.8385 21.0213 66.8385 22.344V26.28C66.8385 26.92 66.8598 27.4427 66.9025 27.848C66.9452 28.232 67.0518 28.616 67.2225 29H63.6385C63.5105 28.6373 63.4252 28.296 63.3825 27.976C63.3398 27.656 63.3185 27.08 63.3185 26.248V22.152C63.3185 21.128 63.1478 20.4133 62.8065 20.008C62.4865 19.6027 61.9212 19.4 61.1105 19.4H59.8945V29H56.3745V6.6ZM61.1745 16.2C61.8785 16.2 62.4012 16.0187 62.7425 15.656C63.1052 15.2933 63.2865 14.6853 63.2865 13.832V12.104C63.2865 11.2933 63.1372 10.7067 62.8385 10.344C62.5612 9.98133 62.1132 9.8 61.4945 9.8H59.8945V16.2H61.1745ZM69.437 25.608H72.829V29H69.437V25.608ZM75.8765 9.8H72.1965V6.6H83.0765V9.8H79.3965V29H75.8765V9.8ZM84.7808 6.6H89.9968C91.8101 6.6 93.1328 7.02667 93.9648 7.88C94.7968 8.712 95.2128 10.0027 95.2128 11.752V13.128C95.2128 15.4533 94.4448 16.9253 92.9088 17.544V17.608C93.7621 17.864 94.3594 18.3867 94.7008 19.176C95.0634 19.9653 95.2448 21.0213 95.2448 22.344V26.28C95.2448 26.92 95.2661 27.4427 95.3088 27.848C95.3514 28.232 95.4581 28.616 95.6288 29H92.0448C91.9168 28.6373 91.8314 28.296 91.7888 27.976C91.7461 27.656 91.7248 27.08 91.7248 26.248V22.152C91.7248 21.128 91.5541 20.4133 91.2128 20.008C90.8928 19.6027 90.3274 19.4 89.5168 19.4H88.3008V29H84.7808V6.6ZM89.5808 16.2C90.2848 16.2 90.8074 16.0187 91.1488 15.656C91.5114 15.2933 91.6927 14.6853 91.6927 13.832V12.104C91.6927 11.2933 91.5434 10.7067 91.2448 10.344C90.9674 9.98133 90.5194 9.8 89.9008 9.8H88.3008V16.2H89.5808ZM100.407 6.6H105.175L108.823 29H105.303L104.663 24.552V24.616H100.663L100.023 29H96.759L100.407 6.6ZM104.247 21.576L102.679 10.504H102.615L101.079 21.576H104.247ZM110.531 6.6H115.907C117.656 6.6 118.968 7.06933 119.843 8.008C120.717 8.94667 121.155 10.3227 121.155 12.136V23.464C121.155 25.2773 120.717 26.6533 119.843 27.592C118.968 28.5307 117.656 29 115.907 29H110.531V6.6ZM115.843 25.8C116.419 25.8 116.856 25.6293 117.155 25.288C117.475 24.9467 117.635 24.392 117.635 23.624V11.976C117.635 11.208 117.475 10.6533 117.155 10.312C116.856 9.97067 116.419 9.8 115.843 9.8H114.051V25.8H115.843ZM123.531 6.6H127.051V29H123.531V6.6ZM129.687 6.6H134.103L137.527 20.008H137.591V6.6H140.727V29H137.111L132.887 12.648H132.823V29H129.687V6.6ZM148.335 29.32C146.629 29.32 145.327 28.84 144.431 27.88C143.535 26.8987 143.087 25.5013 143.087 23.688V11.912C143.087 10.0987 143.535 8.712 144.431 7.752C145.327 6.77067 146.629 6.28 148.335 6.28C150.042 6.28 151.343 6.77067 152.239 7.752C153.135 8.712 153.583 10.0987 153.583 11.912V13.832H150.255V11.688C150.255 10.216 149.647 9.48 148.431 9.48C147.215 9.48 146.607 10.216 146.607 11.688V23.944C146.607 25.3947 147.215 26.12 148.431 26.12C149.647 26.12 150.255 25.3947 150.255 23.944V19.56H148.495V16.36H153.583V23.688C153.583 25.5013 153.135 26.8987 152.239 27.88C151.343 28.84 150.042 29.32 148.335 29.32Z" fill="#363636"/>
</svg>
