<svg width="801" height="132" viewBox="0 0 801 132" fill="none" xmlns="http://www.w3.org/2000/svg">
<g clip-path="url(#clip0_769_1323)">
<path d="M123.681 102.095C123.596 102.159 123.511 102.228 123.421 102.289C123.336 102.354 123.247 102.415 123.158 102.48C122.992 102.597 122.821 102.711 122.647 102.82C122.627 102.832 122.606 102.845 122.586 102.861C122.444 102.95 122.302 103.039 122.157 103.124C121.942 103.254 121.731 103.376 121.512 103.497C120.028 104.324 118.467 104.989 116.874 105.577C115.37 106.128 113.846 106.611 112.309 107.04C110.108 107.657 107.878 108.167 105.628 108.613C103.443 109.051 101.25 109.42 99.0486 109.74C96.8473 110.061 94.6379 110.328 92.4244 110.559C91.6987 110.636 90.973 110.705 90.2474 110.774C88.792 110.908 87.3366 111.021 85.8812 111.119C85.1515 111.167 84.4217 111.212 83.6961 111.253C82.0623 111.346 80.4285 111.415 78.7948 111.467C78.4988 111.476 78.2029 111.488 77.9029 111.496C77.6313 111.504 77.3597 111.512 77.084 111.52C77.7529 110.693 78.4218 109.87 79.034 108.999C79.1232 108.889 79.2123 108.78 79.2975 108.666C80.6799 106.809 82.0015 104.912 83.2664 102.978C83.3961 102.97 83.5258 102.966 83.6515 102.958C84.4542 102.913 85.2569 102.861 86.0596 102.808C86.6677 102.767 87.2758 102.723 87.8839 102.674C92.1365 102.346 96.373 101.876 100.589 101.215C101.818 101.024 103.038 100.813 104.254 100.59C107.1 100.063 109.921 99.431 112.703 98.6364C113.315 98.4621 113.923 98.2797 114.531 98.0892C114.835 97.9919 115.139 97.8946 115.443 97.7932C115.901 97.8743 116.319 98.0648 116.748 98.2229C117.125 98.3608 117.502 98.5067 117.88 98.6567C118.946 99.0783 119.992 99.5445 121.005 100.084C121.406 100.295 121.8 100.518 122.189 100.753C122.704 101.065 123.206 101.393 123.677 101.77C123.815 101.88 123.855 101.924 123.802 101.989C123.778 102.022 123.738 102.054 123.673 102.103L123.681 102.095Z" fill="#F1ECE2"/>
<path d="M84.2677 121.679C84.1826 121.732 84.0893 121.732 84.0001 121.7C84.0244 121.683 84.0447 121.675 84.065 121.667C84.1015 121.655 84.1339 121.655 84.1704 121.655C84.2028 121.655 84.2393 121.663 84.2717 121.679H84.2677Z" fill="#5E93FF"/>
<path d="M83.9069 121.7C83.7975 121.748 83.688 121.752 83.5704 121.72C83.6799 121.655 83.7934 121.663 83.9069 121.7Z" fill="#5E93FF"/>
<path d="M83.4771 121.72C83.3676 121.769 83.2582 121.773 83.1406 121.74C83.2501 121.671 83.3595 121.679 83.4771 121.72Z" fill="#5E93FF"/>
<path d="M83.0474 121.74C82.9379 121.793 82.8285 121.793 82.715 121.756C82.715 121.756 82.7231 121.756 82.7271 121.752C82.8325 121.7 82.942 121.7 83.0474 121.74Z" fill="#5E93FF"/>
<path d="M82.3907 121.736C82.4637 121.72 82.5407 121.728 82.6177 121.757C82.5083 121.809 82.3948 121.809 82.2812 121.777C82.3177 121.757 82.3542 121.744 82.3907 121.736Z" fill="#5E93FF"/>
<path d="M82.0137 121.744C82.0705 121.744 82.1272 121.756 82.188 121.773C82.0786 121.821 81.9691 121.825 81.8556 121.789C81.9083 121.756 81.961 121.744 82.0137 121.74V121.744Z" fill="#5E93FF"/>
<path d="M81.6772 121.773C81.7055 121.777 81.7299 121.785 81.7542 121.793C81.6488 121.842 81.5353 121.846 81.4218 121.813C81.4988 121.765 81.5799 121.757 81.6609 121.773C81.6609 121.773 81.665 121.773 81.669 121.773H81.6731H81.6772Z" fill="#5E93FF"/>
<path d="M81.3244 121.813C81.1947 121.87 81.0609 121.866 80.9271 121.829C81.0569 121.769 81.1906 121.773 81.3244 121.813Z" fill="#5E93FF"/>
<path d="M80.8299 121.83C80.7204 121.886 80.6109 121.878 80.4974 121.846C80.6028 121.785 80.7164 121.785 80.8299 121.83Z" fill="#5E93FF"/>
<path d="M109.273 95.9526C109.325 95.9607 109.386 95.9607 109.443 95.9688C109.516 95.9769 109.589 95.9972 109.646 96.058C109.496 96.0458 109.35 96.0134 109.22 95.9404C109.228 95.9404 109.24 95.9404 109.248 95.9445C109.257 95.9445 109.265 95.9445 109.277 95.9485L109.273 95.9526Z" fill="#5E93FF"/>
<path d="M47.5302 131.709C47.5424 131.733 47.5546 131.758 47.5627 131.778L45.3005 131.786C45.3127 131.762 45.3249 131.737 45.337 131.713C45.5195 131.713 45.7019 131.713 45.8843 131.713C46.4316 131.713 46.9789 131.713 47.5262 131.713L47.5302 131.709Z" fill="#3180F4"/>
<path d="M115.455 97.789C115.151 97.8904 114.851 97.9877 114.543 98.085C113.935 98.2755 113.327 98.458 112.715 98.6323C109.93 99.4269 107.112 100.059 104.266 100.586C103.05 100.813 101.826 101.02 100.601 101.211C96.3852 101.871 92.1487 102.342 87.8961 102.67C87.288 102.719 86.6799 102.763 86.0718 102.804C85.2691 102.857 84.4664 102.909 83.6637 102.954C83.534 102.962 83.4083 102.966 83.2786 102.974C84.1502 101.64 84.9975 100.29 85.8164 98.9201C87.0001 96.9417 88.1312 94.935 89.2055 92.8999C91.2569 93.0783 93.3041 93.285 95.3514 93.5364C95.5014 93.5526 95.6514 93.585 95.8055 93.6094C96.7217 93.6742 97.6298 93.812 98.5338 93.9458C99.6973 94.1161 100.861 94.3026 102.02 94.4972C103.585 94.7607 105.15 95.0526 106.703 95.3891C107.542 95.5715 108.377 95.758 109.216 95.9404C109.35 96.0134 109.492 96.0418 109.642 96.058C111.434 96.5161 113.221 96.9985 114.977 97.5782C115.139 97.6309 115.326 97.6471 115.451 97.785L115.455 97.789Z" fill="#FDBF41"/>
<path d="M55.845 110.989C56.5666 111.046 57.2922 111.103 58.0139 111.151C57.2882 111.103 56.5666 111.046 55.845 110.989Z" fill="#F1ECE2"/>
<path d="M32.7006 127.144C32.6438 127.144 32.5952 127.128 32.5587 127.083C32.5587 127.083 32.5668 127.083 32.5709 127.083C32.579 127.083 32.5871 127.083 32.5952 127.083C32.6033 127.083 32.6074 127.088 32.6155 127.088C32.6195 127.088 32.6276 127.088 32.6317 127.092C32.6398 127.092 32.6479 127.1 32.656 127.104C32.656 127.104 32.6641 127.104 32.6682 127.108C32.6763 127.116 32.6844 127.124 32.6925 127.132C32.6925 127.132 32.6925 127.132 32.6966 127.132L32.7006 127.144Z" fill="#404A5A"/>
<path d="M32.5586 127.083C32.5019 127.083 32.4492 127.071 32.4167 127.019C32.4167 127.019 32.4451 127.019 32.4573 127.019H32.4613C32.4978 127.027 32.5303 127.043 32.5546 127.079C32.5546 127.079 32.5546 127.079 32.5546 127.083H32.5586Z" fill="#404A5A"/>
<path d="M32.4169 127.019C32.3561 127.019 32.2993 127.014 32.275 126.95C32.275 126.95 32.275 126.95 32.275 126.946H32.2791C32.3358 126.946 32.3885 126.958 32.4169 127.014V127.019Z" fill="#404A5A"/>
<path d="M32.2749 126.942V126.95C32.2182 126.95 32.1574 126.958 32.1371 126.881V126.873C32.1979 126.864 32.2506 126.877 32.279 126.942H32.2749Z" fill="#404A5A"/>
<path d="M31.7196 126.589C31.7601 126.617 31.8087 126.638 31.8533 126.658C31.8858 126.674 31.9182 126.686 31.9506 126.702C32.0074 126.731 32.0601 126.767 32.0966 126.82C32.1087 126.836 32.1209 126.86 32.1331 126.885C31.9425 126.869 31.7763 126.792 31.6304 126.67L31.7196 126.589Z" fill="#404A5A"/>
<path d="M44.7207 120.48C44.5626 120.504 44.4045 120.528 44.2505 120.552C43.6424 120.634 43.0343 120.682 42.4221 120.698C42.2194 120.702 42.0127 120.707 41.81 120.702C41.6032 120.702 41.4005 120.694 41.1937 120.686C41.1045 120.682 41.0193 120.67 40.9302 120.662C40.845 120.654 40.7558 120.642 40.6666 120.634C40.5531 120.625 40.468 120.577 40.3829 120.504C40.1396 120.285 39.9085 120.058 39.6815 119.823C41.36 120.066 43.0383 120.285 44.7207 120.484V120.48Z" fill="#F1ECE2"/>
<path d="M71.1287 92.1379C69.9206 92.1379 68.7125 92.1542 67.5044 92.1744C65.4936 95.292 63.3247 98.3 60.9571 101.158C60.4585 101.758 59.9558 102.35 59.4409 102.934C58.1437 104.413 56.7896 105.841 55.3707 107.203C54.1261 108.395 52.841 109.534 51.4991 110.604C50.4532 111.443 49.3708 112.242 48.2478 112.984C46.1803 114.354 44.0114 115.534 41.6763 116.393C40.4926 116.827 39.2845 117.18 38.0358 117.386C37.9669 117.398 37.902 117.427 37.8331 117.447C37.8372 117.467 37.8453 117.492 37.8493 117.512C37.8534 117.524 37.8575 117.536 37.8656 117.548C37.9547 117.686 38.0439 117.82 38.1372 117.95C38.3237 118.217 38.5183 118.477 38.7169 118.728C39.0169 119.105 39.3372 119.47 39.6736 119.819C41.3519 120.062 43.0303 120.281 44.7127 120.48C45.1627 120.411 45.6086 120.321 46.0505 120.216C47.0762 119.973 48.0735 119.653 49.0505 119.276C49.537 119.085 50.0194 118.882 50.4937 118.663C50.968 118.444 51.4383 118.213 51.9045 117.966C52.1072 117.861 52.3059 117.751 52.5086 117.642C53.9032 116.876 55.241 116.016 56.522 115.092C57.8072 114.163 59.0396 113.166 60.2355 112.12C60.4058 111.97 60.5761 111.82 60.7463 111.666C60.872 111.553 60.9936 111.439 61.1233 111.322C61.8896 110.62 62.6436 109.899 63.3774 109.161C63.6612 108.873 63.9409 108.585 64.2206 108.289C65.1409 107.324 66.0368 106.339 66.9084 105.33C67.4314 104.726 67.9422 104.109 68.4449 103.489C68.5057 103.416 68.5665 103.339 68.6273 103.262C68.9719 102.832 69.3125 102.399 69.653 101.961C70.7192 100.582 71.7449 99.1757 72.734 97.7406C73.2692 96.9622 73.7921 96.1798 74.307 95.3893C74.5948 94.9433 74.8786 94.4974 75.1583 94.0514C75.5435 93.4393 75.9205 92.819 76.2935 92.1987C74.5705 92.1582 72.8516 92.1379 71.1287 92.1379Z" fill="#F1ECE2"/>
<path d="M25.1398 123.771C25.0831 123.783 25.0385 123.767 25.0182 123.706C25.079 123.694 25.1236 123.706 25.1398 123.771Z" fill="#C18B00"/>
<path d="M60.8882 92.3893C60.0247 92.4298 59.1612 92.4785 58.3017 92.5312C57.3571 93.869 56.3801 95.1865 55.3585 96.4717C54.3571 97.7365 53.3315 98.977 52.2531 100.181C51.641 100.862 51.0248 101.539 50.3923 102.204C49.9464 102.674 49.4923 103.141 49.0261 103.595C47.1734 105.407 45.2316 107.118 43.1437 108.662C42.7951 108.917 42.4465 109.169 42.0897 109.416C40.9181 110.231 39.706 110.985 38.4452 111.662C37.533 112.157 36.5925 112.594 35.6398 112.996C35.6479 113.04 35.6398 113.089 35.66 113.134C35.7938 113.503 35.9357 113.863 36.0898 114.224C36.2398 114.585 36.4019 114.938 36.5722 115.286C36.9127 115.984 37.2938 116.665 37.7073 117.33L37.7154 117.338C37.7438 117.378 37.7925 117.415 37.8289 117.451C37.8979 117.431 37.9627 117.403 38.0316 117.39C39.2762 117.184 40.4843 116.831 41.6721 116.397C44.0073 115.542 46.1761 114.358 48.2437 112.988C49.3667 112.246 50.4491 111.447 51.495 110.608C52.8369 109.534 54.122 108.395 55.3666 107.207C56.7896 105.845 58.1395 104.418 59.4368 102.938C59.9517 102.354 60.4544 101.762 60.953 101.162C63.3206 98.3041 65.4895 95.296 67.5003 92.1785C65.2949 92.219 63.0854 92.2839 60.8841 92.3933L60.8882 92.3893Z" fill="#FDBF41"/>
<path d="M104.489 59.1098C104.489 59.1098 104.461 59.1057 104.448 59.1057C104.461 59.1057 104.473 59.1057 104.489 59.1098Z" fill="#E7AA24"/>
<path d="M104.25 59.203C104.319 59.203 104.396 59.203 104.351 59.0935C104.384 59.0935 104.416 59.1016 104.453 59.1057C104.432 59.1057 104.416 59.1097 104.404 59.1178C104.376 59.1381 104.376 59.1827 104.384 59.2354C104.339 59.2354 104.295 59.2313 104.25 59.2273C104.226 59.2273 104.197 59.2232 104.173 59.2192C104.12 59.2151 104.063 59.207 104.011 59.203C103.889 59.1867 103.763 59.1624 103.646 59.134C103.853 59.1219 104.051 59.1949 104.254 59.207L104.25 59.203Z" fill="#E7AA24"/>
<path d="M41.3519 100.992C41.4411 101.008 41.5262 101.02 41.6113 101.036C39.9208 102.67 38.1451 104.203 36.2519 105.605C35.5627 106.116 34.8735 106.627 34.1276 107.061C33.9897 106.465 33.9289 105.857 33.86 105.249C33.6249 103.311 33.5357 101.365 33.5316 99.4189C34.0019 99.5325 34.4721 99.6419 34.9465 99.7514C36.3289 100.068 37.7154 100.347 39.1059 100.603C39.8559 100.741 40.6059 100.87 41.3559 100.996L41.3519 100.992Z" fill="#F1ECE2"/>
<path d="M49.091 93.3174C48.8924 93.3418 48.6897 93.358 48.487 93.3782C46.4924 95.9161 44.364 98.3363 42.0532 100.603C41.9073 100.748 41.7573 100.89 41.6114 101.032C41.6803 101.044 41.7492 101.057 41.8141 101.069C41.7451 101.057 41.6803 101.044 41.6114 101.036C39.9209 102.67 38.1452 104.202 36.252 105.605C35.5628 106.116 34.8736 106.627 34.1277 107.061C34.1358 107.142 34.1398 107.227 34.148 107.308C34.148 107.332 34.148 107.352 34.1561 107.377C34.1723 107.47 34.1926 107.563 34.2088 107.656C34.2209 107.734 34.2331 107.806 34.2493 107.884C34.2858 108.07 34.3223 108.261 34.3588 108.451C34.5736 109.521 34.829 110.579 35.1493 111.621C35.2952 112.088 35.4128 112.566 35.6479 113.004C36.6006 112.602 37.5412 112.165 38.4533 111.67C39.7141 110.989 40.9263 110.235 42.0978 109.424C42.4546 109.181 42.8032 108.929 43.1519 108.67C45.2397 107.129 47.1816 105.415 49.0343 103.602C49.5005 103.148 49.9505 102.682 50.4005 102.212C51.0329 101.547 51.6491 100.87 52.2612 100.189C53.3356 98.9849 54.3653 97.7444 55.3666 96.4796C56.3842 95.1904 57.3653 93.8769 58.3098 92.5391C55.2369 92.7255 52.168 92.985 49.1032 93.3255L49.091 93.3174Z" fill="#FF1100"/>
<path d="M41.814 101.069C41.7451 101.057 41.6802 101.044 41.6113 101.036C41.6802 101.049 41.7492 101.061 41.814 101.069Z" fill="#F1ECE2"/>
<path d="M41.6114 101.032C41.5263 101.02 41.4371 101.004 41.3519 100.988L41.6114 101.028V101.032Z" fill="#FF1100"/>
<path d="M39.1019 100.599C39.8519 100.736 40.6019 100.866 41.3519 100.992C40.6019 100.866 39.8479 100.736 39.1019 100.599Z" fill="#FF1100"/>
<path d="M47.1694 93.5688C47.6032 93.4756 48.0451 93.4269 48.487 93.3823C46.4924 95.9201 44.364 98.3404 42.0533 100.607C41.9073 100.753 41.7573 100.894 41.6114 101.036L41.3519 100.996C40.602 100.87 39.852 100.74 39.102 100.603C37.7115 100.347 36.3209 100.067 34.9426 99.7512C34.4723 99.6417 33.998 99.5323 33.5277 99.4187C33.5277 98.685 33.5358 97.9471 33.5561 97.2093C33.5682 96.7715 33.5885 96.3377 33.6128 95.9039C35.2142 95.5228 36.8277 95.1864 38.4452 94.8783C41.21 94.3553 43.9911 93.9296 46.7802 93.585C46.8248 93.581 46.8694 93.5729 46.914 93.5688C46.9667 93.5607 47.0194 93.5566 47.0721 93.5607C47.1046 93.5607 47.137 93.5688 47.1694 93.5769V93.5688Z" fill="#FDBF41"/>
<path d="M96.4865 58.1367C98.0999 58.3354 99.7175 58.53 101.331 58.7286C101.323 58.7448 101.311 58.761 101.295 58.7772C100.293 58.6556 99.2878 58.5381 98.2864 58.4083C97.9945 58.3719 97.7027 58.3475 97.4108 58.3151C97.1189 58.2827 96.827 58.2502 96.5391 58.1935C96.5229 58.1732 96.5067 58.157 96.4865 58.1408V58.1367Z" fill="#007FFF"/>
<path d="M88.5812 63.1516C88.642 62.9246 88.6987 62.6894 88.7596 62.4624C88.7028 62.6935 88.642 62.9246 88.5812 63.1516Z" fill="#F1ECE2"/>
<path d="M134.959 95.5798C134.959 93.3582 134.959 91.1406 134.959 88.919C134.817 88.2988 134.623 87.6947 134.278 87.1515C133.723 86.2758 133.062 85.4934 132.235 84.8529C131.371 84.184 130.488 83.5556 129.535 83.0205C128.225 82.2867 126.863 81.6664 125.497 81.0543C125.254 80.9448 125.002 80.8921 124.759 80.7948C121.67 79.5867 118.492 78.6786 115.273 77.8962C113.213 77.3935 111.138 76.9638 109.054 76.5746C106.715 76.1367 104.363 75.7597 102.008 75.4354C100.382 75.2124 98.7568 75.0097 97.1271 74.8273C96.4014 74.7462 95.6757 74.6692 94.95 74.5962C92.8987 74.3976 90.8433 74.2111 88.7879 74.0651C87.5758 73.976 86.3596 73.8989 85.1474 73.83C84.1177 73.7733 83.084 73.7206 82.0502 73.6719C80.4245 73.5989 78.8029 73.5422 77.1773 73.5057C77.0597 73.5057 76.9421 73.4976 76.8246 73.4976C74.2584 73.4408 71.6881 73.4246 69.1219 73.4489C69.0814 73.4489 69.0409 73.4489 68.9963 73.4489C66.353 73.4733 63.7098 73.5341 61.0707 73.6435C60.9126 73.6476 60.7544 73.6597 60.5963 73.6638C57.4707 73.7976 54.3532 73.9922 51.2356 74.2557C46.6586 74.6408 42.0979 75.1638 37.5615 75.8773C37.4521 75.8935 37.3467 75.9138 37.2372 75.93C37.0629 76.5462 36.9048 77.1705 36.6859 77.7746C36.5318 78.3908 36.3777 79.007 36.2196 79.6191C35.8021 81.2529 35.4251 82.8948 35.0967 84.5488C35.3278 84.5083 35.5588 84.4718 35.7899 84.4313C36.094 84.3785 36.398 84.3299 36.698 84.2772C37.148 84.2042 37.598 84.1313 38.048 84.0583C39.6737 83.8069 41.3073 83.5799 42.9371 83.3732C44.5708 83.1664 46.2046 82.984 47.8424 82.8218C48.9329 82.7124 50.0275 82.611 51.1221 82.5178C52.7762 82.3799 54.4342 82.2624 56.0923 82.157C57.6531 82.0597 59.2139 81.9826 60.7747 81.9178C61.1761 81.9015 61.5774 81.8813 61.9788 81.8651C62.5747 81.8407 63.1747 81.8245 63.7706 81.8043C64.1558 81.7921 64.5409 81.784 64.9301 81.7759C66.3368 81.7394 67.7436 81.7191 69.1503 81.707C69.6814 81.707 70.2084 81.6989 70.7395 81.6989C71.6476 81.6989 72.5557 81.6989 73.4597 81.707C73.7881 81.707 74.1165 81.711 74.4448 81.7191C74.7975 81.7232 75.1502 81.7272 75.5029 81.7313C76.4637 81.7475 77.4205 81.7718 78.3813 81.8002C79.3421 81.8286 80.2988 81.8651 81.2596 81.9016C81.4178 81.9056 81.5759 81.9178 81.734 81.9218C82.7637 81.9664 83.7934 82.0191 84.8191 82.0718C85.6096 82.1164 86.4001 82.1651 87.1907 82.2137C88.3744 82.2907 89.5623 82.3759 90.746 82.4732C91.8366 82.5624 92.9271 82.6637 94.0217 82.7732C94.0582 82.7732 94.0987 82.7813 94.1352 82.7853C94.9176 82.8624 95.7 82.9394 96.4825 83.0205C97.7352 83.1461 98.9878 83.2961 100.241 83.4623C101.489 83.6286 102.738 83.8069 103.986 83.9934C104.505 84.0705 105.024 84.1515 105.539 84.2326C107.092 84.484 108.64 84.7596 110.181 85.0637C111.089 85.2421 111.993 85.4285 112.897 85.6231C113.801 85.8177 114.701 86.0285 115.601 86.2475C116.967 86.5839 118.325 86.9447 119.667 87.338C121.459 87.865 123.235 88.4569 124.974 89.1501C125.412 89.3204 125.842 89.5028 126.275 89.6853C126.932 89.969 127.577 90.2812 128.217 90.5974C128.375 90.6744 128.533 90.7515 128.692 90.8325C128.813 90.8934 128.939 90.9542 129.061 91.015C129.223 91.0961 129.385 91.1771 129.543 91.2663C129.746 91.3758 129.944 91.4933 130.131 91.6231C130.852 92.1217 131.594 92.592 132.263 93.1595C132.417 93.2933 132.567 93.4271 132.713 93.569C132.888 93.7149 133.054 93.873 133.212 94.0312C133.475 94.2947 133.719 94.5784 133.933 94.8744C134.039 95.0203 134.136 95.1703 134.229 95.3244C134.31 95.4582 134.383 95.592 134.452 95.7298C134.521 95.8676 134.586 96.0095 134.643 96.1595C134.704 96.3055 134.756 96.4555 134.805 96.6055C134.837 96.7109 134.874 96.8203 134.906 96.9257C134.906 96.9257 134.906 96.9338 134.91 96.9379V96.9257C134.996 96.4757 134.943 96.0217 134.947 95.5676L134.959 95.5798Z" fill="#F1ECE2"/>
<path d="M134.987 88.0392C134.992 86.3567 134.992 84.6784 134.987 82.996C134.987 82.2216 134.979 81.4433 134.975 80.669C134.842 80.2311 134.748 79.7811 134.55 79.3636C134.043 78.3136 133.285 77.4703 132.409 76.7163C131.452 75.8893 130.394 75.2041 129.283 74.6001C127.674 73.7163 126.004 72.9623 124.281 72.3258C122.286 71.588 120.263 70.9353 118.212 70.3758C116.643 69.9501 115.066 69.5569 113.485 69.1961C111.681 68.7866 109.869 68.4258 108.049 68.1056C106.159 67.7772 104.262 67.461 102.361 67.1975C101.461 67.0718 100.557 66.9542 99.6527 66.8407C97.6338 66.5813 95.6108 66.3542 93.5838 66.1759C93.2068 66.1394 92.8338 66.0867 92.4568 66.0583C90.9244 65.9407 89.392 65.8272 87.8636 65.7178C87.6447 65.7015 87.4258 65.6853 87.2069 65.6691C86.1853 65.5961 85.1636 65.5232 84.142 65.4705C82.8123 65.4056 81.4826 65.3569 80.1529 65.3083C80.1407 65.3083 80.1286 65.3083 80.1164 65.3083C78.7259 65.2597 77.3394 65.207 75.9489 65.1826C74.7246 65.1624 73.5003 65.1502 72.2719 65.1461C71.7327 65.1461 71.1935 65.1421 70.6503 65.1421C68.5017 65.1421 66.3571 65.1745 64.2125 65.2353C64.1801 65.2353 64.1517 65.2353 64.1193 65.2353C61.6017 65.3083 59.0801 65.4097 56.5666 65.5718C54.6329 65.6934 52.6991 65.8029 50.7694 65.9651C49.987 66.0299 49.2086 66.1272 48.4302 66.2042C45.71 66.4759 42.9979 66.7921 40.2938 67.1731C40.2614 67.1772 40.233 67.1813 40.2006 67.1853C39.1181 69.9866 38.1452 72.8244 37.2898 75.7068C37.2695 75.7798 37.2493 75.8487 37.229 75.9217C37.3344 75.9055 37.4438 75.8852 37.5533 75.869C42.0898 75.1555 46.6505 74.6285 51.2275 74.2474C54.345 73.9879 57.4626 73.7893 60.5882 73.6555C60.7463 73.6474 60.9044 73.6393 61.0625 73.6352C63.7017 73.5258 66.3449 73.465 68.9881 73.4407C69.0287 73.4407 69.0733 73.4407 69.1138 73.4407C71.6841 73.4204 74.2503 73.4366 76.8164 73.4893C76.934 73.4893 77.0516 73.4974 77.1691 73.4974C78.7948 73.5339 80.4164 73.5906 82.0421 73.6636C83.0758 73.7123 84.1056 73.765 85.1393 73.8217C86.3515 73.8906 87.5677 73.9677 88.7798 74.0569C90.8352 74.2069 92.8906 74.3893 94.9419 74.5879C95.6676 74.6609 96.3933 74.7379 97.1189 74.819C98.7487 75.0014 100.374 75.2041 102 75.4271C104.355 75.7514 106.707 76.1285 109.046 76.5663C111.13 76.9555 113.205 77.3852 115.265 77.8879C118.484 78.6703 121.662 79.5784 124.751 80.7865C124.994 80.8838 125.246 80.9365 125.489 81.046C126.855 81.6622 128.217 82.2784 129.527 83.0122C130.479 83.5473 131.363 84.1757 132.227 84.8446C133.054 85.4851 133.715 86.2675 134.27 87.1432C134.614 87.6865 134.805 88.2905 134.951 88.9108C135.008 88.6189 134.975 88.3229 134.975 88.031L134.987 88.0392Z" fill="#FDBF41"/>
<path d="M87.3244 24.4845C88.4433 26.2318 89.2541 28.121 89.8662 30.0993C90.0568 30.7115 90.227 31.3277 90.3811 31.948C90.6365 32.9817 90.8351 34.0317 90.9933 35.0858C91.0378 35.3939 91.0824 35.702 91.123 36.0141C91.2 36.6344 91.2689 37.2547 91.3257 37.8749C91.35 38.1871 91.3743 38.4952 91.3987 38.8073C91.5122 40.5019 91.5608 42.1964 91.5162 43.8951C91.4676 45.6707 91.3622 47.4464 91.1838 49.218C91.0054 50.9774 90.7622 52.7288 90.4703 54.4679C90.296 55.5139 90.1014 56.5557 89.8906 57.5895C88.2122 57.4557 86.5338 57.3422 84.8514 57.2611C84.0447 57.2247 83.2339 57.1801 82.4231 57.1395C82.9704 54.7882 83.4325 52.4206 83.7933 50.0288C84.1906 47.3815 84.4744 44.7261 84.5798 42.0545C84.6649 39.7844 84.6528 37.5101 84.4703 35.2398C84.3163 33.3466 84.0609 31.4736 83.6555 29.6169C83.1974 27.5291 82.5528 25.5021 81.6285 23.5683C81.2636 22.8021 80.8339 22.0683 80.4042 21.3386C80.7569 21.2251 81.1258 21.2129 81.4866 21.1765C81.6771 21.1562 81.8677 21.14 82.0542 21.1278C82.2163 21.1197 82.3785 21.1116 82.5406 21.1075C82.8041 21.1035 83.0677 21.1035 83.3312 21.1075C83.5136 21.1116 83.7001 21.1197 83.8825 21.1278C84.0244 21.1359 84.1663 21.144 84.3082 21.1562C84.3325 21.1562 84.3568 21.1602 84.3771 21.1643C84.4217 21.1724 84.4622 21.1846 84.5028 21.2008C84.5433 21.217 84.5798 21.2373 84.6163 21.2616C84.669 21.294 84.7217 21.3386 84.7703 21.3832C84.896 21.4967 85.0176 21.6143 85.1352 21.7318C85.3744 21.967 85.6055 22.2143 85.8244 22.4656C86.3798 23.094 86.8784 23.7629 87.3365 24.4764L87.3244 24.4845Z" fill="#F1ECE2"/>
<path d="M83.6433 29.6167C84.0487 31.4694 84.3041 33.3464 84.4582 35.2396C84.6447 37.5099 84.6568 39.7842 84.5676 42.0545C84.4663 44.7261 84.1825 47.3815 83.7811 50.0288C83.4203 52.4206 82.9582 54.7922 82.4109 57.1395C81.7987 57.1111 81.1825 57.0787 80.5704 57.0544C79.1677 57.0017 77.7691 56.9692 76.3664 56.9409C75.8434 56.9287 75.3204 56.9206 74.8015 56.9125C75.3123 54.9868 75.7623 53.0449 76.1474 51.0909C76.4393 49.6274 76.6907 48.1558 76.9137 46.6801C77.0596 45.691 77.1893 44.7018 77.3028 43.7086C77.4204 42.6707 77.5137 41.6288 77.5785 40.5828C77.6474 39.468 77.692 38.3491 77.7163 37.2342C77.7447 35.7383 77.6961 34.2464 77.5866 32.7545C77.5136 31.7694 77.4204 30.7883 77.2947 29.8073C77.1245 28.4654 76.8812 27.1397 76.561 25.8262C76.3056 24.7762 76.0137 23.7303 75.6245 22.7168C75.892 22.5465 76.2002 22.4614 76.4961 22.3519C77.0961 22.129 77.7001 21.9344 78.3163 21.7641C78.9326 21.5979 79.5528 21.456 80.1852 21.3506C80.2298 21.3425 80.2704 21.3303 80.315 21.3303C80.3434 21.3303 80.3677 21.3303 80.392 21.3384C80.8217 22.0682 81.2514 22.7979 81.6163 23.5681C82.5406 25.5019 83.1852 27.5289 83.6433 29.6167Z" fill="#FDBF41"/>
<path d="M101.266 26.1791C101.266 26.1791 101.25 26.1669 101.25 26.1588C101.25 26.1547 101.25 26.1507 101.25 26.1426L101.27 26.1547L101.262 26.175L101.266 26.1791Z" fill="#3180F4"/>
<path d="M134.951 104.928C134.955 104.823 134.963 104.717 134.963 104.612C134.963 102.877 134.967 101.138 134.967 99.4025C134.967 98.6526 134.955 97.9026 134.951 97.1526C134.951 97.108 134.971 97.0593 134.967 97.0147C134.955 96.9864 134.939 96.9661 134.927 96.9418C134.927 96.9418 134.927 96.9458 134.927 96.9499C134.927 96.9458 134.927 96.9418 134.923 96.9377C134.89 96.8282 134.854 96.7228 134.821 96.6134C134.773 96.4593 134.716 96.3093 134.659 96.1674C134.602 96.0215 134.537 95.8796 134.469 95.7377C134.4 95.5999 134.323 95.4621 134.246 95.3323C134.152 95.1783 134.055 95.0283 133.95 94.8823C133.735 94.5823 133.496 94.3026 133.228 94.0391C133.07 93.881 132.904 93.7269 132.729 93.5769C132.583 93.431 132.433 93.2972 132.279 93.1675C131.61 92.5999 130.869 92.1296 130.147 91.631C129.956 91.5013 129.758 91.3837 129.559 91.2743C129.401 91.1891 129.239 91.104 129.077 91.0229C128.955 90.9621 128.829 90.9013 128.708 90.8405C128.55 90.7594 128.392 90.6824 128.233 90.6053C127.593 90.2891 126.948 89.977 126.292 89.6932C125.858 89.5108 125.428 89.3283 124.99 89.1581C123.247 88.4689 121.475 87.8729 119.684 87.3459C118.338 86.9486 116.98 86.5878 115.617 86.2554C114.717 86.0365 113.817 85.8257 112.913 85.6311C112.009 85.4365 111.105 85.25 110.197 85.0716C108.653 84.7676 107.104 84.4878 105.555 84.2405C105.036 84.1595 104.522 84.0784 104.003 84.0014C102.754 83.8149 101.509 83.6365 100.257 83.4703C99.0081 83.3041 97.7554 83.1541 96.4986 83.0284C95.7162 82.9514 94.9338 82.8703 94.1514 82.7933C94.1149 82.7933 94.0743 82.7851 94.0379 82.7811C92.9473 82.6716 91.8568 82.5703 90.7622 82.4811C89.5784 82.3838 88.3906 82.3027 87.2068 82.2216C86.4163 82.1689 85.6258 82.1203 84.8352 82.0798C83.8055 82.023 82.7758 81.9703 81.7501 81.9297C81.592 81.9216 81.4339 81.9135 81.2758 81.9095C80.315 81.8689 79.3583 81.8365 78.3975 81.8081C77.4367 81.7798 76.4799 81.7554 75.5191 81.7392C75.1664 81.7352 74.8137 81.7311 74.461 81.727C74.1327 81.723 73.8043 81.7189 73.4759 81.7149C72.5678 81.7068 71.6597 81.7027 70.7557 81.7068C70.2246 81.7068 69.6935 81.7108 69.1665 81.7149C67.7597 81.727 66.353 81.7473 64.9463 81.7838C64.5611 81.7919 64.176 81.8041 63.7868 81.8122C63.1909 81.8284 62.5909 81.8487 61.9949 81.873C61.5936 81.8892 61.1922 81.9095 60.7909 81.9257C59.2301 81.9906 57.6693 82.0716 56.1085 82.1649C54.4504 82.2703 52.7923 82.3838 51.1383 82.5257C50.0437 82.6189 48.9491 82.7203 47.8586 82.8297C46.2208 82.9919 44.587 83.1743 42.9532 83.3811C41.3195 83.5878 39.6898 83.8149 38.0641 84.0662C37.6141 84.1351 37.1641 84.2081 36.7142 84.2851C36.4101 84.3338 36.1101 84.3865 35.8061 84.4392C35.575 84.4797 35.3439 84.5162 35.1129 84.5568C35.4412 82.9027 35.8182 81.2608 36.2358 79.6271C36.3939 79.0109 36.5479 78.3987 36.702 77.7825C36.9209 77.1784 37.079 76.5541 37.2533 75.9379C37.2736 75.8649 37.2939 75.796 37.3141 75.7231C38.1695 72.8407 39.1425 69.9988 40.225 67.2015C40.9101 65.4259 41.6397 63.6664 42.4141 61.9232C42.933 60.7556 43.4722 59.5921 44.0276 58.4449C45.864 54.6462 47.9032 50.953 50.1653 47.3815C52.2775 44.0328 54.5761 40.8221 57.0936 37.7653C57.1463 37.7045 57.1869 37.6316 57.2355 37.5667C57.9936 36.6991 58.7396 35.8235 59.5139 34.9681C62.0355 32.1749 64.7517 29.5884 67.7597 27.3222C68.5016 26.7627 69.2678 26.2357 70.0259 25.6965C70.0949 25.6479 70.18 25.6398 70.2611 25.6357C70.2976 25.5263 70.3989 25.4776 70.484 25.4249C72.0367 24.4317 73.6502 23.5479 75.3489 22.8344C75.4097 22.8101 75.4664 22.7776 75.5313 22.7574C75.5475 22.7533 75.5678 22.7493 75.588 22.7452C75.6083 22.7452 75.6286 22.7371 75.6489 22.7371C75.9164 22.5668 76.2245 22.4817 76.5205 22.3722C77.1205 22.1493 77.7245 21.9547 78.3407 21.7844C78.9569 21.6182 79.5772 21.4763 80.2096 21.3709C80.2542 21.3628 80.2948 21.3506 80.3393 21.3506C80.3677 21.3506 80.3921 21.3506 80.4164 21.3587C80.7691 21.2452 81.138 21.2331 81.4988 21.1966C81.6893 21.1763 81.8799 21.1601 82.0664 21.1479C82.2285 21.1398 82.3907 21.1317 82.5528 21.1277C82.8163 21.1236 83.0799 21.1236 83.3434 21.1277C83.5258 21.1317 83.7123 21.1398 83.8947 21.1479C84.0366 21.156 84.1785 21.1642 84.3204 21.1763C84.3447 21.1763 84.369 21.1804 84.3893 21.1844C84.4339 21.1925 84.4744 21.2047 84.515 21.2209C84.5555 21.2371 84.592 21.2574 84.6285 21.2817C84.6812 21.3142 84.7339 21.3587 84.7825 21.4033C84.9082 21.5169 85.0298 21.6344 85.1474 21.752C85.3866 21.9871 85.6177 22.2344 85.8366 22.4858C86.392 23.1141 86.8906 23.783 87.3487 24.4966C88.4676 26.2438 89.2784 28.133 89.8906 30.1114C90.0811 30.7235 90.2514 31.3397 90.4055 31.96C90.6609 32.9938 90.8595 34.0438 91.0176 35.0978C91.0622 35.4059 91.1068 35.714 91.1473 36.0262C91.2244 36.6464 91.2933 37.2667 91.35 37.887C91.3744 38.1991 91.3987 38.5072 91.423 38.8194C91.5365 40.514 91.5852 42.2085 91.5406 43.9072C91.4919 45.6828 91.3865 47.4585 91.2082 49.2301C91.0298 50.9895 90.7865 52.7409 90.4947 54.48C90.3203 55.526 90.1257 56.5678 89.9149 57.6016C90.1865 57.6219 90.4582 57.6422 90.7298 57.6665C92.6798 57.8286 94.6257 58.0232 96.5716 58.2016C96.5554 58.1813 96.5392 58.1651 96.5189 58.1489C98.1324 58.3476 99.75 58.5422 101.363 58.7408C101.355 58.757 101.343 58.7732 101.327 58.7894C101.424 58.8016 101.522 58.8178 101.619 58.83C101.943 57.2327 102.235 55.6354 102.482 54.026C102.701 52.5827 102.896 51.1355 103.046 49.6841C103.188 48.326 103.313 46.9679 103.378 45.6017C103.411 44.945 103.447 44.2842 103.488 43.6274C103.492 43.5423 103.447 43.4288 103.581 43.3923C103.581 42.168 103.573 40.9396 103.569 39.7153C103.504 39.6869 103.5 39.6302 103.492 39.5694C103.476 39.3221 103.447 39.0788 103.439 38.8315C103.39 37.0518 103.228 35.2843 102.989 33.5248C102.726 31.5749 102.336 29.6533 101.797 27.76C101.663 27.2857 101.55 26.8073 101.339 26.3573L101.295 26.1952C101.295 26.1952 101.278 26.183 101.278 26.1749C101.278 26.1709 101.278 26.1668 101.278 26.1587C101.266 26.1019 101.258 26.0452 101.238 25.9884C100.455 23.7303 99.4337 21.5898 98.027 19.6439C96.673 17.7669 95.0392 16.198 93.0244 15.0304C92.2703 14.5926 91.4514 14.2845 90.6771 13.8913C90.6082 13.8548 90.519 13.8629 90.4379 13.8467C90.369 13.7575 90.2595 13.7331 90.1663 13.6886C88.3379 12.8778 86.5136 12.0669 84.6812 11.2643C84.4461 11.1588 84.2312 11.0048 83.9677 10.9724C83.9231 10.9561 83.8785 10.944 83.8339 10.9278C83.5217 10.8264 83.2015 10.7534 82.9015 10.6116C82.8731 10.6034 82.8488 10.5953 82.8204 10.5832C82.8082 10.5791 82.792 10.5751 82.7799 10.571C82.7799 10.571 82.7758 10.571 82.7718 10.571C82.7393 10.5913 82.7191 10.5751 82.6988 10.5467C82.1109 10.3967 81.5231 10.2832 80.9272 10.2021C80.4975 10.1413 80.0677 10.0967 79.6339 10.0724C79.488 10.0643 79.3461 10.0602 79.2002 10.0562C78.7664 10.044 78.3367 10.048 77.9069 10.0683C77.3353 10.0926 76.7678 10.1453 76.2002 10.2224C75.211 10.3602 74.2299 10.567 73.257 10.8345C73.1191 10.8751 72.9773 10.9116 72.8394 10.9561C71.0111 11.4994 69.2678 12.2332 67.5854 13.1007C67.026 13.3886 66.4706 13.6926 65.9192 14.0129C65.4165 14.3007 64.9219 14.5967 64.4314 14.9088C64.2692 15.0102 64.1071 15.1156 63.9449 15.221C63.7828 15.3264 63.6206 15.4318 63.4625 15.5412C63.1422 15.7561 62.826 15.975 62.5139 16.202C62.3598 16.3156 62.2017 16.4291 62.0476 16.5426C62.0476 16.5547 62.0476 16.5628 62.0476 16.575C62.0476 16.5831 62.0395 16.5912 62.0355 16.5993C62.0233 16.6115 62.0071 16.6156 61.9828 16.6156H61.9787C61.9787 16.6156 61.9787 16.6318 61.9787 16.6358C61.9787 16.652 61.9706 16.6601 61.9625 16.6642C61.9544 16.6683 61.9463 16.6683 61.9301 16.6642C61.926 16.6642 61.9179 16.6642 61.9139 16.6561C61.2247 17.1385 60.5558 17.6412 59.9031 18.1642C59.6112 18.3953 59.3233 18.6344 59.0396 18.8736C58.995 18.9101 58.9504 18.9507 58.9058 18.9871C58.6139 19.2344 58.322 19.4858 58.0342 19.7412C58.0342 19.7493 58.0342 19.7534 58.0342 19.7615C58.0342 19.7817 58.0261 19.7939 58.0139 19.8061C58.0139 19.8061 58.0058 19.8101 58.0017 19.8142C57.9936 19.8182 57.9815 19.8223 57.9693 19.8223C57.9612 19.8385 57.949 19.8547 57.9369 19.8669C57.9207 19.8831 57.9085 19.8993 57.8882 19.9115C57.8639 19.9277 57.8355 19.9439 57.8031 19.9479C57.8031 19.9844 57.795 20.0047 57.7788 20.0128C57.7544 20.029 57.7098 20.0169 57.6774 20.0209C57.568 20.1344 57.4544 20.2479 57.345 20.3574C57.3369 20.3655 57.3328 20.3736 57.3247 20.3777C57.3247 20.3817 57.3247 20.3898 57.3247 20.3939C57.3247 20.4101 57.3166 20.4182 57.3085 20.4304H57.3044C57.3044 20.4304 57.2801 20.4425 57.2558 20.4425C57.1585 20.5236 57.0531 20.5966 56.9599 20.6817C56.9517 20.6898 56.9436 20.6939 56.9355 20.702C56.5788 21.0385 56.218 21.375 55.8653 21.7196C55.8409 21.7439 55.8166 21.7641 55.7963 21.7844C55.6869 21.8939 55.5734 21.9952 55.4599 22.1006C55.1761 22.3641 54.8842 22.6195 54.6126 22.8952C54.4666 23.0452 54.3166 23.1952 54.1707 23.3412C53.3275 24.1966 52.4923 25.0601 51.6856 25.9519C50.6559 27.0911 49.6545 28.2506 48.6816 29.4343C48.5437 29.6046 48.4018 29.7708 48.264 29.9411C48.2437 29.9654 48.2194 29.9938 48.2032 30.0222C48.1748 30.0627 48.1464 30.1033 48.118 30.1478C48.0816 30.2046 48.0451 30.2614 48.0086 30.3141C47.9802 30.3546 47.9518 30.3911 47.9194 30.4316C47.9072 30.4438 47.8991 30.4559 47.891 30.4641C47.8464 30.5127 47.8018 30.5573 47.7491 30.5938C47.7491 30.6059 47.7451 30.61 47.741 30.6181C47.741 30.6262 47.741 30.6343 47.7329 30.6424C47.7329 30.6465 47.7248 30.6505 47.7208 30.6546C47.7126 30.6587 47.7005 30.6627 47.6924 30.6668C47.6681 30.7803 47.5748 30.837 47.4978 30.91C47.4937 30.91 47.4897 30.9181 47.4856 30.9222C47.4613 30.9424 47.4451 30.9668 47.4289 30.9911C47.4208 31.0032 47.4127 31.0154 47.4086 31.0316C47.4045 31.0478 47.3964 31.06 47.3924 31.0762C47.3924 31.0843 47.3924 31.0884 47.3924 31.0965C47.3924 31.1168 47.3843 31.1289 47.3681 31.1411C47.3681 31.1411 47.3599 31.1411 47.3599 31.1451C47.3559 31.1451 47.3478 31.1451 47.3437 31.1451C47.3397 31.1451 47.3356 31.1451 47.3275 31.1451C47.1491 31.3681 46.9667 31.5911 46.7883 31.814C46.7802 31.8262 46.7681 31.8384 46.76 31.8505C46.764 31.8789 46.764 31.9032 46.76 31.9276C46.76 31.9478 46.7478 31.96 46.7397 31.9762C46.7397 31.9803 46.7316 31.9884 46.7316 31.9924C46.7194 32.0046 46.7032 32.0208 46.687 32.0289C46.6667 32.0411 46.6424 32.0492 46.6181 32.0573C46.5897 32.0897 46.5613 32.1181 46.5329 32.1505C46.5208 32.1627 46.5127 32.1749 46.5046 32.183C46.4802 32.2073 46.46 32.2357 46.4397 32.26C45.9816 32.8762 45.5235 33.4965 45.0654 34.1127C45.0654 34.1329 45.0573 34.1451 45.0451 34.1573C45.0451 34.1573 45.0411 34.1613 45.037 34.1654C45.0289 34.1735 45.0167 34.1775 45.0046 34.1775C44.6884 34.6235 44.364 35.0654 44.0519 35.5154C43.9911 35.6045 43.9303 35.6937 43.8694 35.7829C43.4032 36.4681 42.9654 37.1735 42.4951 37.8545C42.26 38.1951 42.037 38.5437 41.8141 38.8883C41.587 39.2329 41.36 39.5775 41.1128 39.914C40.7195 40.4531 40.383 41.041 40.0384 41.6126C39.8884 41.8599 39.7384 42.1072 39.5925 42.3545C37.9263 45.1193 36.3087 47.9125 34.9304 50.8355C34.8493 51.0057 34.7561 51.1638 34.6628 51.326C34.5696 51.4841 34.4723 51.6463 34.3912 51.8084C33.921 52.753 33.4629 53.7017 33.0169 54.6584C32.8507 55.0152 32.6886 55.3719 32.5223 55.7327C32.3075 56.1989 32.0966 56.6692 31.8899 57.1395C31.6264 57.7354 31.3629 58.3354 31.1034 58.9394C30.994 59.1908 30.8885 59.4462 30.7831 59.7016C30.6493 60.0178 30.5156 60.334 30.3858 60.6543C29.9237 61.7773 29.4777 62.9124 29.044 64.0475C28.9183 64.3799 28.7926 64.7124 28.671 65.0488C28.3751 65.8596 28.0872 66.6704 27.7994 67.4853C27.7305 67.6799 27.6615 67.8745 27.5926 68.0691C27.5399 68.2191 27.4872 68.3731 27.4386 68.5272C27.3048 68.9123 27.1791 69.3015 27.0575 69.6907C26.9075 70.165 26.7615 70.6393 26.6156 71.1136C26.5102 71.4542 26.4048 71.7907 26.2954 72.1312C26.0481 72.8893 25.7602 73.6393 25.6629 74.4379C25.6589 74.4785 25.6102 74.515 25.5859 74.5514C25.4643 74.8839 25.3913 75.2244 25.3102 75.565C25.2697 75.7271 25.221 75.8893 25.1724 76.0514C25.1237 76.2136 25.0751 76.3758 25.0305 76.5379C24.844 77.2352 24.6616 77.9365 24.4913 78.6379C24.3332 79.2703 24.1832 79.9109 24.0373 80.5473C23.8751 81.2649 23.721 81.9825 23.571 82.7C23.4413 83.3284 23.3157 83.9608 23.1981 84.5932C23.1049 85.0959 23.0116 85.5946 22.9265 86.0973C22.8494 86.5392 22.7805 86.9811 22.7075 87.4229C22.6183 87.9864 22.5332 88.5459 22.4562 89.1094C22.3873 89.6162 22.3224 90.1189 22.2575 90.6256C22.0873 92.0161 21.9494 93.4067 21.84 94.8053C21.8116 95.2066 21.7832 95.6039 21.763 96.0053C21.7386 96.4066 21.7184 96.8039 21.7021 97.2053C21.6697 98.0039 21.6454 98.8066 21.6211 99.6052C21.617 99.7877 21.617 99.9701 21.613 100.153C21.613 100.209 21.613 100.262 21.613 100.319C21.6089 101.344 21.6494 102.366 21.6819 103.384C21.6819 103.428 21.69 103.477 21.69 103.521C21.6981 103.704 21.7062 103.886 21.7184 104.069C21.7548 104.807 21.8157 105.544 21.8927 106.282C21.9454 106.781 22.0021 107.284 22.067 107.782C22.0751 107.855 22.0873 107.924 22.0954 107.997C22.2333 109.011 22.3914 110.02 22.59 111.021C22.9589 112.894 23.4495 114.735 24.1224 116.523C24.1346 116.551 24.1467 116.583 24.1589 116.616C24.6616 117.937 25.2453 119.223 25.9629 120.447C27.1426 122.462 28.5818 124.246 30.4183 125.668C30.6372 125.839 30.8602 126.001 31.0872 126.163C31.3061 126.313 31.5413 126.451 31.7683 126.589C31.8088 126.617 31.8575 126.637 31.9021 126.658C31.9345 126.674 31.9669 126.686 31.9993 126.702C32.0561 126.731 32.1088 126.767 32.1453 126.82C32.1574 126.836 32.1696 126.86 32.1818 126.885V126.877C32.2426 126.868 32.2953 126.881 32.3237 126.946H32.3277C32.3845 126.946 32.4372 126.962 32.4656 127.014C32.4818 127.014 32.4939 127.014 32.5061 127.018H32.5102C32.5467 127.027 32.5791 127.043 32.6034 127.079C32.6034 127.079 32.6034 127.079 32.6034 127.083C32.6034 127.083 32.6115 127.083 32.6155 127.083C32.6237 127.083 32.6318 127.083 32.6399 127.083C32.648 127.083 32.652 127.087 32.6642 127.087C32.6682 127.087 32.6764 127.087 32.6804 127.091C32.6886 127.091 32.6966 127.1 32.7047 127.104C32.7047 127.104 32.7128 127.104 32.7169 127.108C32.725 127.116 32.7331 127.124 32.7412 127.132C32.7412 127.132 32.7412 127.132 32.7453 127.132C32.8223 127.213 32.9277 127.233 33.025 127.278C35.048 128.174 37.075 129.07 39.098 129.966C40.0993 130.408 41.0925 130.874 42.1505 131.166C43.2086 131.458 44.283 131.656 45.3816 131.701C45.564 131.701 45.7465 131.701 45.9289 131.701C46.4762 131.701 47.0235 131.701 47.5708 131.701C48.1018 131.685 48.6289 131.616 49.1518 131.535C51.2802 131.214 53.3234 130.586 55.2977 129.739C58.9139 128.186 62.1774 126.066 65.2381 123.613C65.9111 123.074 66.5679 122.519 67.2206 121.955C69.4949 121.996 71.7651 122.008 74.0394 121.983C76.2043 121.959 78.3731 121.923 80.538 121.837C80.6434 121.777 80.7569 121.777 80.8704 121.821C80.9029 121.821 80.9353 121.821 80.9677 121.821C81.0974 121.76 81.2312 121.764 81.365 121.805H81.4623C81.5393 121.756 81.6204 121.748 81.7015 121.764C81.7015 121.764 81.7055 121.764 81.7096 121.764H81.7137C81.742 121.773 81.7664 121.781 81.7907 121.789H81.888C81.9407 121.756 81.9934 121.744 82.0461 121.74C82.1028 121.74 82.1596 121.752 82.2204 121.769C82.2528 121.769 82.2853 121.769 82.3177 121.769C82.3542 121.748 82.3907 121.736 82.4272 121.728C82.5001 121.712 82.5772 121.72 82.6542 121.748C82.6866 121.748 82.715 121.748 82.7474 121.748C82.7474 121.748 82.7555 121.748 82.7596 121.744C82.865 121.692 82.9745 121.692 83.0799 121.732C83.1123 121.732 83.1447 121.732 83.1731 121.732C83.2826 121.663 83.392 121.671 83.5096 121.712C83.542 121.712 83.5745 121.712 83.6028 121.712C83.7123 121.647 83.8258 121.655 83.9393 121.692C83.9717 121.692 84.0042 121.692 84.0326 121.692C84.0569 121.675 84.0771 121.667 84.0974 121.659C84.1339 121.647 84.1663 121.647 84.2028 121.647C84.2353 121.647 84.2717 121.655 84.3042 121.671C84.7988 121.647 85.2893 121.631 85.7839 121.602C89.5703 121.379 93.3446 121.079 97.1148 120.662C102.839 120.025 108.527 119.17 114.146 117.889C117.973 117.017 121.747 115.971 125.396 114.5C127.354 113.709 129.255 112.805 131.015 111.621C132.073 110.908 133.054 110.105 133.84 109.079C134.335 108.427 134.736 107.725 134.89 106.907C134.951 106.842 134.975 106.765 134.979 106.684C135.016 106.096 135.036 105.512 134.983 104.924L134.951 104.928ZM84.1339 92.5269C83.0799 92.4621 82.0299 92.4053 80.9758 92.3607C82.0299 92.4094 83.0799 92.4661 84.1339 92.5269ZM60.7544 111.666C60.5841 111.816 60.4139 111.97 60.2436 112.12C59.0477 113.17 57.8153 114.163 56.5301 115.092C55.245 116.016 53.9112 116.875 52.5167 117.642C52.318 117.751 52.1153 117.86 51.9126 117.966C51.4464 118.209 50.9761 118.44 50.5018 118.663C50.0275 118.882 49.5451 119.085 49.0586 119.275C48.0856 119.656 47.0883 119.973 46.0586 120.216C45.6127 120.321 45.1667 120.41 44.7208 120.479C44.5627 120.504 44.4046 120.528 44.2505 120.552C43.6424 120.633 43.0343 120.682 42.4222 120.698C42.2195 120.702 42.0127 120.706 41.81 120.702C41.6033 120.702 41.4005 120.694 41.1939 120.686C41.1047 120.682 41.0195 120.67 40.9303 120.662C40.8452 120.654 40.756 120.642 40.6668 120.633C40.5533 120.625 40.4682 120.577 40.3831 120.504C40.1398 120.285 39.9087 120.058 39.6817 119.823C39.3452 119.474 39.0249 119.109 38.7249 118.732C38.5263 118.481 38.3317 118.221 38.1452 117.954C38.052 117.82 37.9628 117.686 37.8736 117.552C37.8655 117.54 37.8614 117.528 37.8574 117.516C37.8533 117.496 37.8452 117.471 37.8412 117.451C37.8047 117.415 37.756 117.378 37.7277 117.338L37.7195 117.329C37.302 116.669 36.925 115.988 36.5844 115.286C36.4142 114.933 36.252 114.585 36.102 114.224C35.9479 113.867 35.8061 113.502 35.6723 113.133C35.6561 113.089 35.6601 113.044 35.652 112.996C35.4169 112.558 35.2993 112.079 35.1534 111.613C34.829 110.571 34.5736 109.513 34.3628 108.443C34.3263 108.252 34.2899 108.066 34.2534 107.875C34.2371 107.798 34.229 107.725 34.2128 107.648C34.1966 107.555 34.1763 107.462 34.1601 107.369C34.1601 107.344 34.1601 107.324 34.152 107.3C34.1439 107.219 34.1399 107.134 34.1318 107.052C33.9939 106.457 33.9331 105.848 33.8642 105.24C33.629 103.303 33.5399 101.357 33.5358 99.4107C33.5358 98.6769 33.5439 97.939 33.5642 97.2012C33.5763 96.7634 33.5966 96.3296 33.6209 95.8958C35.2223 95.5148 36.8358 95.1783 38.4533 94.8702C41.2181 94.3472 43.9992 93.9215 46.7883 93.5769C46.8329 93.5729 46.8775 93.5648 46.9221 93.5607C46.9748 93.5526 47.0275 93.5486 47.0802 93.5526C47.1127 93.5526 47.1451 93.5607 47.1775 93.5688C47.6113 93.4756 48.0532 93.4269 48.4951 93.3823C48.6978 93.3621 48.9005 93.3418 49.0991 93.3215C52.164 92.981 55.2328 92.7215 58.3058 92.535C59.1693 92.4823 60.0328 92.4337 60.8922 92.3932C63.0976 92.2878 65.303 92.2188 67.5084 92.1783C68.7165 92.154 69.9246 92.1418 71.1327 92.1418C72.8556 92.1418 74.5786 92.1621 76.2975 92.2026C75.9245 92.8229 75.5475 93.4431 75.1624 94.0553C74.8826 94.5053 74.5989 94.9512 74.311 95.3931C73.7962 96.1837 73.2732 96.9661 72.7381 97.7445C71.7489 99.1796 70.7232 100.586 69.657 101.965C69.3205 102.403 68.98 102.836 68.6314 103.266C68.5705 103.343 68.5097 103.42 68.4489 103.493C67.9462 104.117 67.4354 104.73 66.9125 105.334C66.0408 106.343 65.1449 107.328 64.2246 108.293C63.9449 108.585 63.6652 108.877 63.3814 109.165C62.6517 109.902 61.8976 110.624 61.1274 111.325C61.0017 111.439 60.876 111.556 60.7504 111.67L60.7544 111.666ZM64.8571 111.471C65.749 111.5 66.6449 111.524 67.5368 111.54C66.6408 111.524 65.749 111.5 64.8571 111.471ZM123.811 101.977C123.786 102.009 123.746 102.042 123.681 102.09C123.596 102.155 123.511 102.224 123.421 102.285C123.336 102.35 123.247 102.411 123.158 102.475C122.992 102.593 122.821 102.707 122.647 102.816C122.627 102.828 122.606 102.84 122.586 102.857C122.444 102.946 122.302 103.035 122.156 103.12C121.942 103.25 121.731 103.371 121.512 103.493C120.028 104.32 118.467 104.985 116.874 105.573C115.37 106.124 113.846 106.607 112.309 107.036C110.108 107.652 107.878 108.163 105.628 108.609C103.443 109.047 101.25 109.416 99.0486 109.736C96.8473 110.056 94.6379 110.324 92.4244 110.555C91.6987 110.632 90.973 110.701 90.2474 110.77C88.792 110.904 87.3366 111.017 85.8812 111.115C85.1515 111.163 84.4217 111.208 83.6961 111.248C82.0623 111.342 80.4285 111.411 78.7948 111.463C78.4988 111.471 78.2029 111.484 77.9029 111.492C77.6313 111.5 77.3596 111.508 77.084 111.516C77.7529 110.689 78.4218 109.866 79.034 108.994C79.1231 108.885 79.2123 108.775 79.2975 108.662C80.6069 106.898 81.8637 105.102 83.0717 103.274C83.1366 103.173 83.4731 102.662 83.5744 102.504C84.3407 101.324 85.0825 100.132 85.8082 98.9242C86.992 96.9458 88.123 94.9391 89.1974 92.904C91.2487 93.0823 93.296 93.2891 95.3432 93.5404C95.4932 93.5567 95.6432 93.5891 95.7973 93.6134C96.7135 93.6783 97.6216 93.8161 98.5257 93.9499C99.6892 94.1202 100.853 94.3067 102.012 94.5012C103.577 94.7648 105.142 95.0566 106.694 95.3931C107.534 95.5756 108.369 95.762 109.208 95.9445C109.216 95.9445 109.228 95.9445 109.236 95.9485C109.244 95.9485 109.253 95.9485 109.265 95.9526C109.317 95.9607 109.378 95.9607 109.435 95.9688C109.508 95.9769 109.581 95.9972 109.638 96.058C111.43 96.5161 113.217 96.9985 114.973 97.5782C115.135 97.6309 115.321 97.6472 115.447 97.785C115.905 97.8661 116.323 98.0566 116.752 98.2147C117.13 98.3526 117.507 98.4985 117.88 98.6485C118.946 99.0701 119.992 99.5363 121.005 100.076C121.406 100.286 121.8 100.509 122.189 100.744C122.704 101.057 123.206 101.385 123.677 101.762C123.815 101.871 123.855 101.916 123.802 101.981L123.811 101.977Z" fill="#007FFF"/>
<path d="M134.987 72.7596C134.939 71.7907 134.57 70.9353 134.006 70.157C133.212 69.0502 132.186 68.1867 131.075 67.4246C129.182 66.1273 127.11 65.1746 124.99 64.3232C123.81 63.8489 122.615 63.4273 121.406 63.0381C119.566 62.4462 117.697 61.9395 115.82 61.4773C113.473 60.9017 111.113 60.403 108.738 59.9692C107.29 59.7057 105.839 59.4503 104.384 59.2395C104.339 59.2395 104.294 59.2355 104.25 59.2314C104.226 59.2314 104.197 59.2273 104.173 59.2233C104.12 59.2192 104.063 59.2111 104.011 59.2071C103.889 59.1909 103.763 59.1665 103.646 59.1382C103.212 59.0692 102.782 59.0003 102.349 58.9274C102.097 58.8909 101.846 58.8544 101.595 58.8219C101.497 58.8057 101.4 58.7936 101.303 58.7814C100.301 58.6598 99.2959 58.5422 98.2945 58.4125C98.0026 58.376 97.7108 58.3517 97.4189 58.3193C97.127 58.2909 96.8351 58.2544 96.5473 58.1976C94.6013 58.0152 92.6554 57.8206 90.7054 57.6625C90.4338 57.6422 90.1622 57.6179 89.8906 57.5976C88.2122 57.4639 86.5338 57.3503 84.8514 57.2693C84.0447 57.2328 83.2339 57.1882 82.4231 57.1476C81.8109 57.1193 81.1947 57.0868 80.5826 57.0625C79.1799 57.0098 77.7812 56.9774 76.3785 56.949C75.8556 56.9368 75.3326 56.9287 74.8137 56.9206C74.8137 56.9206 75.7745 53.0531 76.1596 51.0991C76.4515 49.6356 76.7029 48.1639 76.9258 46.6883C77.0718 45.6991 77.2015 44.7099 77.315 43.7167C77.4326 42.6789 77.5258 41.637 77.5907 40.5911C77.6596 39.4763 77.7042 38.3574 77.7285 37.2425C77.7569 35.7466 77.7083 34.2547 77.5988 32.7628C77.5258 31.7777 77.4326 30.7966 77.3069 29.8156C77.1367 28.4737 76.8934 27.148 76.5731 25.8345C76.3177 24.7845 76.0258 23.7386 75.6367 22.7251C75.6164 22.7251 75.5961 22.7251 75.5759 22.7332C75.5556 22.7332 75.5353 22.7413 75.5191 22.7454C75.4542 22.7656 75.3975 22.7981 75.3367 22.8224C73.634 23.5359 72.0245 24.4237 70.4719 25.4129C70.3827 25.4697 70.2854 25.5143 70.2489 25.6237C70.6219 27.9791 70.7962 30.3466 70.8164 32.7304C70.8489 36.1398 70.5975 39.529 70.1313 42.9059C69.7786 45.4478 69.3124 47.9694 68.7448 50.4747C68.2543 52.6477 67.6867 54.8004 67.0543 56.9328C65.526 56.949 63.9935 56.9976 62.4652 57.0463C60.4301 57.1152 58.3949 57.2085 56.3639 57.3382C54.572 57.4517 52.7761 57.5693 50.9842 57.7233C48.6572 57.926 46.3343 58.153 44.0194 58.4368C43.464 59.5882 42.9248 60.7476 42.4059 61.9152C41.6316 63.6584 40.9019 65.4178 40.2168 67.1935C40.2492 67.1894 40.2776 67.1854 40.31 67.1813C43.014 66.8002 45.7302 66.484 48.4464 66.2124C49.2248 66.1354 50.0031 66.0421 50.7856 65.9732C52.7153 65.8111 54.649 65.7016 56.5828 65.58C59.0963 65.4178 61.6138 65.3165 64.1354 65.2435C64.1679 65.2435 64.1962 65.2435 64.2287 65.2435C66.3732 65.1827 68.5178 65.1543 70.6664 65.1503C71.2056 65.1503 71.7448 65.1503 72.2881 65.1543C73.5124 65.1584 74.7407 65.1705 75.965 65.1908C77.3556 65.2151 78.742 65.2678 80.1326 65.3165C80.1447 65.3165 80.1569 65.3165 80.1691 65.3165C81.4988 65.3651 82.8285 65.4138 84.1582 65.4786C85.1798 65.5273 86.2014 65.6003 87.223 65.6773C87.4419 65.6935 87.6609 65.7097 87.8798 65.7259C89.4122 65.8354 90.9406 65.9489 92.473 66.0665C92.85 66.0948 93.223 66.1475 93.6 66.184C95.627 66.3624 97.65 66.5894 99.6689 66.8489C100.573 66.9624 101.473 67.084 102.377 67.2056C104.278 67.4692 106.176 67.7854 108.065 68.1137C109.885 68.434 111.701 68.7948 113.501 69.2043C115.086 69.5651 116.663 69.9583 118.228 70.384C120.284 70.9434 122.302 71.5961 124.297 72.334C126.02 72.9745 127.686 73.7286 129.3 74.6083C130.41 75.2164 131.464 75.8974 132.425 76.7245C133.297 77.4745 134.059 78.3177 134.566 79.3717C134.768 79.7893 134.862 80.2393 134.991 80.6771C134.996 79.8055 135.004 78.9339 135.008 78.0623C135.008 76.7691 135.008 75.4718 135.008 74.1785C135.008 73.7083 135.024 73.234 135 72.7678L134.987 72.7596Z" fill="#FF1100"/>
<path d="M83.8136 10.9156C83.5015 10.8143 83.1812 10.7413 82.8812 10.5994C82.8812 10.5589 82.8853 10.5183 82.8893 10.4778C83.2623 10.5913 83.615 10.7494 83.9434 10.9602C83.8988 10.944 83.8542 10.9318 83.8096 10.9156H83.8136Z" fill="#404A5A"/>
<path d="M82.7231 10.5347C82.7231 10.5347 82.7514 10.5469 82.7595 10.559C82.7595 10.559 82.7555 10.559 82.7514 10.559C82.719 10.5793 82.6987 10.5631 82.6785 10.5347C82.6947 10.5307 82.7068 10.5266 82.7231 10.5347Z" fill="#404A5A"/>
<path d="M45.033 34.1169C45.033 34.1169 45.0249 34.1494 45.0127 34.1615C45.0127 34.1615 45.0087 34.1656 45.0046 34.1696C44.9965 34.1778 44.9843 34.1818 44.9722 34.1818C44.9722 34.1778 44.9722 34.1737 44.9722 34.1696V34.1575C44.9722 34.1575 44.9965 34.1332 45.0087 34.1251C45.0168 34.1251 45.0249 34.1169 45.033 34.1169Z" fill="#404A5A"/>
<path d="M46.7032 31.9885C46.7032 31.9885 46.6749 32.0169 46.6586 32.025C46.6384 32.0371 46.6181 32.0452 46.5897 32.0533C46.5897 32.0371 46.5897 32.025 46.5897 32.0128C46.5897 32.0006 46.5897 31.9885 46.5938 31.9804C46.6019 31.9601 46.61 31.9398 46.6222 31.9236C46.6343 31.9074 46.6546 31.8952 46.6708 31.879C46.6911 31.8669 46.7113 31.8547 46.7316 31.8425C46.7357 31.8709 46.7357 31.8952 46.7316 31.9195C46.7316 31.9398 46.7194 31.952 46.7113 31.9682C46.7113 31.9723 46.7032 31.9804 46.7032 31.9844V31.9885Z" fill="#404A5A"/>
<path d="M47.3396 31.133C47.3396 31.133 47.3315 31.133 47.3315 31.1371C47.3274 31.1371 47.3193 31.1371 47.3153 31.1371C47.3112 31.1371 47.3072 31.1371 47.2991 31.1371C47.3193 31.1128 47.3396 31.0844 47.3599 31.0601C47.3599 31.0682 47.3599 31.0722 47.3599 31.0803C47.3599 31.1006 47.3518 31.1128 47.3356 31.1249L47.3396 31.133Z" fill="#215CB5"/>
<path d="M47.6681 30.6345C47.6681 30.6142 47.6843 30.598 47.7005 30.5899C47.7086 30.5899 47.7167 30.5858 47.7248 30.5818C47.7248 30.5939 47.7208 30.598 47.7167 30.6061C47.7167 30.6142 47.7167 30.6223 47.7086 30.6304C47.7086 30.6345 47.7005 30.6385 47.6965 30.6426C47.6884 30.6467 47.6762 30.6507 47.6681 30.6548C47.6681 30.6467 47.6681 30.6426 47.6681 30.6345Z" fill="#215CB5"/>
<path d="M76.4475 7.66832C76.5245 7.63589 76.5732 7.66832 76.6178 7.72913C76.5489 7.74535 76.4759 7.76156 76.4475 7.67237V7.66832Z" fill="#FEC35E"/>
<path d="M76.4435 7.66846H76.4475L76.4435 7.67251V7.66846Z" fill="#FDBF41"/>
<path d="M57.2355 20.4264C57.2598 20.4062 57.2801 20.3859 57.3044 20.3616C57.3044 20.3656 57.3044 20.3737 57.3044 20.3778C57.3044 20.394 57.2963 20.4021 57.2882 20.4143H57.2841C57.2841 20.4143 57.2598 20.4264 57.2355 20.4264Z" fill="#404A5A"/>
<path d="M57.7098 19.948C57.7301 19.9358 57.7544 19.9277 57.7828 19.9277C57.7828 19.9642 57.7747 19.9845 57.7585 19.9926C57.7341 20.0088 57.6895 19.9967 57.6571 20.0007C57.6733 19.9764 57.6895 19.9602 57.7098 19.948Z" fill="#404A5A"/>
<path d="M58.0138 19.7455C58.0138 19.7455 58.0057 19.7779 57.9936 19.7901C57.9936 19.7901 57.9855 19.7941 57.9814 19.7982C57.9733 19.8022 57.9611 19.8063 57.949 19.8063C57.9692 19.7819 57.9936 19.7536 58.0138 19.7292C58.0138 19.7374 58.0138 19.7414 58.0138 19.7495V19.7455Z" fill="#404A5A"/>
<path d="M62.0314 16.5589C62.0314 16.5589 62.0233 16.5751 62.0193 16.5832C62.0071 16.5954 61.9909 16.5994 61.9666 16.5994C61.9868 16.5751 62.0111 16.5548 62.0355 16.5305C62.0355 16.5427 62.0355 16.5508 62.0355 16.563L62.0314 16.5589Z" fill="#404A5A"/>
<path d="M61.9584 16.6035C61.9584 16.6035 61.9584 16.6157 61.9584 16.6197C61.9584 16.6359 61.9503 16.6441 61.9422 16.6481C61.9341 16.6522 61.926 16.6522 61.9098 16.6481C61.9057 16.6481 61.8976 16.6481 61.8936 16.64C61.9179 16.6278 61.9381 16.6157 61.9625 16.6035H61.9584Z" fill="#404A5A"/>
<path d="M82.861 10.4578C80.8583 9.56588 78.8516 8.67805 76.8489 7.78212C76.7678 7.74563 76.6867 7.77401 76.6137 7.72941C76.5448 7.74563 76.4719 7.76184 76.4435 7.67266C76.3624 7.70914 76.2854 7.67266 76.2083 7.64428C74.453 7.11726 72.657 6.9551 70.8287 7.04834C68.4084 7.17401 66.0895 7.7659 63.8355 8.63751C63.126 8.90913 62.4288 9.20913 61.7477 9.52939C61.5774 9.61047 61.4071 9.69155 61.2369 9.77669C61.0382 9.87398 60.8396 9.97128 60.645 10.0767C60.3815 10.2105 60.122 10.3483 59.8585 10.4902C58.4923 11.2361 57.1666 12.0672 55.8815 12.9591C55.614 13.1456 55.3464 13.3321 55.0829 13.5226L54.9248 13.6361C54.2924 14.0983 53.6721 14.5685 53.064 15.055C51.5397 16.2672 50.0762 17.5563 48.6613 18.9063C44.733 22.6563 41.2425 26.7954 38.048 31.1819C37.9669 31.2954 37.8858 31.413 37.8048 31.5265C37.8048 31.5265 37.7967 31.5548 37.7885 31.563C37.7804 31.5711 37.7683 31.5751 37.7521 31.5792C37.4642 31.9886 37.1804 32.394 36.8926 32.8035C36.4142 33.4846 35.944 34.1656 35.4818 34.8589C35.044 35.5156 34.6102 36.1805 34.1845 36.8453C33.844 37.3724 33.5116 37.9034 33.1832 38.4386C32.8913 38.9169 32.5994 39.3913 32.3116 39.8696C31.9062 40.5466 31.5048 41.2276 31.1075 41.9168C30.9089 42.2614 30.7143 42.602 30.5197 42.9506C30.4994 42.9911 30.4711 43.0276 30.4467 43.0682C30.4467 43.1128 30.4305 43.1492 30.4143 43.1857C30.3981 43.2101 30.3819 43.2384 30.3697 43.2628C30.1873 43.5871 30.0089 43.9155 29.8305 44.2438C29.1576 45.4722 28.5008 46.7127 27.8684 47.9614C27.6008 48.4884 27.3373 49.0195 27.0778 49.5505C25.6752 52.4208 24.3738 55.3356 23.1779 58.291C22.5414 59.8599 21.9374 61.441 21.3617 63.0301C21.0576 63.8734 20.7576 64.7206 20.4698 65.572C19.9387 67.1449 19.4522 68.7301 18.9779 70.3192C18.7833 70.9719 18.5928 71.6287 18.4104 72.2854C18.4063 72.3017 18.4023 72.3179 18.3982 72.3341C18.1104 73.3638 17.8428 74.3976 17.5915 75.4354C17.3604 76.3678 17.1374 77.3043 16.9307 78.2448C16.7523 79.0475 16.5901 79.8543 16.428 80.661C16.3915 80.8516 16.355 81.0421 16.3185 81.2367C16.3023 81.3137 16.2901 81.3907 16.2739 81.4678C16.2698 81.4962 16.2617 81.5245 16.2577 81.557C16.2293 81.711 16.1969 81.861 16.1685 82.0151C15.9374 83.2759 15.7307 84.5407 15.5523 85.8137C15.378 87.042 15.2239 88.2664 15.0942 89.4988C15.0658 89.7744 15.0415 90.0501 15.0131 90.3258C15.0131 90.3461 15.009 90.3663 15.009 90.3866C14.9888 90.5974 14.9766 90.7474 14.9604 90.8974C14.9036 91.5825 14.855 92.2717 14.8145 92.9569C14.7739 93.646 14.7415 94.3352 14.7212 95.0244C14.7212 95.1136 14.7212 95.2028 14.7131 95.292C14.6726 96.6176 14.6645 97.9392 14.705 99.2608C14.7455 100.509 14.8145 101.754 14.932 102.999C15.0455 104.239 15.2036 105.476 15.4185 106.712C15.5239 107.316 15.6374 107.916 15.7671 108.512C16.1969 110.523 16.7766 112.493 17.5712 114.399C17.6279 114.532 17.6806 114.662 17.7415 114.796C17.7982 114.926 17.859 115.059 17.9158 115.189C18.0536 115.497 18.1996 115.801 18.3496 116.101C18.6009 116.604 18.8685 117.094 19.1523 117.573C19.9306 118.886 20.8468 120.107 21.9333 121.209C22.2171 121.501 22.513 121.777 22.8171 122.04C23.3887 122.539 23.9968 122.997 24.6454 123.407C24.7671 123.484 24.9089 123.528 24.9981 123.646C25.0103 123.662 25.0225 123.682 25.0306 123.702C25.0914 123.69 25.136 123.702 25.1522 123.767C25.4035 123.828 25.6062 123.998 25.8373 124.1C27.0697 124.647 28.2981 125.194 29.5305 125.742C30.2319 126.054 30.9373 126.358 31.6427 126.666L31.7319 126.585C31.5048 126.443 31.2697 126.309 31.0508 126.159C30.8197 126.001 30.6008 125.835 30.3819 125.665C28.5454 124.238 27.1062 122.458 25.9265 120.443C25.2089 119.219 24.6252 117.934 24.1225 116.612C24.1103 116.58 24.0981 116.551 24.086 116.519C23.413 114.731 22.9225 112.89 22.5536 111.017C22.3549 110.016 22.1968 109.007 22.059 107.993C22.0509 107.92 22.0387 107.851 22.0306 107.778C21.9657 107.28 21.909 106.777 21.8563 106.278C21.7792 105.541 21.7225 104.807 21.682 104.065C21.6738 103.882 21.6617 103.7 21.6536 103.518C21.6536 103.473 21.6495 103.424 21.6455 103.38C21.609 102.358 21.5725 101.336 21.5765 100.315C21.5765 100.258 21.5765 100.201 21.5765 100.149C21.5765 99.9662 21.5765 99.7838 21.5847 99.6014C21.609 98.7987 21.6333 98 21.6657 97.2014C21.682 96.8 21.7022 96.4028 21.7265 96.0014C21.7509 95.6001 21.7752 95.2028 21.8036 94.8014C21.909 93.4028 22.0509 92.0123 22.2211 90.6217C22.2819 90.115 22.3468 89.6123 22.4198 89.1055C22.4968 88.542 22.5819 87.9785 22.6711 87.4191C22.7401 86.9772 22.813 86.5353 22.89 86.0934C22.9752 85.5907 23.0684 85.0921 23.1617 84.5894C23.2792 83.9569 23.4049 83.3286 23.5346 82.6961C23.6846 81.9786 23.8387 81.257 24.0008 80.5435C24.1468 79.907 24.2968 79.2705 24.4549 78.634C24.6292 77.9327 24.8076 77.2313 24.9941 76.534C25.0387 76.3719 25.0873 76.2097 25.136 76.0476C25.1846 75.8854 25.2333 75.7232 25.2738 75.5611C25.3589 75.2205 25.4279 74.88 25.5495 74.5476C25.5779 74.5111 25.6225 74.4746 25.6265 74.4341C25.7238 73.6314 26.0116 72.8814 26.2589 72.1273C26.3684 71.7908 26.4738 71.4503 26.5792 71.1098C26.7251 70.6355 26.8711 70.1611 27.0211 69.6868C27.1427 69.2976 27.2684 68.9084 27.4022 68.5233C27.4549 68.3733 27.5035 68.2193 27.5562 68.0652C27.6251 67.8706 27.6941 67.676 27.763 67.4814C28.0549 66.6706 28.3386 65.8558 28.6346 65.045C28.7562 64.7125 28.8819 64.3761 29.0076 64.0436C29.4413 62.9044 29.8873 61.7734 30.3494 60.6504C30.4792 60.3302 30.6129 60.0139 30.7467 59.6977C30.8562 59.4423 30.9616 59.191 31.067 58.9356C31.3265 58.3356 31.59 57.7356 31.8535 57.1356C32.0602 56.6653 32.271 56.1991 32.4859 55.7288C32.6481 55.368 32.8143 55.0153 32.9805 54.6545C33.4264 53.6978 33.8805 52.7491 34.3548 51.8046C34.4359 51.6383 34.5332 51.4802 34.6264 51.3221C34.7197 51.164 34.8129 51.0019 34.894 50.8316C36.2723 47.9087 37.8899 45.1154 39.5561 42.3506C39.7061 42.1033 39.852 41.856 40.002 41.6087C40.3507 41.0331 40.6831 40.4494 41.0764 39.9102C41.3236 39.5737 41.5506 39.2331 41.7776 38.8845C42.0046 38.5399 42.2276 38.1913 42.4587 37.8507C42.929 37.1697 43.3668 36.4643 43.833 35.7791C43.8938 35.6899 43.9546 35.6008 44.0154 35.5116C44.3276 35.0616 44.6519 34.6197 44.9681 34.1737C44.9681 34.1697 44.9681 34.1656 44.9681 34.1616V34.1494C44.9681 34.1494 44.9924 34.1251 45.0046 34.117C45.0127 34.117 45.0208 34.1089 45.0289 34.1089C45.487 33.4927 45.9451 32.8724 46.4032 32.2562C46.4235 32.2278 46.4478 32.2035 46.4681 32.1792C46.4803 32.167 46.4884 32.1548 46.4965 32.1467C46.5249 32.1143 46.5532 32.0859 46.5816 32.0535C46.5816 32.0373 46.5816 32.0251 46.5816 32.013C46.5816 32.0008 46.5816 31.9886 46.5857 31.9805C46.5938 31.9562 46.6019 31.94 46.6141 31.9238C46.6262 31.9075 46.6465 31.8954 46.6627 31.8792C46.683 31.867 46.7032 31.8548 46.7235 31.8427C46.7357 31.8305 46.7438 31.8184 46.7519 31.8062C46.9303 31.5832 47.1127 31.3603 47.2911 31.1373C47.3113 31.113 47.3316 31.0846 47.3519 31.0603C47.3519 31.044 47.36 31.0319 47.3681 31.0157C47.3722 31.0035 47.3803 30.9873 47.3884 30.9751C47.4046 30.9508 47.4249 30.9265 47.4451 30.9062C47.4451 30.9022 47.4532 30.8981 47.4573 30.894C47.5343 30.8211 47.6316 30.7603 47.6519 30.6508C47.6519 30.6427 47.6519 30.6386 47.6519 30.6305C47.6519 30.6103 47.6681 30.594 47.6843 30.5859C47.6924 30.5859 47.7005 30.5819 47.7086 30.5778C47.7613 30.5373 47.81 30.4968 47.8505 30.4481C47.8627 30.4359 47.8708 30.4238 47.8789 30.4157C47.9113 30.3792 47.9397 30.3386 47.9681 30.2981C48.0046 30.2454 48.0411 30.1886 48.0776 30.1319C48.1059 30.0913 48.1343 30.0468 48.1627 30.0062C48.183 29.9778 48.2032 29.9495 48.2235 29.9251C48.3613 29.7549 48.5032 29.5846 48.6411 29.4184C49.614 28.2306 50.6154 27.0711 51.6451 25.936C52.4518 25.0441 53.287 24.1806 54.1302 23.3252C54.2761 23.1752 54.4261 23.0252 54.5721 22.8793C54.8478 22.6036 55.1356 22.3482 55.4194 22.0847C55.5329 21.9793 55.6464 21.8779 55.7559 21.7685C55.7802 21.7482 55.8004 21.7239 55.8248 21.7036C56.1775 21.3631 56.5383 21.0225 56.895 20.686C56.9031 20.6779 56.9112 20.6739 56.9194 20.6658C57.0126 20.5806 57.118 20.5036 57.2153 20.4266C57.2396 20.4063 57.2599 20.386 57.2842 20.3617C57.2923 20.3536 57.2964 20.3496 57.3045 20.3414C57.4139 20.2279 57.5275 20.1185 57.6369 20.005C57.6531 19.9806 57.6693 19.9644 57.6896 19.9523C57.7099 19.9401 57.7342 19.932 57.7626 19.932C57.795 19.9279 57.8234 19.9117 57.8477 19.8955C57.8639 19.8833 57.8802 19.8671 57.8964 19.8509C57.9085 19.8387 57.9166 19.8225 57.9288 19.8063C57.9491 19.782 57.9734 19.7536 57.9937 19.7293C58.2815 19.4739 58.5693 19.2225 58.8653 18.9752C58.9099 18.9388 58.9545 18.9023 58.9991 18.8617C59.2828 18.6225 59.5707 18.3874 59.8626 18.1523C60.5153 17.6293 61.1882 17.1226 61.8734 16.6442C61.8977 16.632 61.9179 16.6199 61.9423 16.6077H61.9463C61.9666 16.5793 61.9909 16.555 62.0152 16.5347C62.1693 16.4212 62.3274 16.3036 62.4815 16.1942C62.7936 15.9672 63.1139 15.7483 63.4301 15.5334C63.5882 15.428 63.7504 15.3185 63.9125 15.2172C64.0747 15.1118 64.2368 15.0064 64.399 14.905C64.8895 14.5969 65.3841 14.2969 65.8868 14.0091C66.4341 13.6929 66.9936 13.3888 67.553 13.0969C69.2395 12.2294 70.9827 11.4956 72.807 10.9524C72.9449 10.9118 73.0868 10.8713 73.2246 10.8307C74.1976 10.5591 75.1746 10.3524 76.1678 10.2186C76.7313 10.1415 77.3029 10.0888 77.8745 10.0645C78.3043 10.0443 78.734 10.0402 79.1678 10.0524C79.3137 10.0564 79.4556 10.0605 79.6016 10.0686C80.0353 10.0929 80.4651 10.1375 80.8948 10.1983C81.4907 10.2794 82.0786 10.3929 82.6664 10.5429C82.6826 10.5388 82.6948 10.5348 82.711 10.5429C82.7272 10.5429 82.7394 10.5551 82.7475 10.5672C82.7596 10.5713 82.7758 10.5753 82.788 10.5794C82.8164 10.5875 82.8407 10.5956 82.8691 10.6078C82.8691 10.5672 82.8731 10.5267 82.8772 10.4861C82.8691 10.478 82.861 10.4699 82.8488 10.4659L82.861 10.4578Z" fill="#F1ECE2"/>
<path d="M76.4475 7.66848C76.4191 7.5428 76.2975 7.53064 76.2083 7.4901C74.4813 6.72389 72.7543 5.95363 71.0192 5.19553C70.557 4.99283 70.1111 4.7577 69.6327 4.59552C69.58 4.62795 69.5232 4.62389 69.4665 4.60362C68.2787 4.21444 67.0462 4.01985 65.8057 3.94282C64.6665 3.87391 63.5233 3.94282 62.3922 4.09282C61.4598 4.2185 60.5436 4.41309 59.6355 4.65633C57.872 5.13067 56.1774 5.77525 54.5437 6.582C53.9153 6.89416 53.3072 7.24686 52.6869 7.57523C52.4802 7.68469 52.2653 7.78199 52.0667 7.89956C50.291 8.95765 48.5681 10.0968 46.9343 11.3657C46.5248 11.682 46.1073 11.9901 45.7262 12.3346C45.4789 12.5576 45.2397 12.7846 44.9721 12.9792C44.9235 13.0157 44.8708 13.0522 44.81 13.0887C44.7654 13.1292 44.7208 13.1657 44.6762 13.2022V13.2103C44.6559 13.263 44.6357 13.3117 44.6032 13.34C44.583 13.3563 44.5627 13.3644 44.5384 13.3684C44.5262 13.3684 44.51 13.3684 44.4978 13.3684H44.4897C44.4897 13.3684 44.4654 13.3603 44.4492 13.3563C44.437 13.3644 44.4249 13.3725 44.4167 13.3806C44.2749 13.4819 44.1978 13.6563 44.0681 13.7576C44.0478 13.7738 44.0276 13.786 44.0073 13.7981C43.6668 13.9765 43.46 14.2968 43.1559 14.5157C42.8641 14.7265 42.6208 15.0062 42.3533 15.2535C41.0275 16.4738 39.7748 17.767 38.5343 19.0724C38.1532 19.4738 37.8127 19.9034 37.4478 20.321C37.237 20.5602 37.0019 20.771 36.7951 21.0062C36.2316 21.6508 35.6843 22.3116 35.1289 22.9602C34.7154 23.4426 34.3262 23.9413 33.9573 24.4561C33.6654 24.8656 33.3168 25.2305 33.0046 25.6237C32.06 26.8359 31.1641 28.0844 30.2682 29.329C29.3844 30.5574 28.5736 31.8345 27.7344 33.0952C26.9804 34.2263 26.2871 35.3979 25.5696 36.5574C25.306 36.9871 25.0709 37.433 24.8033 37.8628C24.3452 38.6006 23.9196 39.3587 23.5182 40.1289C23.2669 40.4289 23.1169 40.7938 22.9263 41.1303C22.529 41.8357 22.148 42.5492 21.8034 43.283C21.6939 43.5182 21.5358 43.7168 21.4223 43.9519C21.102 44.6046 20.7777 45.2573 20.4412 45.906C19.6021 47.5357 18.8642 49.21 18.098 50.8762C17.2669 52.6762 16.5291 54.5207 15.7994 56.3653C15.3048 57.618 14.8062 58.8707 14.4129 60.1599C14.348 60.3707 14.2264 60.5612 14.1535 60.768C13.7724 61.8788 13.3913 62.9855 13.0305 64.1004C12.694 65.126 12.3778 66.1598 12.0737 67.1936C11.7819 68.1909 11.5021 69.1882 11.2346 70.1895C10.7116 72.1314 10.2332 74.0854 9.82377 76.0516C9.71837 76.5746 9.61296 77.0976 9.51161 77.6205C9.16297 79.4002 8.85486 81.1921 8.60351 82.9921C8.36838 84.7029 8.17379 86.4177 8.01974 88.1366C8.00757 88.2947 7.99541 88.4528 7.98325 88.6109C7.91028 89.5515 7.85352 90.4961 7.81704 91.4447C7.77244 92.5271 7.76433 93.6095 7.75623 94.692C7.75623 95.2068 7.80893 95.7257 7.80487 96.2447C7.79677 97.0352 7.86568 97.8217 7.91028 98.6081C7.92649 98.896 7.93866 99.1879 7.96703 99.4798C7.97109 99.5284 7.9792 99.5811 7.98325 99.6298C8.07649 100.388 8.1373 101.15 8.24271 101.904C8.34406 102.638 8.44541 103.372 8.57919 104.097C8.77378 105.111 8.95621 106.124 9.26837 107.109C9.36567 107.418 9.41837 107.742 9.50756 108.058C9.69404 108.747 9.91701 109.428 10.1603 110.097C10.513 111.058 10.9184 111.999 11.3562 112.923C12.0332 114.342 12.8724 115.663 13.8575 116.888C14.7899 118.051 15.8561 119.077 17.0764 119.936C17.1251 119.973 17.1778 120.005 17.2305 120.038C17.3196 120.094 17.4088 120.151 17.498 120.208C17.5467 120.24 17.5994 120.273 17.6521 120.305C17.8223 120.411 17.9886 120.52 18.1507 120.638C18.1507 120.638 18.1548 120.638 18.1588 120.642C18.2075 120.678 18.2561 120.715 18.3048 120.755C18.3048 120.763 18.3129 120.771 18.3169 120.78C18.3453 120.82 18.4021 120.824 18.4467 120.844C20.5547 121.777 22.6588 122.709 24.7669 123.642C24.852 123.678 24.9331 123.735 25.0344 123.711C25.0223 123.69 25.0142 123.674 25.002 123.654C24.9128 123.536 24.7709 123.492 24.6493 123.415C24.0047 123.005 23.3926 122.547 22.8209 122.048C22.5169 121.785 22.2209 121.505 21.9372 121.217C20.8507 120.115 19.9345 118.89 19.1561 117.581C18.8723 117.103 18.6048 116.612 18.3534 116.109C18.2034 115.809 18.0575 115.505 17.9196 115.197C17.8588 115.063 17.8021 114.934 17.7453 114.8C17.6886 114.666 17.6318 114.536 17.575 114.403C16.7805 112.497 16.2048 110.527 15.771 108.516C15.6413 107.92 15.5278 107.32 15.4224 106.716C15.2116 105.484 15.0534 104.247 14.9359 103.003C14.8183 101.762 14.7494 100.514 14.7089 99.2649C14.6683 97.9433 14.6764 96.6176 14.717 95.296C14.721 95.2068 14.721 95.1176 14.7251 95.0285C14.7494 94.3393 14.7818 93.6501 14.8183 92.9609C14.8589 92.2758 14.9075 91.5866 14.9643 90.9015C14.9764 90.7515 14.9926 90.6015 15.0129 90.3907C15.0129 90.3704 15.017 90.3501 15.017 90.3298C15.0413 90.0542 15.0656 89.7785 15.098 89.5028C15.2237 88.2704 15.3818 87.042 15.5561 85.8177C15.7386 84.5448 15.9453 83.2799 16.1724 82.0191C16.2007 81.8651 16.2332 81.7151 16.2615 81.561C16.2656 81.5326 16.2737 81.5043 16.2778 81.4718C16.294 81.3948 16.3061 81.3178 16.3224 81.2407C16.3588 81.0462 16.3953 80.8556 16.4318 80.6651C16.5899 79.8583 16.7561 79.0516 16.9345 78.2489C17.1413 77.3084 17.3642 76.3719 17.5953 75.4395C17.8507 74.4016 18.1183 73.3679 18.4021 72.3381C18.4021 72.3219 18.4102 72.3057 18.4142 72.2895C18.5967 71.6327 18.7872 70.976 18.9818 70.3233C19.4561 68.7341 19.9466 67.149 20.4737 65.576C20.7615 64.7247 21.0615 63.8774 21.3655 63.0342C21.9412 61.4409 22.5453 59.8599 23.1817 58.295C24.3777 55.3397 25.675 52.4248 27.0817 49.5546C27.3412 49.0235 27.6047 48.4924 27.8722 47.9654C28.5047 46.7168 29.1614 45.4762 29.8344 44.2479C30.0128 43.9195 30.1952 43.5911 30.3736 43.2668C30.3898 43.2425 30.406 43.2141 30.4182 43.1898C30.4384 43.1533 30.4546 43.1168 30.4506 43.0722C30.4749 43.0317 30.5033 42.9911 30.5236 42.9547C30.7182 42.6101 30.9127 42.2655 31.1114 41.9209C31.5087 41.2357 31.906 40.5546 32.3154 39.8736C32.6033 39.3952 32.8952 38.9168 33.187 38.4425C33.5154 37.9074 33.8479 37.3763 34.1884 36.8493C34.6141 36.1844 35.0478 35.5195 35.4857 34.8628C35.9478 34.1696 36.4181 33.4885 36.8965 32.8074C37.1803 32.398 37.4681 31.9926 37.7559 31.5831C37.7559 31.575 37.7559 31.5668 37.7559 31.5587C37.7559 31.5547 37.76 31.5466 37.764 31.5426C37.7721 31.5304 37.7884 31.5263 37.8046 31.5263C37.8856 31.4128 37.9627 31.2953 38.0478 31.1818C41.2425 26.7953 44.733 22.6602 48.6613 18.9062C50.0762 17.5562 51.5356 16.267 53.064 15.0549C53.6721 14.5684 54.2923 14.0981 54.9247 13.636L55.0829 13.5225C55.3464 13.3319 55.6139 13.1454 55.8815 12.959C57.1707 12.0671 58.4923 11.236 59.8585 10.4901C60.1179 10.3482 60.3815 10.2103 60.645 10.0766C60.8436 9.97521 61.0382 9.87386 61.2368 9.77656C61.4071 9.69143 61.5774 9.61035 61.7477 9.52927C62.4328 9.209 63.126 8.90901 63.8355 8.63739C66.0895 7.76983 68.4084 7.17794 70.8286 7.04821C72.6529 6.95092 74.4489 7.11308 76.2083 7.64415C76.2853 7.66848 76.3624 7.70496 76.4434 7.67253L76.4475 7.66848Z" fill="#FDBF41"/>
<path d="M37.7641 31.5384C37.7641 31.5384 37.7884 31.5222 37.8047 31.5222C37.8047 31.5384 37.7965 31.5506 37.7884 31.5587C37.7803 31.5668 37.7682 31.5709 37.752 31.5749C37.752 31.5668 37.752 31.5587 37.752 31.5506C37.752 31.5465 37.756 31.5384 37.7601 31.5344L37.7641 31.5384Z" fill="#C18B00"/>
<path d="M44.4856 13.2427C44.51 13.2144 44.5383 13.1981 44.5789 13.1941C44.6032 13.1941 44.6356 13.1941 44.6681 13.2022V13.2103C44.6478 13.263 44.6275 13.3117 44.5951 13.34C44.5748 13.3563 44.5546 13.3644 44.5302 13.3684C44.5181 13.3684 44.5019 13.3684 44.4897 13.3684H44.4816C44.4816 13.3684 44.4573 13.3603 44.441 13.3563C44.4491 13.3076 44.4654 13.2671 44.4897 13.2427H44.4856Z" fill="#C18B00"/>
<path d="M69.2516 4.42942C67.6827 3.72808 66.1098 3.04701 64.549 2.33756C62.7612 1.5227 60.9044 1.02 58.9382 0.926758C58.4436 0.926758 57.945 0.926759 57.4504 0.930813C57.2558 0.930813 57.0612 0.930813 56.8707 0.930813C55.8815 0.983515 54.9045 1.12946 53.9356 1.33622C51.0775 1.94432 48.4181 3.06322 45.8681 4.46591C43.3019 5.87671 40.9182 7.56318 38.652 9.41181C38.3642 9.64694 38.052 9.8618 37.8007 10.1456C37.7804 10.1537 37.7601 10.1699 37.748 10.1902V10.2145C37.748 10.2145 37.7399 10.2145 37.7358 10.2145C37.7277 10.2145 37.7237 10.2145 37.7237 10.2145C37.6588 10.2672 37.5939 10.3159 37.5291 10.3686C35.0196 12.5172 32.6886 14.8482 30.4832 17.309C27.8643 20.236 25.4481 23.3252 23.19 26.536C19.8252 31.3197 16.8455 36.3386 14.1901 41.5479C12.3982 45.0587 10.7685 48.6465 9.30098 52.3072C7.77262 56.1261 6.36993 59.9936 5.24291 63.9544C5.11724 64.3922 4.96319 64.826 4.83751 65.2639C3.91319 68.5273 3.11455 71.8192 2.48618 75.1516C1.95105 77.9772 1.52538 80.8151 1.24565 83.6772C1.0389 85.7528 0.897008 87.8326 0.905116 89.9204C0.905116 90.869 0.909168 91.8176 0.913222 92.7663C0.925384 92.896 0.92944 93.0257 0.933494 93.1555C0.937548 93.3582 0.933495 93.5568 0.925387 93.7595C0.933495 94.9149 1.03079 96.0622 1.14025 97.2135C1.32268 99.0905 1.60646 100.947 2.02402 102.784C2.54294 105.086 3.25239 107.32 4.26184 109.457C5.34426 111.743 6.71857 113.823 8.57531 115.562C9.65773 116.576 10.8496 117.431 12.1915 118.059C13.3834 118.619 14.5915 119.142 15.7996 119.673C16.6266 120.038 17.4455 120.431 18.2887 120.755C18.2401 120.719 18.1914 120.678 18.1428 120.642C18.1428 120.642 18.1387 120.642 18.1347 120.638C17.9725 120.52 17.8063 120.411 17.636 120.305C17.5833 120.273 17.5347 120.24 17.482 120.208C17.3928 120.151 17.3036 120.098 17.2144 120.038C17.1617 120.005 17.1131 119.969 17.0604 119.936C15.8401 119.073 14.778 118.051 13.8415 116.888C12.8563 115.663 12.0172 114.342 11.3401 112.923C10.8983 111.999 10.4929 111.058 10.1442 110.097C9.90097 109.428 9.678 108.747 9.49152 108.058C9.40638 107.746 9.34963 107.422 9.25233 107.109C8.94017 106.124 8.75369 105.111 8.56315 104.097C8.42531 103.372 8.32802 102.638 8.22667 101.904C8.12126 101.15 8.0564 100.388 7.96721 99.6297C7.96316 99.5811 7.95505 99.5284 7.95099 99.4797C7.92262 99.1919 7.91045 98.9 7.89424 98.6081C7.8537 97.8216 7.78478 97.0352 7.78883 96.2446C7.78883 95.7298 7.73613 95.2109 7.74019 94.6919C7.74829 93.6095 7.76046 92.5271 7.801 91.4447C7.83748 90.5001 7.89424 89.5555 7.96721 88.6109C7.97937 88.4528 7.99153 88.2947 8.0037 88.1366C8.15775 86.4177 8.35234 84.7029 8.58747 82.9921C8.83882 81.1921 9.14693 79.4002 9.49557 77.6205C9.59692 77.0975 9.70233 76.5746 9.80773 76.0516C10.2131 74.0813 10.6956 72.1314 11.2185 70.1895C11.4861 69.1881 11.7658 68.1868 12.0577 67.1936C12.3618 66.1557 12.678 65.126 13.0145 64.1004C13.3793 62.9855 13.7604 61.8747 14.1374 60.768C14.2063 60.5572 14.332 60.3666 14.3969 60.1599C14.7942 58.8707 15.2888 57.618 15.7833 56.3653C16.5131 54.5207 17.2509 52.6802 18.082 50.8762C18.8482 49.214 19.586 47.5357 20.4252 45.906C20.7576 45.2573 21.086 44.6046 21.4063 43.9519C21.5198 43.7208 21.6819 43.5181 21.7873 43.283C22.1319 42.5492 22.513 41.8357 22.9103 41.1304C23.1008 40.7939 23.2508 40.4291 23.5022 40.1291C23.9035 39.3588 24.3292 38.6007 24.7873 37.8629C25.0549 37.4372 25.29 36.9872 25.5535 36.5575C26.267 35.398 26.9603 34.2305 27.7184 33.0954C28.5575 31.8346 29.3683 30.5575 30.2521 29.3292C31.1481 28.0846 32.044 26.836 32.9886 25.6238C33.2967 25.2265 33.6453 24.8657 33.9413 24.4563C34.3102 23.9414 34.6994 23.4427 35.1129 22.9603C35.6683 22.3076 36.2156 21.6468 36.7791 21.0063C36.9858 20.7712 37.221 20.5603 37.4318 20.3212C37.7966 19.9076 38.1372 19.4739 38.5183 19.0725C39.7588 17.7671 41.0115 16.4739 42.337 15.2536C42.6046 15.0063 42.8479 14.7266 43.1397 14.5158C43.4438 14.2969 43.6465 13.9766 43.9911 13.7983C44.0114 13.7861 44.0357 13.7739 44.0519 13.7577C44.1816 13.6564 44.2587 13.482 44.4005 13.3807C44.4127 13.3726 44.4249 13.3645 44.433 13.3564C44.4411 13.3077 44.4573 13.2672 44.4816 13.2429C44.5059 13.2145 44.5343 13.1983 44.5749 13.1942C44.5992 13.1942 44.6316 13.1942 44.6641 13.2023C44.7086 13.1658 44.7532 13.1253 44.7978 13.0888C44.8586 13.0483 44.9073 13.0158 44.96 12.9793C45.2276 12.7847 45.4667 12.5618 45.714 12.3348C46.0951 11.9861 46.5167 11.6821 46.9221 11.3658C48.5559 10.0969 50.2789 8.95776 52.0545 7.89966C52.2572 7.7821 52.468 7.6848 52.6748 7.57534C53.295 7.24291 53.9031 6.89021 54.5315 6.58211C56.1653 5.77536 57.8639 5.13077 59.6234 4.65645C60.5315 4.41321 61.4477 4.22267 62.3801 4.09294C63.5112 3.93889 64.6544 3.87403 65.7936 3.94295C67.0382 4.01997 68.2665 4.21456 69.4543 4.60375C69.5152 4.62402 69.5679 4.62807 69.6206 4.59564C69.5192 4.48618 69.3652 4.48618 69.2395 4.42942H69.2516Z" fill="#FF1100"/>
<path d="M44.5302 12.7888C44.5302 12.7888 44.5099 12.7726 44.5018 12.7686C44.514 12.7767 44.5221 12.7807 44.5302 12.7888Z" fill="#FF1100"/>
<path d="M58.9382 0.922337H57.4504C57.2558 0.930446 57.0612 0.930444 56.8707 0.930444C56.8626 0.90612 56.8504 0.881796 56.8423 0.857472C57.5477 0.857472 58.2571 0.857473 58.9625 0.849365C58.9544 0.873689 58.9463 0.898013 58.9382 0.922337Z" fill="#FEC35E"/>
<path d="M37.7358 10.2184H37.7236V10.1941H37.752V10.2225C37.752 10.2225 37.7439 10.2225 37.7398 10.2225L37.7358 10.2184Z" fill="#C18B00"/>
<path opacity="0.48" d="M123.75 102.034C123.952 101.876 123.952 101.859 123.75 101.701C123.279 101.324 122.777 100.996 122.262 100.684C120.543 99.6419 118.707 98.8473 116.825 98.1582C116.396 98.0001 115.978 97.8095 115.52 97.7284C115.394 97.5866 115.208 97.5744 115.046 97.5217C113.29 96.9379 111.503 96.4595 109.711 96.0014C109.561 95.9893 109.415 95.9568 109.285 95.8839C108.446 95.7014 107.607 95.515 106.772 95.3325C105.219 94.996 103.658 94.7041 102.093 94.4406C100.934 94.246 99.7702 94.0636 98.6067 93.8893C97.6986 93.7555 96.7905 93.6177 95.8743 93.5528C95.7243 93.5285 95.5743 93.5001 95.4203 93.4798C92.2136 93.0866 89.0028 92.7907 85.7798 92.5677C83.6758 92.4258 81.5718 92.3123 79.4637 92.2312C76.711 92.1258 73.9543 92.0771 71.1975 92.0771C67.78 92.0771 64.3665 92.1623 60.9571 92.3285C57.0166 92.519 53.0842 92.819 49.164 93.2569C48.5235 93.3298 47.8748 93.3704 47.2424 93.5082C47.1127 93.4717 46.987 93.5082 46.8573 93.5204C44.064 93.865 41.283 94.2906 38.5182 94.8136C36.8845 95.1217 35.2588 95.4623 33.6453 95.8474L33.6129 95.9001C33.6129 95.9001 33.1953 101.908 34.1196 107.774C35.7129 108.151 37.3142 108.488 38.9196 108.788C40.3547 109.055 41.7938 109.311 43.2411 109.518C45.2681 109.809 47.2991 110.105 49.3383 110.316C51.3207 110.523 53.2991 110.738 55.2855 110.884C56.4612 110.969 57.6328 111.07 58.8085 111.139C60.5477 111.24 62.2909 111.326 64.0301 111.386C65.6192 111.443 67.2084 111.488 68.7976 111.508C71.3394 111.54 73.8854 111.528 76.4272 111.476C78.8758 111.423 81.3245 111.33 83.769 111.192C86.6839 111.03 89.5947 110.799 92.5014 110.499C96.9324 110.04 101.339 109.424 105.705 108.553C109.52 107.791 113.29 106.858 116.947 105.512C118.54 104.928 120.101 104.259 121.585 103.432C122.339 103.015 123.069 102.561 123.75 102.03V102.034Z" fill="url(#paint0_linear_769_1323)"/>
</g>
<path d="M182.92 47.9075L202.236 97.2516L221.431 47.9075H233.31L207.341 113.291H196.387L170.278 47.9075H182.92V47.9075Z" fill="#111827"/>
<path d="M258.233 100.648C261.891 103 266.333 104.427 271.016 104.427C284.201 104.427 294.512 93.8546 294.512 80.5488H305.728C305.728 99.603 290.332 114.617 270.755 114.617C251.439 114.617 236.425 99.7438 236.425 80.9508C236.425 61.7558 251.821 46.6208 271.398 46.6208C281.066 46.6208 292.02 50.2789 299.196 59.8061L258.233 100.648ZM251.178 93.332L283.799 60.5699C280.021 58.0976 275.699 56.7912 271.016 56.7912C257.972 56.7912 247.661 67.3635 247.661 80.5488C247.661 85.252 248.967 89.6739 251.178 93.332Z" fill="#111827"/>
<path d="M318.271 18.0193H330.531V113.311H318.271V18.0193V18.0193Z" fill="#111827"/>
<path d="M344.379 80.5488C344.379 61.2332 359.253 46.6208 378.971 46.6208C398.809 46.6208 413.682 61.2332 413.682 80.5488C413.682 100.005 398.809 114.617 378.971 114.617C359.253 114.617 344.379 99.9849 344.379 80.5488ZM378.971 103.643C392.015 103.643 401.804 93.7139 401.804 80.5488C401.804 67.5042 392.015 57.4545 378.971 57.4545C366.047 57.4545 356.258 67.5042 356.258 80.5488C356.258 93.734 366.047 103.643 378.971 103.643Z" fill="#111827"/>
<path d="M458.585 113.311C437.44 113.311 423.35 100.267 423.35 80.5491C423.35 60.9723 437.44 47.9277 458.585 47.9277H469.539V18.0398H481.8V113.331H458.585V113.311ZM458.585 102.337H469.539V58.7412H458.585C444.756 58.7412 435.611 67.4845 435.611 80.529C435.611 93.7344 444.736 102.337 458.585 102.337Z" fill="#111827"/>
<path d="M499.829 47.9068H512.09V66.8405L532.33 46.6003L540.028 54.2984L512.09 82.0959V113.29H499.829V47.9068Z" fill="#111827"/>
<path d="M540.812 80.5488C540.812 61.2332 555.685 46.6208 575.403 46.6208C595.241 46.6208 610.115 61.2332 610.115 80.5488C610.115 100.005 595.241 114.617 575.403 114.617C555.685 114.617 540.812 99.9849 540.812 80.5488ZM575.403 103.643C588.448 103.643 598.236 93.7139 598.236 80.5488C598.236 67.5042 588.448 57.4545 575.403 57.4545C562.479 57.4545 552.691 67.5042 552.691 80.5488C552.691 93.734 562.479 103.643 575.403 103.643Z" fill="#111827"/>
<path d="M623.943 47.9068H635.942V55.7456C646.515 47.7862 651.077 46.6003 657.087 46.6003C664.926 46.6003 671.699 50.6403 674.975 57.1726C686.975 47.9068 691.819 46.6003 698.07 46.6003C709.285 46.6003 718.169 54.7004 718.169 66.961V113.29H705.909V68.2676C705.909 62.2578 701.607 57.8158 696.12 57.8158C691.939 57.8158 688.804 58.7203 677.186 68.3882V113.29H664.926V68.2676C664.926 62.2578 660.624 57.8158 655.137 57.8158C650.957 57.8158 647.821 58.7203 636.204 68.3882V113.29H623.943V47.9068V47.9068Z" fill="#111827"/>
<path d="M753.163 100.648C756.821 103 761.263 104.427 765.946 104.427C779.131 104.427 789.442 93.8546 789.442 80.5488H800.658C800.658 99.603 785.261 114.617 765.685 114.617C746.369 114.617 731.355 99.7438 731.355 80.9508C731.355 61.7558 746.751 46.6208 766.328 46.6208C775.996 46.6208 786.95 50.2789 794.125 59.8061L753.163 100.648ZM746.128 93.332L778.749 60.5699C774.971 58.0976 770.649 56.7912 765.966 56.7912C752.921 56.7912 742.61 67.3635 742.61 80.5488C742.59 85.252 743.897 89.6739 746.128 93.332Z" fill="#111827"/>
<defs>
<linearGradient id="paint0_linear_769_1323" x1="78.9095" y1="94.3105" x2="78.3464" y2="108.853" gradientUnits="userSpaceOnUse">
<stop offset="0.16" stop-color="#191919"/>
<stop offset="0.97" stop-color="#191919" stop-opacity="0"/>
</linearGradient>
<clipPath id="clip0_769_1323">
<rect width="134.593" height="131.35" fill="white" transform="translate(0.657715 0.642822)"/>
</clipPath>
</defs>
</svg>
