<svg width="932" height="558" viewBox="0 0 932 558" fill="none" xmlns="http://www.w3.org/2000/svg">
<g style="mix-blend-mode:plus-darker" opacity="0.2">
<path d="M930.105 561.154C911.511 531.093 874.769 544.296 846.163 545.535C788.013 544.805 741.894 504.527 691.58 480.79C747.806 476.182 783.357 426.849 802.809 378.421C810.342 355.128 783.119 346.66 773.853 329.421C767.433 301.807 757.405 276.767 735.601 255.857C673.415 204.697 621.892 195.259 576.87 122.601C527.557 91.9682 460.952 131.546 416.184 89.4578C330.303 5.70983 490.432 136.329 565.443 40.1242C617.633 10.8895 641.694 83.5314 685.175 78.9555C696.411 74.3956 691.5 55.9491 680.106 60.5567C535.948 -58.0346 558.928 99.8171 443.773 50.0386C392.68 33.9277 334.085 45.5422 287.807 16.7682C282.436 -10.6076 249.746 -14.4526 237.159 -35.3777C198.207 -59.7664 232.026 2.73869 251.176 8.49031C241.148 60.6362 104.412 6.37715 144.826 49.2283C204.103 42.7934 179.613 69.6131 146.907 90.7607C124.944 78.0817 99.6759 77.5891 74.9318 82.8005C42.4641 72.2983 17.2114 28.192 -23.5679 37.6933C-37.4894 49.0535 -98.7537 35.4689 -72.2615 62.4792C-15.6536 60.9539 12.269 47.6076 56.2903 98.5301C46.4371 124.063 -10.9654 167.947 -48.312 158.573C-96.7831 179.053 38.6658 187.442 51.0299 192.256C82.1786 178.385 131.953 159.907 126.581 117.946C121.83 103.424 135.64 106.999 145.366 109.843C164.182 112.432 174.56 97.7674 183.491 83.7538C204.135 56.1556 246.249 51.1984 265.447 22.202C276.635 78.8125 250.985 75.4124 218.883 102.55C197.444 150.914 162.879 181.754 115.695 201.281C87.2164 219.759 51.9358 242.384 15.4792 223.318C-10.5204 204.999 -41.526 217.233 -59.6749 240.493C-66.3972 258.336 -116.617 246.563 -91.1573 270.443C-54.8595 285.235 -42.5113 229.212 -8.66103 233.359C22.0108 248.596 57.6411 255.985 89.8545 239.826C90.808 273.144 103.363 279.515 72.4049 307.94C19.182 320.873 -17.0998 357.718 -64.4107 380.598C-100.136 388.446 -153.566 368.3 -163.864 419.858C-169.124 471.114 -232.359 438.479 -209.474 467.952C-152.565 491.022 -157.841 414.98 -120.447 400.252C-100.057 400.426 -77.3946 407.751 -56.7189 398.107C-21.9469 378.866 -37.2351 392.816 -19.1181 417.586C-26.6192 433.109 -38.6337 460.882 -52.7777 470.574C-59.2617 468.953 -64.2359 473.577 -64.8557 479.757C-74.8678 520.146 -35.4075 530.187 -8.04123 546.044C-7.18306 571.72 34.8994 563.934 30.0046 590.452C13.6039 588.736 -18.0692 604.132 12.5074 611.949C73.0883 614.396 46.008 554.846 11.2518 536.384C21.248 512.853 26.6514 484.46 46.9457 468.302C57.0849 485.89 93.0806 479.71 114.487 485C162.8 494.724 207.727 525.087 257.422 489.735C277.08 483.094 213.051 518.827 260.727 531.093C259.329 556.34 273.822 613.681 234.076 611.155C188.195 640.675 292.972 637.72 279.512 581.237C279.877 518.017 264.128 498.871 318.638 452.954C375.898 442.737 399.339 485.922 445.919 513.838C482.677 545.535 567.033 502.668 575.281 565.618C572.579 582.222 589.091 591.183 603.426 584.907C615.075 581.205 610.1 562.79 598.356 566.524C594.256 567.017 593.589 568.971 594.32 564.474C601.9 508.261 512.316 517.54 526.984 500.126C638.818 428.183 739.32 560.772 848.944 564.586C867.14 564.109 901.436 550.461 913.657 570.798C919.982 581.3 936.478 571.72 930.121 561.17L930.105 561.154ZM593.334 567.779C592.714 567.779 593.223 567.446 593.334 567.779V567.779ZM782.499 366.091C746.551 507.753 611.324 477.024 522.09 402.031C437.114 375.958 420.952 418.809 357.399 434.189C351.074 396.55 424.385 383.505 376.104 298.74C481.724 389.972 492.737 217.376 560.803 322.351C596.544 379.422 545.197 345.007 564.077 375.974C636.021 381.392 558.896 262.165 515.32 264.914C481.994 262.038 467.659 318.124 432.362 306.732C385.369 281.93 325.44 266.916 368.206 209.066C367.681 185.869 385.894 190.969 399.768 182.612C389.279 128.829 351.281 135.804 452.784 155.141C471.87 172.824 457.011 201.026 469.646 213.308C497.743 231.786 532.769 218.44 568.352 219.012C621.13 243.035 634.463 309.624 686.796 331.836C727.766 344.864 756.976 325.417 782.483 366.076L782.499 366.091ZM305.654 47.4488C363.899 43.6514 386.307 103.154 437.829 124.126C485.633 142.652 556.941 105.124 585.706 161.655C593.318 178.227 599.914 192.415 616.108 201.694C576.981 197.34 538.252 201.344 499.157 204.808C481.946 197.356 481.851 162.783 472.586 151.041C417.058 101.533 311.566 146.084 305.654 47.4488ZM34.2319 453.668C12.2849 471.13 6.1187 500.301 -5.84811 525.023C-68.8288 500.476 -40.7791 494.375 -15.3993 451.079C21.4864 413.836 -39.6984 380.963 19.1344 352.094C96.275 309.91 51.2365 336.173 92.4926 355.017C112.882 347.804 91.7616 336.142 94.94 322.271C119.668 280.119 228.847 324.495 226.146 229.991C175.529 201.71 214.815 135.868 242.88 106.188C259.567 104.536 273.949 93.1916 279.543 77.5732C282.833 122.061 260.6 172.602 290.588 211.783C313.267 226.988 274.744 243.163 273.091 266.979C262.03 377.054 309.405 337.667 190.198 369.746C108.607 399.6 124.197 460.04 86.6443 457.577C80.6371 437.049 48.2329 445.74 34.2319 453.668ZM92.7628 335.919C93.1124 337.333 94.2567 335.903 92.7628 335.919V335.919ZM217.278 485.636C49.2659 489.052 160.416 372.685 267.958 372.828C328.11 351.998 256.833 271.142 312.472 241.335C346.068 262.467 379.14 330.74 370.081 374.258C348.357 393.134 338.551 429.264 304.891 429.296C283.358 451.047 252.447 476.31 217.262 485.652L217.278 485.636Z" fill="url(#paint0_linear_76_499)"/>
</g>
<defs>
<linearGradient id="paint0_linear_76_499" x1="358.553" y1="-41" x2="358.553" y2="629.644" gradientUnits="userSpaceOnUse">
<stop stop-color="#BB8DFF"/>
<stop offset="1" stop-color="white"/>
</linearGradient>
</defs>
</svg>
