<svg width="264" height="75" viewBox="0 0 264 75" fill="none" xmlns="http://www.w3.org/2000/svg">
<path fill-rule="evenodd" clip-rule="evenodd" d="M19.6647 39.0873C19.6538 39.1669 19.6415 39.2458 19.6277 39.324C19.2177 41.5992 17.2345 43.3274 14.8523 43.3274C14.5906 43.3274 14.3341 43.3069 14.0833 43.266C11.949 42.9235 10.277 41.1807 10.0313 39.0062C10.0305 38.9997 10.0298 38.9924 10.0291 38.9858C10.0095 38.8105 10 38.6323 10 38.4511C10 35.7603 12.1743 33.5756 14.8523 33.5756C15.0384 33.5756 15.2216 33.5859 15.4019 33.6063C15.7639 33.648 16.1143 33.729 16.448 33.8459C16.5977 33.8985 16.7453 33.9584 16.8878 34.0249C18.1287 34.6019 19.0868 35.6902 19.4924 37.0203C21.9444 37.4841 24.2576 38.1992 26.3824 39.2962C28.4731 38.1415 30.7528 36.9487 33.1619 36.3877C33.2418 35.62 33.4992 34.905 33.8925 34.2849C29.8209 33.5844 26.0953 31.8577 22.9898 29.3801C22.2432 29.8513 21.3592 30.1244 20.4127 30.1244C19.4336 30.1244 18.522 29.8323 17.7594 29.3305C16.4349 28.4591 15.5604 26.9559 15.5604 25.2482C15.5604 23.6786 16.2997 22.2813 17.4468 21.3894C18.2676 20.7518 19.2962 20.372 20.4127 20.372C21.8834 20.372 23.2013 21.0301 24.0918 22.0695C24.8231 22.9233 25.2658 24.0343 25.2658 25.2482C25.2658 26.2525 24.9634 27.186 24.4444 27.9624C26.8956 29.9119 29.7561 31.5268 32.8704 32.3734C30.6997 30.7833 29.2887 28.2093 29.2887 25.3066C29.2887 21.7269 31.4354 18.6467 34.5045 17.2962C34.3134 15.9924 33.9928 14.4549 33.5566 13.3177C32.7882 13.8487 31.8454 14.387 30.8 14.2431C29.5017 14.0649 28.0129 13.4206 26.6114 12.8407C25.8735 12.5347 25.1633 12.2505 24.528 12.1015C24.1151 12.0051 23.7516 11.9328 23.4717 12.0767C23.3147 12.1563 23.2325 12.3316 23.162 12.5756C23.0726 12.8845 23.0319 13.2739 23.0319 13.7559C23.0319 14.314 22.5805 14.7675 22.0251 14.7675C21.4697 14.7675 21.019 14.314 21.019 13.7559C21.019 11.6969 21.7081 10.7101 22.5565 10.2748C23.3656 9.8599 24.4989 9.93659 25.7783 10.3588C27.2191 10.8343 28.9129 11.7217 30.4315 12.1103C31.4695 12.3754 32.4262 12.4331 32.93 11.4084C33.0993 11.0629 33.4497 10.8445 33.8321 10.8445C34.2159 10.8445 34.5656 11.0629 34.735 11.4084C35.5441 13.0555 36.1278 14.834 36.4462 16.7031C36.9463 16.6133 37.4617 16.5658 37.988 16.5658C38.5143 16.5658 39.0297 16.6133 39.5299 16.7031C39.8483 14.834 40.432 13.0555 41.2411 11.4084C41.4105 11.0629 41.7602 10.8445 42.1433 10.8445C42.5264 10.8445 42.8767 11.0629 43.0461 11.4084C43.5499 12.4331 44.5065 12.3754 45.5439 12.1103C47.0632 11.7217 48.757 10.8343 50.1978 10.3588C51.4772 9.93659 52.6105 9.8599 53.4196 10.2748C54.2679 10.7101 54.9571 11.6969 54.9571 13.7559C54.9571 14.314 54.5064 14.7675 53.951 14.7675C53.3949 14.7675 52.9441 14.314 52.9441 13.7559C52.9441 13.2739 52.9035 12.8845 52.8133 12.5756C52.7428 12.3316 52.6614 12.1563 52.5044 12.0767C52.2245 11.9328 51.861 12.0051 51.4474 12.1015C50.8128 12.2505 50.1025 12.5347 49.3647 12.8407C47.9632 13.4206 46.4744 14.0649 45.1753 14.2431C44.1307 14.387 43.1879 13.8487 42.4195 13.3177C41.9833 14.4549 41.6627 15.9924 41.4715 17.2962C44.5407 18.6467 46.6874 21.7269 46.6874 25.3066C46.6874 28.2093 45.2756 30.7833 43.1057 32.3734C46.2199 31.5268 49.0805 29.9119 51.5317 27.9624C51.0127 27.186 50.7103 26.2525 50.7103 25.2482C50.7103 24.0343 51.153 22.9233 51.8843 22.0695C52.7741 21.0301 54.0927 20.372 55.5626 20.372C56.6792 20.372 57.7086 20.7518 58.5285 21.3894C59.6764 22.2813 60.4157 23.6786 60.4157 25.2482C60.4157 27.9391 58.2414 30.1244 55.5626 30.1244C54.6161 30.1244 53.7329 29.8513 52.9856 29.3801C49.8808 31.8577 46.1553 33.5844 42.0829 34.2849C42.4791 34.9094 42.7379 35.631 42.8157 36.4053C45.2219 37.0648 47.5045 38.7375 49.593 39.9609C51.7149 38.7908 54.031 37.5768 56.4793 37.032C56.8842 35.6968 57.8438 34.6033 59.0876 34.0249C59.2308 33.9584 59.3776 33.8985 59.5281 33.8459C59.8618 33.729 60.2122 33.648 60.5742 33.6063C60.7545 33.5859 60.9376 33.5756 61.123 33.5756C63.8018 33.5756 65.9761 35.7603 65.9761 38.4511C65.9761 38.6323 65.9659 38.8105 65.947 38.9858C65.9463 38.9924 65.9455 38.9997 65.9448 39.0062C65.6984 41.1807 64.0271 42.9235 61.8928 43.266C61.642 43.3069 61.3847 43.3274 61.123 43.3274C58.7415 43.3274 56.7584 41.5992 56.3484 39.324C56.3361 39.2582 56.3259 39.1925 56.3164 39.126C54.0971 39.6271 52.0035 40.4634 50.0909 41.5802C49.7783 41.7621 49.3923 41.7621 49.0797 41.5802C47.0908 40.4189 44.9151 39.0399 42.5991 38.4227C42.2923 39.3612 41.7085 40.1749 40.946 40.7651C41.1735 40.9411 41.3851 41.1376 41.5784 41.3509C42.3628 42.2171 42.8411 43.3683 42.8411 44.6304C42.8411 45.2914 42.7095 45.9218 42.4718 46.4974C44.7842 46.0182 46.965 45.1768 48.9532 44.0337C49.2629 43.8555 49.6431 43.8555 49.9528 44.0337C51.8043 45.0979 53.5017 46.4017 55.005 47.9027C55.3809 47.7018 55.7858 47.5491 56.2125 47.4534C56.5549 47.376 56.9111 47.3351 57.2767 47.3351C57.8656 47.3351 58.4297 47.441 58.9524 47.6346C59.2337 47.7383 59.5027 47.8676 59.7564 48.0195C60.1038 48.2277 60.4237 48.4782 60.7079 48.7638C61.5861 49.6461 62.1298 50.8652 62.1298 52.2114C62.1298 53.1127 61.8856 53.9578 61.4603 54.6823C61.0983 55.2995 60.6047 55.8298 60.0188 56.2337C59.3943 56.6647 58.6645 56.9525 57.8757 57.0503C57.6795 57.0744 57.4795 57.0876 57.2767 57.0876C56.2379 57.0876 55.2755 56.7582 54.4853 56.1994C54.3144 56.0782 54.1509 55.946 53.9975 55.8043C53.0299 54.9124 52.4244 53.632 52.4244 52.2114C52.4244 51.0712 52.8141 50.0223 53.4668 49.1918C52.2521 47.9027 50.9007 46.5463 49.4381 45.6552C47.2238 46.8575 44.8009 48.1006 42.2392 48.598C44.8925 50.0961 46.6874 52.9513 46.6874 56.2242C46.6874 61.0486 42.7895 64.9651 37.988 64.9651C33.1866 64.9651 29.2887 61.0486 29.2887 56.2242C29.2887 52.9513 31.0835 50.0961 33.7369 48.598C31.1751 48.1006 28.7522 46.8575 26.5372 45.6552C25.0754 46.5463 23.724 47.9027 22.5085 49.1918C23.162 50.0223 23.5517 51.0712 23.5517 52.2114C23.5517 53.632 22.9454 54.9124 21.9786 55.8043C21.8245 55.946 21.6616 56.0782 21.4908 56.1994C20.7006 56.7582 19.7374 57.0876 18.6994 57.0876C18.4958 57.0876 18.2959 57.0744 18.0996 57.0503C17.3116 56.9525 16.5818 56.6647 15.9573 56.2337C15.3707 55.8298 14.8778 55.2995 14.5158 54.6823C14.0905 53.9578 13.8463 53.1127 13.8463 52.2114C13.8463 50.8652 14.39 49.6461 15.2682 48.7638C15.5524 48.4782 15.8722 48.2277 16.2197 48.0195C16.4734 47.8676 16.7424 47.7383 17.0237 47.6346C17.5464 47.441 18.1105 47.3351 18.6994 47.3351C19.065 47.3351 19.4212 47.376 19.7636 47.4534C20.1903 47.5491 20.5952 47.7018 20.9711 47.9027C22.4736 46.4017 24.1718 45.0979 26.0233 44.0337C26.333 43.8555 26.7132 43.8555 27.0228 44.0337C29.011 45.1768 31.1918 46.0182 33.5042 46.4974C33.2665 45.9218 33.135 45.2914 33.135 44.6304C33.135 43.3683 33.6133 42.2171 34.3977 41.3509C34.591 41.1376 34.8026 40.9411 35.0301 40.7651C34.261 40.1698 33.6736 39.3473 33.369 38.3978C31.0574 38.8916 28.8794 39.7491 26.8963 40.9068C26.5838 41.0886 26.1977 41.0886 25.8852 40.9068C23.9762 39.7922 21.8812 39.4445 19.6647 39.0873ZM37.988 34.0475C37.4763 34.0475 36.9965 34.1833 36.5821 34.4214C35.7258 34.9137 35.1479 35.8399 35.1479 36.9005C35.1479 36.9801 35.1515 37.059 35.158 37.1364C35.158 37.1371 35.158 37.1378 35.158 37.1378C35.2773 38.6023 36.5 39.7542 37.988 39.7542C39.4761 39.7542 40.6981 38.6023 40.818 37.1378C40.818 37.1378 40.818 37.1371 40.818 37.1364C40.8246 37.059 40.8275 36.9801 40.8275 36.9005C40.8275 35.8399 40.2503 34.9137 39.3939 34.4214C38.9796 34.1833 38.4991 34.0475 37.988 34.0475ZM22.3435 27.3401C22.9025 26.8186 23.2529 26.0743 23.2529 25.2482C23.2529 24.5383 22.9941 23.8882 22.566 23.3886C22.0447 22.7809 21.2734 22.3945 20.4127 22.3945C19.76 22.3945 19.1588 22.6165 18.6783 22.9898C18.0066 23.5113 17.5733 24.3294 17.5733 25.2482C17.5733 26.2482 18.0865 27.1283 18.8615 27.6381C19.3078 27.931 19.8406 28.1019 20.4127 28.1019C21.1499 28.1019 21.8216 27.8193 22.3268 27.3555C22.3319 27.3503 22.3377 27.3452 22.3435 27.3401ZM37.988 32.025C41.678 32.025 44.6745 29.0142 44.6745 25.3066C44.6745 21.5991 41.678 18.5891 37.988 18.5891C34.2981 18.5891 31.3016 21.5991 31.3016 25.3066C31.3016 29.0142 34.2981 32.025 37.988 32.025ZM53.6493 27.3555C54.1545 27.8193 54.8262 28.1019 55.5626 28.1019C57.1299 28.1019 58.4028 26.823 58.4028 25.2482C58.4028 24.3294 57.9695 23.5113 57.2971 22.9898C56.8173 22.6165 56.2154 22.3945 55.5626 22.3945C54.7026 22.3945 53.9306 22.7809 53.4101 23.3886C52.982 23.8882 52.7232 24.5383 52.7232 25.2482C52.7232 26.0743 53.0736 26.8186 53.6326 27.3401C53.6384 27.3452 53.6435 27.3503 53.6493 27.3555ZM39.5343 47.0233C40.3128 46.5134 40.8275 45.6318 40.8275 44.6304C40.8275 43.892 40.5483 43.2185 40.0889 42.7116C39.5699 42.1375 38.8204 41.7767 37.988 41.7767C37.1557 41.7767 36.4062 42.1375 35.8864 42.7116C35.4277 43.2185 35.1479 43.892 35.1479 44.6304C35.1479 45.6318 35.6633 46.5134 36.4418 47.0233C36.4418 47.0233 36.4426 47.024 36.4433 47.024C36.8875 47.3147 37.4181 47.4834 37.988 47.4834C38.5572 47.4834 39.0886 47.3147 39.5328 47.024C39.5335 47.024 39.5343 47.0233 39.5343 47.0233ZM55.4848 49.9982C54.8458 50.5219 54.4373 51.3188 54.4373 52.2114C54.4373 53.0433 54.7921 53.792 55.3584 54.3135C55.4485 54.3975 55.5444 54.4749 55.6448 54.5458C56.1064 54.873 56.6697 55.0644 57.2767 55.0644C57.396 55.0644 57.5137 55.057 57.6293 55.0432C58.0895 54.9855 58.5155 54.8175 58.8797 54.5662C59.2242 54.3288 59.5135 54.0177 59.7258 53.6554C59.9744 53.2317 60.1169 52.738 60.1169 52.2114C60.1169 51.424 59.7985 50.7104 59.2846 50.194C59.1174 50.0267 58.9298 49.8791 58.7263 49.7572C58.578 49.6688 58.4209 49.5928 58.2566 49.5322C57.9513 49.419 57.6213 49.3577 57.2767 49.3577C57.0623 49.3577 56.8536 49.3817 56.653 49.427C56.3906 49.4862 56.142 49.5819 55.9123 49.709C55.7669 49.7886 55.6302 49.8813 55.5015 49.9851C55.4957 49.9894 55.4906 49.9938 55.4848 49.9982ZM37.988 49.5059C34.2981 49.5059 31.3016 52.5167 31.3016 56.2242C31.3016 59.9318 34.2981 62.9426 37.988 62.9426C41.678 62.9426 44.6745 59.9318 44.6745 56.2242C44.6745 52.5167 41.678 49.5059 37.988 49.5059ZM20.4745 49.9851C20.3459 49.8813 20.2085 49.7886 20.0638 49.709C19.8341 49.5819 19.5855 49.4862 19.323 49.427C19.1224 49.3817 18.9131 49.3577 18.6994 49.3577C18.3548 49.3577 18.0248 49.419 17.7194 49.5322C17.5551 49.5928 17.3981 49.6688 17.2498 49.7572C17.0455 49.8791 16.8587 50.0267 16.6915 50.194C16.1776 50.7104 15.8592 51.424 15.8592 52.2114C15.8592 52.738 16.0016 53.2317 16.2503 53.6554C16.4625 54.0177 16.7519 54.3288 17.0957 54.5662C17.4606 54.8175 17.8866 54.9855 18.3468 55.0432C18.4624 55.057 18.5801 55.0644 18.6994 55.0644C19.3064 55.0644 19.869 54.873 20.3313 54.5458C20.4316 54.4749 20.5276 54.3975 20.6177 54.3135C21.1833 53.792 21.5388 53.0433 21.5388 52.2114C21.5388 51.3188 21.1302 50.5219 20.4913 49.9982C20.4854 49.9938 20.4796 49.9894 20.4745 49.9851ZM60.1903 35.7559C60.1024 35.7866 60.0166 35.8217 59.9337 35.8604C58.9596 36.3132 58.2836 37.3036 58.2836 38.4511C58.2836 38.5578 58.2894 38.6629 58.3003 38.7659C58.3017 38.7747 58.3025 38.7835 58.3032 38.7923C58.3105 38.85 58.3185 38.9069 58.3286 38.9639C58.5685 40.2947 59.7294 41.3049 61.123 41.3049C61.2771 41.3049 61.4276 41.2924 61.5751 41.2691C62.8233 41.0689 63.801 40.0493 63.945 38.7776C63.945 38.774 63.9457 38.7696 63.9464 38.7659C63.9573 38.6629 63.9631 38.5578 63.9631 38.4511C63.9631 36.8764 62.6903 35.5981 61.123 35.5981C61.014 35.5981 60.9064 35.604 60.8002 35.6164C60.5887 35.6405 60.3851 35.688 60.1903 35.7559ZM12.0311 38.7776C12.175 40.0493 13.1528 41.0689 14.4009 41.2691C14.5478 41.2924 14.699 41.3049 14.8523 41.3049C16.2459 41.3049 17.4069 40.2947 17.6467 38.9639C17.6569 38.9069 17.6656 38.85 17.6722 38.7923C17.6736 38.7835 17.6744 38.7747 17.6758 38.7659C17.6867 38.6629 17.6925 38.5578 17.6925 38.4511C17.6925 37.3036 17.0157 36.3132 16.0424 35.8604C15.9588 35.8217 15.873 35.7866 15.7858 35.7559C15.5909 35.688 15.3867 35.6405 15.1758 35.6164C15.0697 35.604 14.9621 35.5981 14.8523 35.5981C13.2851 35.5981 12.0129 36.8764 12.0129 38.4511C12.0129 38.5578 12.0187 38.6629 12.0297 38.7659C12.0304 38.7696 12.0311 38.774 12.0311 38.7776Z" fill="url(#paint0_linear_860_4212)"/>
<path d="M77.3401 45.3145C76.9441 45.3145 76.6507 45.2485 76.4601 45.1165C76.2694 44.9992 76.1374 44.8378 76.0641 44.6325C76.0054 44.4125 75.9761 44.1705 75.9761 43.9065V31.3225C75.9761 31.0732 75.9981 30.8458 76.0421 30.6405C76.1007 30.4352 76.2254 30.2665 76.4161 30.1345C76.6214 30.0025 76.9367 29.9438 77.3621 29.9585H84.9081C85.9934 29.9585 86.9981 30.1418 87.9221 30.5085C88.8461 30.8752 89.6527 31.3958 90.3421 32.0705C91.0461 32.7452 91.5887 33.5518 91.9701 34.4905C92.3661 35.4145 92.5641 36.4338 92.5641 37.5485C92.5641 38.7072 92.3661 39.7632 91.9701 40.7165C91.5887 41.6698 91.0461 42.4912 90.3421 43.1805C89.6527 43.8552 88.8387 44.3832 87.9001 44.7645C86.9614 45.1312 85.9421 45.3145 84.8421 45.3145H77.3401ZM78.7481 42.5425H84.9081C85.8321 42.5425 86.6607 42.3445 87.3941 41.9485C88.1274 41.5378 88.7067 40.9658 89.1321 40.2325C89.5721 39.4992 89.7921 38.6412 89.7921 37.6585C89.7921 36.6612 89.5721 35.7958 89.1321 35.0625C88.7067 34.3145 88.1201 33.7425 87.3721 33.3465C86.6387 32.9358 85.8101 32.7305 84.8861 32.7305H78.7481V42.5425Z" fill="white"/>
<path d="M101.024 45.4905C99.7919 45.4905 98.7359 45.3365 97.8559 45.0285C96.9759 44.7058 96.2573 44.2805 95.6999 43.7525C95.1573 43.2098 94.7539 42.6085 94.4899 41.9485C94.2406 41.2738 94.1159 40.5772 94.1159 39.8585C94.1159 38.8172 94.3799 37.8858 94.9079 37.0645C95.4359 36.2285 96.2133 35.5758 97.2399 35.1065C98.2666 34.6225 99.5133 34.3805 100.98 34.3805C102.051 34.3805 102.96 34.5052 103.708 34.7545C104.471 35.0038 105.101 35.3338 105.6 35.7445C106.099 36.1552 106.465 36.6025 106.7 37.0865C106.935 37.5705 107.052 38.0398 107.052 38.4945C107.052 39.2718 106.861 39.8365 106.48 40.1885C106.113 40.5258 105.644 40.6945 105.072 40.6945H96.9539C96.9686 41.1638 97.1446 41.5818 97.4819 41.9485C97.8339 42.3152 98.3179 42.6085 98.9339 42.8285C99.5646 43.0338 100.305 43.1365 101.156 43.1365C101.743 43.1365 102.241 43.1145 102.652 43.0705C103.063 43.0118 103.407 42.9385 103.686 42.8505C103.965 42.7625 104.192 42.6818 104.368 42.6085C104.559 42.5205 104.735 42.4472 104.896 42.3885C105.057 42.3152 105.219 42.2712 105.38 42.2565C105.571 42.2418 105.747 42.2785 105.908 42.3665C106.069 42.4398 106.209 42.5938 106.326 42.8285C106.429 43.0045 106.487 43.1585 106.502 43.2905C106.531 43.4225 106.531 43.5545 106.502 43.6865C106.443 43.9945 106.187 44.2878 105.732 44.5665C105.277 44.8305 104.647 45.0505 103.84 45.2265C103.048 45.4025 102.109 45.4905 101.024 45.4905ZM96.9539 39.0885H103.752C104.001 39.0885 104.192 39.0665 104.324 39.0225C104.471 38.9785 104.544 38.8025 104.544 38.4945C104.544 38.1572 104.405 37.8565 104.126 37.5925C103.847 37.3285 103.437 37.1232 102.894 36.9765C102.366 36.8152 101.713 36.7345 100.936 36.7345C100.071 36.7345 99.3446 36.8372 98.7579 37.0425C98.1859 37.2478 97.7459 37.5338 97.4379 37.9005C97.1446 38.2525 96.9833 38.6485 96.9539 39.0885Z" fill="white"/>
<path d="M110.407 45.3365C109.981 45.3365 109.666 45.2705 109.461 45.1385C109.27 45.0212 109.153 44.8525 109.109 44.6325C109.065 44.4125 109.043 44.1778 109.043 43.9285V31.3445C109.043 30.8165 109.145 30.4572 109.351 30.2665C109.556 30.0612 109.93 29.9585 110.473 29.9585H122.705C122.969 29.9585 123.203 29.9878 123.409 30.0465C123.614 30.0905 123.775 30.2078 123.893 30.3985C124.01 30.5892 124.069 30.9118 124.069 31.3665C124.069 31.7918 124.003 32.1072 123.871 32.3125C123.753 32.5032 123.585 32.6205 123.365 32.6645C123.159 32.7085 122.925 32.7305 122.661 32.7305H111.815V36.2945H120.417C120.681 36.2945 120.908 36.3165 121.099 36.3605C121.289 36.4045 121.436 36.5145 121.539 36.6905C121.641 36.8665 121.693 37.1525 121.693 37.5485C121.693 37.9298 121.634 38.2085 121.517 38.3845C121.414 38.5458 121.267 38.6485 121.077 38.6925C120.886 38.7365 120.659 38.7585 120.395 38.7585H111.815V43.9505C111.815 44.1998 111.785 44.4345 111.727 44.6545C111.683 44.8598 111.558 45.0212 111.353 45.1385C111.162 45.2705 110.847 45.3365 110.407 45.3365Z" fill="white"/>
<path d="M127.075 45.3365C126.65 45.3365 126.342 45.2705 126.151 45.1385C125.96 45.0212 125.836 44.8598 125.777 44.6545C125.733 44.4345 125.711 44.1998 125.711 43.9505V35.8545C125.711 35.6052 125.733 35.3778 125.777 35.1725C125.836 34.9672 125.96 34.8058 126.151 34.6885C126.356 34.5565 126.672 34.4905 127.097 34.4905C127.522 34.4905 127.83 34.5565 128.021 34.6885C128.212 34.8058 128.329 34.9745 128.373 35.1945C128.417 35.3998 128.439 35.6345 128.439 35.8985V43.9725C128.439 44.2218 128.417 44.4565 128.373 44.6765C128.329 44.8818 128.212 45.0432 128.021 45.1605C127.83 45.2778 127.515 45.3365 127.075 45.3365ZM127.075 32.4445C126.62 32.4445 126.29 32.3785 126.085 32.2465C125.894 32.1145 125.77 31.9385 125.711 31.7185C125.652 31.4838 125.623 31.2272 125.623 30.9485C125.623 30.6845 125.652 30.4425 125.711 30.2225C125.77 30.0025 125.902 29.8338 126.107 29.7165C126.312 29.5845 126.642 29.5185 127.097 29.5185C127.552 29.5185 127.874 29.5845 128.065 29.7165C128.27 29.8485 128.395 30.0318 128.439 30.2665C128.498 30.4865 128.527 30.7285 128.527 30.9925C128.527 31.2565 128.498 31.5058 128.439 31.7405C128.395 31.9605 128.27 32.1365 128.065 32.2685C127.874 32.3858 127.544 32.4445 127.075 32.4445Z" fill="white"/>
<path d="M145.171 45.4465C144.115 45.4465 143.11 45.3365 142.157 45.1165C141.218 44.8818 140.36 44.5445 139.583 44.1045C138.805 43.6645 138.138 43.1218 137.581 42.4765C137.023 41.8312 136.591 41.0905 136.283 40.2545C135.975 39.4185 135.821 38.5018 135.821 37.5045C135.821 36.5365 135.975 35.6565 136.283 34.8645C136.591 34.0578 137.023 33.3465 137.581 32.7305C138.138 32.0998 138.805 31.5718 139.583 31.1465C140.36 30.7212 141.218 30.3985 142.157 30.1785C143.11 29.9438 144.129 29.8265 145.215 29.8265C146.212 29.8118 147.077 29.8852 147.811 30.0465C148.559 30.2078 149.189 30.4058 149.703 30.6405C150.231 30.8605 150.649 31.0585 150.957 31.2345C151.221 31.4105 151.455 31.6012 151.661 31.8065C151.866 32.0118 151.969 32.2245 151.969 32.4445C151.983 32.5912 151.961 32.7452 151.903 32.9065C151.844 33.0532 151.763 33.2072 151.661 33.3685C151.485 33.6178 151.301 33.8085 151.111 33.9405C150.935 34.0725 150.751 34.1385 150.561 34.1385C150.443 34.1385 150.304 34.1018 150.143 34.0285C149.981 33.9405 149.791 33.8232 149.571 33.6765C149.365 33.5298 149.072 33.3758 148.691 33.2145C148.309 33.0385 147.825 32.8918 147.239 32.7745C146.652 32.6572 145.941 32.5985 145.105 32.5985C144.137 32.5985 143.249 32.7158 142.443 32.9505C141.651 33.1705 140.969 33.5005 140.397 33.9405C139.825 34.3658 139.385 34.8865 139.077 35.5025C138.769 36.1185 138.615 36.8225 138.615 37.6145C138.615 38.4065 138.769 39.1178 139.077 39.7485C139.385 40.3645 139.825 40.8925 140.397 41.3325C140.969 41.7578 141.651 42.0805 142.443 42.3005C143.249 42.5205 144.137 42.6305 145.105 42.6305C145.897 42.6305 146.579 42.5792 147.151 42.4765C147.737 42.3592 148.229 42.2125 148.625 42.0365C149.035 41.8605 149.373 41.6845 149.637 41.5085C149.827 41.3912 149.996 41.2958 150.143 41.2225C150.304 41.1345 150.451 41.0905 150.583 41.0905C150.759 41.0905 150.935 41.1565 151.111 41.2885C151.301 41.4205 151.477 41.6185 151.639 41.8825C151.756 42.0438 151.844 42.2125 151.903 42.3885C151.961 42.5498 151.983 42.6965 151.969 42.8285C151.954 43.0485 151.844 43.2612 151.639 43.4665C151.448 43.6718 151.213 43.8552 150.935 44.0165C150.627 44.1925 150.216 44.3978 149.703 44.6325C149.189 44.8525 148.559 45.0432 147.811 45.2045C147.063 45.3658 146.183 45.4465 145.171 45.4465Z" fill="white"/>
<path d="M160.187 45.4685C159.19 45.4685 158.273 45.3365 157.437 45.0725C156.616 44.7938 155.905 44.4052 155.303 43.9065C154.702 43.4078 154.24 42.8212 153.917 42.1465C153.609 41.4572 153.455 40.7165 153.455 39.9245C153.455 39.1178 153.609 38.3772 153.917 37.7025C154.225 37.0132 154.673 36.4192 155.259 35.9205C155.846 35.4072 156.55 35.0112 157.371 34.7325C158.193 34.4392 159.124 34.2925 160.165 34.2925C161.559 34.2925 162.754 34.5345 163.751 35.0185C164.749 35.5025 165.519 36.1698 166.061 37.0205C166.619 37.8565 166.897 38.8172 166.897 39.9025C166.897 40.7238 166.736 41.4792 166.413 42.1685C166.091 42.8432 165.629 43.4298 165.027 43.9285C164.441 44.4272 163.737 44.8085 162.915 45.0725C162.109 45.3365 161.199 45.4685 160.187 45.4685ZM160.165 42.8725C160.987 42.8725 161.691 42.7478 162.277 42.4985C162.864 42.2492 163.311 41.8972 163.619 41.4425C163.942 40.9878 164.103 40.4598 164.103 39.8585C164.103 39.2718 163.957 38.7585 163.663 38.3185C163.37 37.8785 162.923 37.5338 162.321 37.2845C161.735 37.0352 161.009 36.9105 160.143 36.9105C159.293 36.9105 158.574 37.0425 157.987 37.3065C157.415 37.5705 156.975 37.9298 156.667 38.3845C156.374 38.8245 156.227 39.3232 156.227 39.8805C156.227 40.4818 156.381 41.0098 156.689 41.4645C156.997 41.9045 157.445 42.2492 158.031 42.4985C158.633 42.7478 159.344 42.8725 160.165 42.8725Z" fill="white"/>
<path d="M179.768 45.3145C179.225 45.3145 178.704 45.2705 178.206 45.1825C177.707 45.1092 177.252 44.9772 176.842 44.7865C176.431 44.5958 176.072 44.3465 175.764 44.0385C175.456 43.7305 175.214 43.3565 175.038 42.9165C174.876 42.4765 174.796 41.9632 174.796 41.3765V30.8605C174.796 30.5965 174.818 30.3618 174.862 30.1565C174.906 29.9512 175.023 29.7898 175.214 29.6725C175.419 29.5405 175.734 29.4745 176.16 29.4745C176.585 29.4745 176.893 29.5405 177.084 29.6725C177.274 29.7898 177.392 29.9512 177.436 30.1565C177.494 30.3618 177.524 30.5892 177.524 30.8385V41.3545C177.524 41.5892 177.582 41.7872 177.7 41.9485C177.832 42.1098 178 42.2418 178.206 42.3445C178.426 42.4472 178.668 42.5205 178.932 42.5645C179.21 42.6085 179.496 42.6305 179.79 42.6305C180.039 42.6305 180.252 42.6672 180.428 42.7405C180.604 42.7992 180.736 42.9238 180.824 43.1145C180.926 43.3052 180.978 43.5912 180.978 43.9725C180.978 44.3538 180.926 44.6472 180.824 44.8525C180.736 45.0432 180.596 45.1678 180.406 45.2265C180.23 45.2852 180.017 45.3145 179.768 45.3145ZM173.146 45.3145C172.647 45.3145 172.163 45.2705 171.694 45.1825C171.239 45.1092 170.821 44.9845 170.44 44.8085C170.073 44.6178 169.75 44.3685 169.472 44.0605C169.193 43.7525 168.98 43.3785 168.834 42.9385C168.687 42.4985 168.614 41.9778 168.614 41.3765V30.8605C168.614 30.5965 168.636 30.3618 168.68 30.1565C168.738 29.9512 168.863 29.7898 169.054 29.6725C169.244 29.5405 169.552 29.4745 169.978 29.4745C170.403 29.4745 170.711 29.5405 170.902 29.6725C171.092 29.7898 171.21 29.9512 171.254 30.1565C171.312 30.3618 171.342 30.5892 171.342 30.8385V41.3545C171.342 41.6625 171.422 41.9118 171.584 42.1025C171.745 42.2932 171.958 42.4325 172.222 42.5205C172.5 42.5938 172.808 42.6305 173.146 42.6305C173.366 42.6305 173.556 42.6672 173.718 42.7405C173.894 42.7992 174.026 42.9238 174.114 43.1145C174.202 43.3052 174.246 43.5912 174.246 43.9725C174.246 44.3538 174.194 44.6472 174.092 44.8525C174.004 45.0432 173.879 45.1678 173.718 45.2265C173.556 45.2852 173.366 45.3145 173.146 45.3145Z" fill="white"/>
<path d="M189.045 45.4905C187.813 45.4905 186.757 45.3365 185.877 45.0285C184.997 44.7058 184.279 44.2805 183.721 43.7525C183.179 43.2098 182.775 42.6085 182.511 41.9485C182.262 41.2738 182.137 40.5772 182.137 39.8585C182.137 38.8172 182.401 37.8858 182.929 37.0645C183.457 36.2285 184.235 35.5758 185.261 35.1065C186.288 34.6225 187.535 34.3805 189.001 34.3805C190.072 34.3805 190.981 34.5052 191.729 34.7545C192.492 35.0038 193.123 35.3338 193.621 35.7445C194.12 36.1552 194.487 36.6025 194.721 37.0865C194.956 37.5705 195.073 38.0398 195.073 38.4945C195.073 39.2718 194.883 39.8365 194.501 40.1885C194.135 40.5258 193.665 40.6945 193.093 40.6945H184.975C184.99 41.1638 185.166 41.5818 185.503 41.9485C185.855 42.3152 186.339 42.6085 186.955 42.8285C187.586 43.0338 188.327 43.1365 189.177 43.1365C189.764 43.1365 190.263 43.1145 190.673 43.0705C191.084 43.0118 191.429 42.9385 191.707 42.8505C191.986 42.7625 192.213 42.6818 192.389 42.6085C192.58 42.5205 192.756 42.4472 192.917 42.3885C193.079 42.3152 193.24 42.2712 193.401 42.2565C193.592 42.2418 193.768 42.2785 193.929 42.3665C194.091 42.4398 194.23 42.5938 194.347 42.8285C194.45 43.0045 194.509 43.1585 194.523 43.2905C194.553 43.4225 194.553 43.5545 194.523 43.6865C194.465 43.9945 194.208 44.2878 193.753 44.5665C193.299 44.8305 192.668 45.0505 191.861 45.2265C191.069 45.4025 190.131 45.4905 189.045 45.4905ZM184.975 39.0885H191.773C192.023 39.0885 192.213 39.0665 192.345 39.0225C192.492 38.9785 192.565 38.8025 192.565 38.4945C192.565 38.1572 192.426 37.8565 192.147 37.5925C191.869 37.3285 191.458 37.1232 190.915 36.9765C190.387 36.8152 189.735 36.7345 188.957 36.7345C188.092 36.7345 187.366 36.8372 186.779 37.0425C186.207 37.2478 185.767 37.5338 185.459 37.9005C185.166 38.2525 185.005 38.6485 184.975 39.0885Z" fill="white"/>
<path d="M203.246 45.4025C202.293 45.4025 201.405 45.2778 200.584 45.0285C199.763 44.7792 199.044 44.4198 198.428 43.9505C197.812 43.4812 197.328 42.9092 196.976 42.2345C196.639 41.5452 196.47 40.7605 196.47 39.8805C196.47 39.0152 196.639 38.2452 196.976 37.5705C197.313 36.8812 197.79 36.3018 198.406 35.8325C199.022 35.3632 199.733 35.0112 200.54 34.7765C201.361 34.5272 202.249 34.4025 203.202 34.4025C204.023 34.4025 204.749 34.4832 205.38 34.6445C206.025 34.8058 206.553 34.9965 206.964 35.2165C207.389 35.4365 207.683 35.6492 207.844 35.8545C208.049 36.0305 208.218 36.1992 208.35 36.3605C208.497 36.5218 208.555 36.7272 208.526 36.9765C208.482 37.1232 208.416 37.2698 208.328 37.4165C208.24 37.5485 208.13 37.6805 207.998 37.8125C207.631 38.2525 207.272 38.4285 206.92 38.3405C206.685 38.2232 206.443 38.0985 206.194 37.9665C205.959 37.8198 205.695 37.6805 205.402 37.5485C205.123 37.4165 204.808 37.3065 204.456 37.2185C204.104 37.1158 203.686 37.0645 203.202 37.0645C202.322 37.0645 201.589 37.1892 201.002 37.4385C200.43 37.6878 199.997 38.0252 199.704 38.4505C199.411 38.8758 199.264 39.3598 199.264 39.9025C199.264 40.4305 199.403 40.9145 199.682 41.3545C199.975 41.7798 200.408 42.1172 200.98 42.3665C201.567 42.6012 202.293 42.7185 203.158 42.7185C203.686 42.7185 204.155 42.6745 204.566 42.5865C204.977 42.4985 205.321 42.3885 205.6 42.2565C205.893 42.1098 206.106 41.9778 206.238 41.8605C206.399 41.7578 206.546 41.6625 206.678 41.5745C206.825 41.4865 206.979 41.4425 207.14 41.4425C207.316 41.4425 207.492 41.5085 207.668 41.6405C207.859 41.7578 208.057 41.9558 208.262 42.2345C208.423 42.4692 208.519 42.6965 208.548 42.9165C208.577 43.1365 208.533 43.3418 208.416 43.5325C208.313 43.7232 208.13 43.9065 207.866 44.0825C207.661 44.2732 207.345 44.4712 206.92 44.6765C206.495 44.8672 205.974 45.0358 205.358 45.1825C204.742 45.3292 204.038 45.4025 203.246 45.4025Z" fill="white"/>
<path d="M218.016 45.3365C217.238 45.3365 216.512 45.2558 215.838 45.0945C215.178 44.9332 214.591 44.6912 214.078 44.3685C213.579 44.0458 213.183 43.6425 212.89 43.1585C212.611 42.6598 212.472 42.0878 212.472 41.4425V32.1805C212.472 31.9165 212.494 31.6892 212.538 31.4985C212.596 31.2932 212.721 31.1318 212.912 31.0145C213.102 30.8825 213.41 30.8165 213.836 30.8165C214.261 30.8165 214.569 30.8825 214.76 31.0145C214.95 31.1318 215.068 31.3005 215.112 31.5205C215.17 31.7258 215.2 31.9458 215.2 32.1805V41.3545C215.2 41.6185 215.273 41.8385 215.42 42.0145C215.581 42.1905 215.794 42.3298 216.058 42.4325C216.322 42.5352 216.622 42.6085 216.96 42.6525C217.297 42.6965 217.649 42.7185 218.016 42.7185C218.294 42.7185 218.536 42.7478 218.742 42.8065C218.947 42.8505 219.108 42.9605 219.226 43.1365C219.343 43.3125 219.402 43.5912 219.402 43.9725C219.402 44.4125 219.336 44.7278 219.204 44.9185C219.072 45.1092 218.896 45.2265 218.676 45.2705C218.47 45.3145 218.25 45.3365 218.016 45.3365ZM210.712 34.6665L214.276 34.6885L218.522 34.6225C218.771 34.6078 218.998 34.6298 219.204 34.6885C219.409 34.7325 219.57 34.8498 219.688 35.0405C219.82 35.2312 219.886 35.5465 219.886 35.9865C219.886 36.3972 219.82 36.6978 219.688 36.8885C219.57 37.0792 219.409 37.2038 219.204 37.2625C219.013 37.3212 218.786 37.3505 218.522 37.3505L214.408 37.2845L210.646 37.3065C210.279 37.2918 210.022 37.1818 209.876 36.9765C209.729 36.7712 209.656 36.4338 209.656 35.9645C209.656 35.5245 209.744 35.2018 209.92 34.9965C210.096 34.7765 210.36 34.6665 210.712 34.6665Z" fill="white"/>
<path d="M222.981 45.3365C222.556 45.3365 222.248 45.2705 222.057 45.1385C221.866 45.0212 221.742 44.8598 221.683 44.6545C221.639 44.4345 221.617 44.1998 221.617 43.9505V35.8545C221.617 35.6052 221.639 35.3778 221.683 35.1725C221.742 34.9672 221.866 34.8058 222.057 34.6885C222.262 34.5565 222.578 34.4905 223.003 34.4905C223.428 34.4905 223.736 34.5565 223.927 34.6885C224.118 34.8058 224.235 34.9745 224.279 35.1945C224.323 35.3998 224.345 35.6345 224.345 35.8985V43.9725C224.345 44.2218 224.323 44.4565 224.279 44.6765C224.235 44.8818 224.118 45.0432 223.927 45.1605C223.736 45.2778 223.421 45.3365 222.981 45.3365ZM222.981 32.4445C222.526 32.4445 222.196 32.3785 221.991 32.2465C221.8 32.1145 221.676 31.9385 221.617 31.7185C221.558 31.4838 221.529 31.2272 221.529 30.9485C221.529 30.6845 221.558 30.4425 221.617 30.2225C221.676 30.0025 221.808 29.8338 222.013 29.7165C222.218 29.5845 222.548 29.5185 223.003 29.5185C223.458 29.5185 223.78 29.5845 223.971 29.7165C224.176 29.8485 224.301 30.0318 224.345 30.2665C224.404 30.4865 224.433 30.7285 224.433 30.9925C224.433 31.2565 224.404 31.5058 224.345 31.7405C224.301 31.9605 224.176 32.1365 223.971 32.2685C223.78 32.3858 223.45 32.4445 222.981 32.4445Z" fill="white"/>
<path d="M233.044 45.4025C232.721 45.4025 232.45 45.3438 232.23 45.2265C232.01 45.1092 231.827 44.9332 231.68 44.6985L226.51 36.4925C226.261 36.0965 226.165 35.7445 226.224 35.4365C226.297 35.1285 226.569 34.8498 227.038 34.6005C227.522 34.3072 227.896 34.2118 228.16 34.3145C228.439 34.4172 228.703 34.6812 228.952 35.1065L233.044 42.0145L237.114 35.1725C237.363 34.7325 237.62 34.4538 237.884 34.3365C238.148 34.2192 238.537 34.2998 239.05 34.5785C239.549 34.8572 239.82 35.1578 239.864 35.4805C239.908 35.8032 239.805 36.1552 239.556 36.5365L234.408 44.6985C234.261 44.9185 234.078 45.0872 233.858 45.2045C233.638 45.3365 233.367 45.4025 233.044 45.4025Z" fill="white"/>
<path d="M247.225 45.4905C245.993 45.4905 244.937 45.3365 244.057 45.0285C243.177 44.7058 242.458 44.2805 241.901 43.7525C241.358 43.2098 240.955 42.6085 240.691 41.9485C240.442 41.2738 240.317 40.5772 240.317 39.8585C240.317 38.8172 240.581 37.8858 241.109 37.0645C241.637 36.2285 242.414 35.5758 243.441 35.1065C244.468 34.6225 245.714 34.3805 247.181 34.3805C248.252 34.3805 249.161 34.5052 249.909 34.7545C250.672 35.0038 251.302 35.3338 251.801 35.7445C252.3 36.1552 252.666 36.6025 252.901 37.0865C253.136 37.5705 253.253 38.0398 253.253 38.4945C253.253 39.2718 253.062 39.8365 252.681 40.1885C252.314 40.5258 251.845 40.6945 251.273 40.6945H243.155C243.17 41.1638 243.346 41.5818 243.683 41.9485C244.035 42.3152 244.519 42.6085 245.135 42.8285C245.766 43.0338 246.506 43.1365 247.357 43.1365C247.944 43.1365 248.442 43.1145 248.853 43.0705C249.264 43.0118 249.608 42.9385 249.887 42.8505C250.166 42.7625 250.393 42.6818 250.569 42.6085C250.76 42.5205 250.936 42.4472 251.097 42.3885C251.258 42.3152 251.42 42.2712 251.581 42.2565C251.772 42.2418 251.948 42.2785 252.109 42.3665C252.27 42.4398 252.41 42.5938 252.527 42.8285C252.63 43.0045 252.688 43.1585 252.703 43.2905C252.732 43.4225 252.732 43.5545 252.703 43.6865C252.644 43.9945 252.388 44.2878 251.933 44.5665C251.478 44.8305 250.848 45.0505 250.041 45.2265C249.249 45.4025 248.31 45.4905 247.225 45.4905ZM243.155 39.0885H249.953C250.202 39.0885 250.393 39.0665 250.525 39.0225C250.672 38.9785 250.745 38.8025 250.745 38.4945C250.745 38.1572 250.606 37.8565 250.327 37.5925C250.048 37.3285 249.638 37.1232 249.095 36.9765C248.567 36.8152 247.914 36.7345 247.137 36.7345C246.272 36.7345 245.546 36.8372 244.959 37.0425C244.387 37.2478 243.947 37.5338 243.639 37.9005C243.346 38.2525 243.184 38.6485 243.155 39.0885Z" fill="white"/>
<defs>
<linearGradient id="paint0_linear_860_4212" x1="38.5122" y1="10.0001" x2="38.5122" y2="64.9651" gradientUnits="userSpaceOnUse">
<stop stop-color="#8959FF"/>
<stop offset="1" stop-color="#C8A2FF"/>
</linearGradient>
</defs>
</svg>
