<svg width="304" height="56" viewBox="0 0 304 56" fill="none" xmlns="http://www.w3.org/2000/svg">
<path fill-rule="evenodd" clip-rule="evenodd" d="M9.72087 29.6455C9.70997 29.7252 9.69763 29.8041 9.68381 29.8822C9.27382 32.1574 7.29069 33.8856 4.9085 33.8856C4.6468 33.8856 4.39021 33.8652 4.13942 33.8243C2.00512 33.4817 0.33313 31.7389 0.0874237 29.5645C0.0866967 29.5579 0.0859854 29.5506 0.0852585 29.544C0.065631 29.3687 0.0561523 29.1905 0.0561523 29.0094C0.0561523 26.3185 2.23044 24.1339 4.9085 24.1339C5.09459 24.1339 5.27779 24.1441 5.45807 24.1646C5.82009 24.2062 6.17048 24.2873 6.50415 24.4041C6.6539 24.4567 6.80145 24.5166 6.94394 24.5831C8.18483 25.1601 9.14294 26.2484 9.54858 27.5785C12.0006 28.0423 14.3137 28.7574 16.4386 29.8545C18.5292 28.6997 20.8089 27.5069 23.218 26.9459C23.298 26.1783 23.5553 25.4632 23.9486 24.8431C19.877 24.1426 16.1514 22.4159 13.0459 19.9384C12.2994 20.4095 11.4154 20.6827 10.4689 20.6827C9.48971 20.6827 8.57812 20.3905 7.81556 19.8887C6.49107 19.0173 5.61655 17.5141 5.61655 15.8064C5.61655 14.2368 6.35587 12.8395 7.50299 11.9477C8.3237 11.31 9.35231 10.9302 10.4689 10.9302C11.9395 10.9302 13.2574 11.5883 14.1479 12.6277C14.8792 13.4815 15.322 14.5925 15.322 15.8064C15.322 16.8108 15.0196 17.7442 14.5005 18.5207C16.9518 20.4701 19.8123 22.0851 22.9265 22.9316C20.7559 21.3415 19.3449 18.7675 19.3449 15.8649C19.3449 12.2851 21.4915 9.20497 24.5607 7.85444C24.3695 6.55066 24.0489 5.01316 23.6128 3.87591C22.8444 4.40692 21.9015 4.94523 20.8562 4.80134C19.5579 4.62312 18.0691 3.97888 16.6675 3.39893C15.9297 3.09289 15.2195 2.80875 14.5841 2.65975C14.1712 2.56333 13.8078 2.49103 13.5279 2.63492C13.3709 2.71454 13.2887 2.88984 13.2182 3.1338C13.1288 3.44276 13.0881 3.83208 13.0881 4.31416C13.0881 4.87219 12.6367 5.32575 12.0813 5.32575C11.5259 5.32575 11.0752 4.87219 11.0752 4.31416C11.0752 2.25513 11.7643 1.26833 12.6126 0.833002C13.4217 0.418129 14.555 0.494815 15.8345 0.916993C17.2753 1.39249 18.969 2.27994 20.4876 2.66852C21.5257 2.93366 22.4823 2.99137 22.9861 1.9666C23.1555 1.62112 23.5059 1.40271 23.8883 1.40271C24.2721 1.40271 24.6217 1.62112 24.7911 1.9666C25.6002 3.61368 26.184 5.39222 26.5024 7.26134C27.0025 7.1715 27.5179 7.12403 28.0442 7.12403C28.5705 7.12403 29.0859 7.1715 29.586 7.26134C29.9044 5.39222 30.4882 3.61368 31.2973 1.9666C31.4666 1.62112 31.8163 1.40271 32.1994 1.40271C32.5825 1.40271 32.9329 1.62112 33.1023 1.9666C33.606 2.99137 34.5627 2.93366 35.6 2.66852C37.1193 2.27994 38.8131 1.39249 40.2539 0.916993C41.5333 0.494815 42.6666 0.418129 43.4757 0.833002C44.3241 1.26833 45.0132 2.25513 45.0132 4.31416C45.0132 4.87219 44.5625 5.32575 44.0071 5.32575C43.451 5.32575 43.0003 4.87219 43.0003 4.31416C43.0003 3.83208 42.9596 3.44276 42.8695 3.1338C42.799 2.88984 42.7175 2.71454 42.5605 2.63492C42.2806 2.49103 41.9172 2.56333 41.5035 2.65975C40.8689 2.80875 40.1587 3.09289 39.4208 3.39893C38.0193 3.97888 36.5305 4.62312 35.2315 4.80134C34.1869 4.94523 33.244 4.40692 32.4756 3.87591C32.0395 5.01316 31.7189 6.55066 31.5277 7.85444C34.5969 9.20497 36.7435 12.2851 36.7435 15.8649C36.7435 18.7675 35.3318 21.3415 33.1619 22.9316C36.2761 22.0851 39.1366 20.4701 41.5879 18.5207C41.0688 17.7442 40.7664 16.8108 40.7664 15.8064C40.7664 14.5925 41.2091 13.4815 41.9404 12.6277C42.8302 11.5883 44.1489 10.9302 45.6187 10.9302C46.7353 10.9302 47.7647 11.31 48.5847 11.9477C49.7325 12.8395 50.4718 14.2368 50.4718 15.8064C50.4718 18.4973 48.2975 20.6827 45.6187 20.6827C44.6723 20.6827 43.7891 20.4095 43.0418 19.9384C39.937 22.4159 36.2114 24.1426 32.1391 24.8431C32.5353 25.4676 32.7941 26.1892 32.8718 26.9635C35.278 27.623 37.5606 29.2957 39.6491 30.5191C41.7711 29.349 44.0871 28.1351 46.5354 27.5902C46.9404 26.255 47.8999 25.1616 49.1437 24.5831C49.2869 24.5166 49.4338 24.4567 49.5842 24.4041C49.9179 24.2873 50.2683 24.2062 50.6303 24.1646C50.8106 24.1441 50.9938 24.1339 51.1791 24.1339C53.8579 24.1339 56.0322 26.3185 56.0322 29.0094C56.0322 29.1905 56.022 29.3687 56.0031 29.544C56.0024 29.5506 56.0017 29.5579 56.001 29.5645C55.7545 31.7389 54.0833 33.4817 51.949 33.8243C51.6982 33.8652 51.4408 33.8856 51.1791 33.8856C48.7977 33.8856 46.8146 32.1574 46.4046 29.8822C46.3922 29.8165 46.382 29.7507 46.3726 29.6843C44.1532 30.1853 42.0596 31.0217 40.147 32.1385C39.8345 32.3203 39.4485 32.3203 39.1359 32.1385C37.147 30.9771 34.9712 29.5981 32.6552 28.9809C32.3484 29.9195 31.7647 30.7331 31.0021 31.3233C31.2297 31.4993 31.4412 31.6958 31.6346 31.9091C32.4189 32.7754 32.8972 33.9265 32.8972 35.1886C32.8972 35.8497 32.7657 36.48 32.528 37.0556C34.8404 36.5764 37.0212 35.735 39.0094 34.5919C39.3191 34.4137 39.6993 34.4137 40.0089 34.5919C41.8605 35.6561 43.5579 36.9599 45.0612 38.4609C45.437 38.26 45.8419 38.1074 46.2687 38.0117C46.6111 37.9342 46.9672 37.8934 47.3329 37.8934C47.9217 37.8934 48.4858 37.9993 49.0085 38.1928C49.2898 38.2965 49.5588 38.4258 49.8125 38.5777C50.16 38.7859 50.4798 39.0364 50.7641 39.322C51.6422 40.2044 52.186 41.4234 52.186 42.7696C52.186 43.6709 51.9417 44.516 51.5165 45.2406C51.1544 45.8578 50.6608 46.388 50.0749 46.792C49.4505 47.2229 48.7206 47.5107 47.9319 47.6086C47.7356 47.6327 47.5357 47.6458 47.3329 47.6458C46.2941 47.6458 45.3316 47.3164 44.5414 46.7576C44.3706 46.6364 44.207 46.5042 44.0537 46.3625C43.0861 45.4706 42.4805 44.1902 42.4805 42.7696C42.4805 41.6294 42.8702 40.5806 43.523 39.7501C42.3083 38.4609 40.9569 37.1045 39.4943 36.2134C37.28 37.4157 34.8571 38.6588 32.2954 39.1563C34.9487 40.6543 36.7435 43.5095 36.7435 46.7825C36.7435 51.6068 32.8457 55.5233 28.0442 55.5233C23.2427 55.5233 19.3449 51.6068 19.3449 46.7825C19.3449 43.5095 21.1397 40.6543 23.793 39.1563C21.2313 38.6588 18.8084 37.4157 16.5934 36.2134C15.1315 37.1045 13.7801 38.4609 12.5647 39.7501C13.2182 40.5806 13.6079 41.6294 13.6079 42.7696C13.6079 44.1902 13.0016 45.4706 12.0347 46.3625C11.8806 46.5042 11.7178 46.6364 11.547 46.7576C10.7568 47.3164 9.79358 47.6458 8.75551 47.6458C8.55196 47.6458 8.35205 47.6327 8.15578 47.6086C7.36777 47.5107 6.63791 47.2229 6.01346 46.792C5.42682 46.388 4.93395 45.8578 4.57193 45.2406C4.14667 44.516 3.90242 43.6709 3.90242 42.7696C3.90242 41.4234 4.44618 40.2044 5.32432 39.322C5.60856 39.0364 5.9284 38.7859 6.27588 38.5777C6.52958 38.4258 6.79856 38.2965 7.07988 38.1928C7.60255 37.9993 8.16668 37.8934 8.75551 37.8934C9.12116 37.8934 9.47733 37.9342 9.81973 38.0117C10.2464 38.1074 10.6514 38.26 11.0272 38.4609C12.5298 36.9599 14.2279 35.6561 16.0795 34.5919C16.3891 34.4137 16.7693 34.4137 17.079 34.5919C19.0672 35.735 21.248 36.5764 23.5604 37.0556C23.3227 36.48 23.1911 35.8497 23.1911 35.1886C23.1911 33.9265 23.6694 32.7754 24.4538 31.9091C24.6472 31.6958 24.8587 31.4993 25.0863 31.3233C24.3172 30.728 23.7298 29.9056 23.4252 28.956C21.1135 29.4498 18.9356 30.3073 16.9525 31.465C16.6399 31.6469 16.2539 31.6469 15.9413 31.465C14.0324 30.3504 11.9373 30.0027 9.72087 29.6455ZM28.0442 24.6057C27.5324 24.6057 27.0527 24.7416 26.6383 24.9797C25.782 25.472 25.204 26.3981 25.204 27.4587C25.204 27.5383 25.2077 27.6172 25.2142 27.6946C25.2142 27.6953 25.2142 27.6961 25.2142 27.6961C25.3334 29.1605 26.5561 30.3124 28.0442 30.3124C29.5322 30.3124 30.7543 29.1605 30.8742 27.6961C30.8742 27.6961 30.8742 27.6953 30.8742 27.6946C30.8807 27.6172 30.8836 27.5383 30.8836 27.4587C30.8836 26.3981 30.3064 25.472 29.4501 24.9797C29.0357 24.7416 28.5552 24.6057 28.0442 24.6057ZM12.3997 17.8984C12.9587 17.3768 13.3091 16.6325 13.3091 15.8064C13.3091 15.0965 13.0503 14.4464 12.6221 13.9468C12.1009 13.3391 11.3296 12.9527 10.4689 12.9527C9.8161 12.9527 9.21493 13.1748 8.73442 13.548C8.06273 14.0695 7.62946 14.8876 7.62946 15.8064C7.62946 16.8064 8.14269 17.6865 8.91761 18.1963C9.36396 18.4892 9.89679 18.6602 10.4689 18.6602C11.206 18.6602 11.8777 18.3775 12.3829 17.9137C12.388 17.9086 12.3938 17.9035 12.3997 17.8984ZM28.0442 22.5832C31.7342 22.5832 34.7306 19.5724 34.7306 15.8649C34.7306 12.1573 31.7342 9.14729 28.0442 9.14729C24.3542 9.14729 21.3578 12.1573 21.3578 15.8649C21.3578 19.5724 24.3542 22.5832 28.0442 22.5832ZM43.7054 17.9137C44.2107 18.3775 44.8824 18.6602 45.6187 18.6602C47.186 18.6602 48.4589 17.3812 48.4589 15.8064C48.4589 14.8876 48.0257 14.0695 47.3533 13.548C46.8735 13.1748 46.2715 12.9527 45.6187 12.9527C44.7588 12.9527 43.9868 13.3391 43.4663 13.9468C43.0381 14.4464 42.7793 15.0965 42.7793 15.8064C42.7793 16.6325 43.1297 17.3768 43.6887 17.8984C43.6945 17.9035 43.6996 17.9086 43.7054 17.9137ZM29.5904 37.5815C30.369 37.0717 30.8836 36.19 30.8836 35.1886C30.8836 34.4502 30.6045 33.7768 30.1451 33.2698C29.626 32.6957 28.8765 32.3349 28.0442 32.3349C27.2118 32.3349 26.4624 32.6957 25.9426 33.2698C25.4839 33.7768 25.204 34.4502 25.204 35.1886C25.204 36.19 25.7194 37.0717 26.498 37.5815C26.498 37.5815 26.4987 37.5822 26.4994 37.5822C26.9436 37.8729 27.4743 38.0416 28.0442 38.0416C28.6134 38.0416 29.1448 37.8729 29.5889 37.5822C29.5897 37.5822 29.5904 37.5815 29.5904 37.5815ZM45.541 40.5565C44.902 41.0802 44.4934 41.877 44.4934 42.7696C44.4934 43.6015 44.8482 44.3502 45.4145 44.8717C45.5047 44.9557 45.6006 45.0331 45.7009 45.104C46.1625 45.4312 46.7259 45.6226 47.3329 45.6226C47.4521 45.6226 47.5699 45.6153 47.6855 45.6014C48.1456 45.5437 48.5716 45.3757 48.9358 45.1245C49.2804 44.8871 49.5697 44.5759 49.7819 44.2136C50.0306 43.79 50.1731 43.2962 50.1731 42.7696C50.1731 41.9822 49.8547 41.2686 49.3407 40.7522C49.1735 40.5849 48.9859 40.4374 48.7824 40.3154C48.6341 40.227 48.4771 40.151 48.3128 40.0904C48.0075 39.9772 47.6775 39.9159 47.3329 39.9159C47.1184 39.9159 46.9098 39.94 46.7092 39.9852C46.4467 40.0444 46.1981 40.1401 45.9684 40.2672C45.823 40.3468 45.6864 40.4396 45.5577 40.5433C45.5519 40.5477 45.5468 40.5521 45.541 40.5565ZM28.0442 40.0641C24.3542 40.0641 21.3578 43.0749 21.3578 46.7825C21.3578 50.49 24.3542 53.5008 28.0442 53.5008C31.7342 53.5008 34.7306 50.49 34.7306 46.7825C34.7306 43.0749 31.7342 40.0641 28.0442 40.0641ZM10.5307 40.5433C10.402 40.4396 10.2646 40.3468 10.12 40.2672C9.89027 40.1401 9.64162 40.0444 9.37919 39.9852C9.17856 39.94 8.96923 39.9159 8.75551 39.9159C8.41094 39.9159 8.0809 39.9772 7.77559 40.0904C7.6113 40.151 7.45425 40.227 7.30595 40.3154C7.10168 40.4374 6.91488 40.5849 6.74768 40.7522C6.23373 41.2686 5.91532 41.9822 5.91532 42.7696C5.91532 43.2962 6.05779 43.79 6.30641 44.2136C6.51867 44.5759 6.80802 44.8871 7.15187 45.1245C7.51679 45.3757 7.94278 45.5437 8.40293 45.6014C8.51852 45.6153 8.63629 45.6226 8.75551 45.6226C9.3625 45.6226 9.92514 45.4312 10.3875 45.104C10.4878 45.0331 10.5837 44.9557 10.6739 44.8717C11.2394 44.3502 11.5949 43.6015 11.5949 42.7696C11.5949 41.877 11.1864 41.0802 10.5474 40.5565C10.5416 40.5521 10.5358 40.5477 10.5307 40.5433ZM50.2465 26.3141C50.1585 26.3448 50.0728 26.3799 49.9899 26.4186C49.0158 26.8715 48.3397 27.8619 48.3397 29.0094C48.3397 29.116 48.3455 29.2212 48.3564 29.3242C48.3579 29.3329 48.3586 29.3417 48.3593 29.3505C48.3666 29.4082 48.3746 29.4651 48.3848 29.5221C48.6247 30.8529 49.7856 31.8631 51.1791 31.8631C51.3333 31.8631 51.4837 31.8507 51.6313 31.8273C52.8794 31.6272 53.8572 30.6075 54.0011 29.3359C54.0011 29.3322 54.0019 29.3278 54.0026 29.3242C54.0135 29.2212 54.0193 29.116 54.0193 29.0094C54.0193 27.4346 52.7464 26.1564 51.1791 26.1564C51.0701 26.1564 50.9625 26.1622 50.8564 26.1746C50.6449 26.1987 50.4413 26.2462 50.2465 26.3141ZM2.08726 29.3359C2.2312 30.6075 3.20891 31.6272 4.45707 31.8273C4.60391 31.8507 4.75511 31.8631 4.9085 31.8631C6.30204 31.8631 7.463 30.8529 7.70289 29.5221C7.71307 29.4651 7.72177 29.4082 7.72831 29.3505C7.72976 29.3417 7.73051 29.3329 7.73197 29.3242C7.74287 29.2212 7.74868 29.116 7.74868 29.0094C7.74868 27.8619 7.07189 26.8715 6.09851 26.4186C6.01491 26.3799 5.92915 26.3448 5.84191 26.3141C5.64709 26.2462 5.44281 26.1987 5.232 26.1746C5.12587 26.1622 5.01826 26.1564 4.9085 26.1564C3.34121 26.1564 2.06909 27.4346 2.06909 29.0094C2.06909 29.116 2.0749 29.2212 2.08581 29.3242C2.08653 29.3278 2.08726 29.3322 2.08726 29.3359Z" fill="url(#paint0_linear_219_402)"/>
<path d="M86.0668 21.4028C86.259 21.4028 86.4511 21.4243 86.6218 21.4674C86.7926 21.5319 86.9207 21.6394 87.0274 21.79C87.1341 21.9406 87.1768 22.1987 87.1768 22.5644C87.1768 22.9085 87.1341 23.1666 87.0274 23.3172C86.9207 23.4893 86.7712 23.5968 86.6005 23.6398C86.4297 23.6829 86.2376 23.7044 86.0241 23.7044H80.8798V35.1691C80.8798 35.4057 80.8585 35.6208 80.8158 35.8144C80.7518 36.0079 80.645 36.18 80.4743 36.2876C80.2821 36.3951 79.9833 36.4596 79.5777 36.4596C79.1935 36.4596 78.916 36.3951 78.7239 36.2661C78.5531 36.1585 78.4464 35.9864 78.4037 35.7928C78.3397 35.6208 78.3183 35.3842 78.3183 35.1476V23.7044H73.1313C72.9392 23.7044 72.7471 23.6829 72.5763 23.6398C72.4056 23.5968 72.2775 23.4893 72.1708 23.3172C72.064 23.1666 72 22.9085 72 22.5644C72 22.1987 72.0427 21.9406 72.1494 21.79C72.2561 21.6394 72.3842 21.5319 72.5763 21.4674C72.7471 21.4243 72.9179 21.4028 73.11 21.4028H86.0668Z" fill="white"/>
<path d="M90.1855 36.4596C89.78 36.4596 89.5025 36.3951 89.3104 36.266C89.1182 36.1585 89.0115 35.9864 88.9688 35.7928C88.9261 35.5992 88.9048 35.3841 88.9048 35.1475V22.3062C88.9048 22.0696 88.9261 21.833 88.9902 21.6394C89.0329 21.4458 89.1396 21.2953 89.3317 21.1877C89.5238 21.0802 89.8013 21.0156 90.2069 21.0156C90.6124 21.0156 90.8899 21.0802 91.0821 21.1877C91.2528 21.3168 91.3595 21.4673 91.4022 21.6609C91.4449 21.8545 91.4663 22.0911 91.4663 22.3277V27.2965C91.7865 26.9308 92.2347 26.6082 92.8537 26.307C93.4728 26.0059 94.2626 25.8553 95.2231 25.8553C96.3971 25.8553 97.4004 26.0704 98.2329 26.5006C99.0654 26.9308 99.6844 27.5331 100.133 28.2859C100.581 29.0603 100.794 29.9637 100.794 30.9746V35.169C100.794 35.4056 100.773 35.6207 100.73 35.7928C100.666 35.9864 100.56 36.1585 100.389 36.266C100.218 36.3736 99.9192 36.4381 99.5136 36.4381C99.1294 36.4381 98.8519 36.3736 98.6598 36.266C98.4677 36.1585 98.3609 35.9864 98.3183 35.7928C98.2542 35.6207 98.2329 35.3841 98.2329 35.126V30.9531C98.2329 30.4369 98.1261 29.9852 97.9127 29.5765C97.6992 29.1678 97.3577 28.8667 96.8881 28.6301C96.3971 28.415 95.7568 28.3074 94.967 28.3074C93.9637 28.3074 93.1526 28.501 92.5336 28.8667C91.9145 29.2323 91.573 29.7271 91.4663 30.3293V35.169C91.4663 35.4056 91.4449 35.6207 91.4022 35.8143C91.3382 36.0079 91.2315 36.18 91.0607 36.2875C90.8686 36.3951 90.5911 36.4596 90.1855 36.4596Z" fill="white"/>
<path d="M108.67 36.5885C107.496 36.5885 106.493 36.438 105.682 36.1368C104.849 35.8357 104.166 35.427 103.633 34.8893C103.099 34.373 102.715 33.7923 102.48 33.1255C102.224 32.4802 102.096 31.8134 102.096 31.1036C102.096 30.0926 102.352 29.1892 102.864 28.3933C103.355 27.5975 104.102 26.9522 105.084 26.479C106.045 26.0273 107.24 25.7906 108.627 25.7906C109.609 25.7906 110.463 25.8982 111.189 26.1563C111.893 26.3714 112.491 26.6941 112.961 27.0812C113.43 27.4899 113.772 27.9201 114.007 28.3933C114.241 28.8665 114.348 29.3182 114.348 29.77C114.348 30.5228 114.177 31.082 113.815 31.4047C113.452 31.7488 113.003 31.9209 112.47 31.9209H104.743C104.764 32.3941 104.935 32.8243 105.276 33.19C105.596 33.5557 106.066 33.8568 106.685 34.0504C107.283 34.2655 107.987 34.373 108.777 34.373C109.311 34.373 109.78 34.3515 110.164 34.287C110.57 34.244 110.89 34.1794 111.168 34.0934C111.424 34.0289 111.637 33.9428 111.829 33.8568C112.021 33.7923 112.171 33.7277 112.32 33.6417C112.47 33.5772 112.619 33.5557 112.769 33.5342C112.939 33.5126 113.11 33.5557 113.26 33.6202C113.409 33.6847 113.558 33.8353 113.665 34.0504C113.772 34.2225 113.836 34.373 113.857 34.5021C113.879 34.6312 113.857 34.7602 113.836 34.8678C113.772 35.1474 113.537 35.427 113.11 35.7066C112.662 35.9648 112.064 36.1799 111.317 36.3304C110.57 36.5025 109.673 36.5885 108.67 36.5885ZM104.743 30.3722H111.232C111.466 30.3722 111.659 30.3507 111.808 30.2862C111.957 30.2432 112.021 30.0711 112.021 29.7915C112.021 29.4473 111.893 29.1462 111.616 28.8665C111.338 28.6084 110.954 28.3933 110.442 28.2213C109.93 28.0707 109.311 27.9846 108.585 27.9846C107.752 27.9846 107.069 28.0922 106.493 28.3073C105.938 28.5224 105.511 28.802 105.212 29.1677C104.913 29.5333 104.764 29.9205 104.743 30.3722Z" fill="white"/>
<path d="M123.077 36.4381C122.586 36.4381 122.245 36.352 122.01 36.2014C121.775 36.0509 121.647 35.8358 121.583 35.5777C121.519 35.3411 121.476 35.0614 121.476 34.7818V23.016C121.476 22.7363 121.497 22.4782 121.561 22.2201C121.625 21.9835 121.754 21.7684 121.988 21.6178C122.202 21.4673 122.565 21.3812 123.098 21.4027H133.088C134.134 21.4027 135.095 21.5748 136.013 21.9405C136.93 22.3062 137.72 22.8224 138.425 23.4892C139.129 24.156 139.663 24.9519 140.068 25.8553C140.452 26.7802 140.645 27.7696 140.645 28.8451C140.645 29.9421 140.452 30.9316 140.068 31.878C139.663 32.7814 139.129 33.5988 138.425 34.2656C137.72 34.9539 136.93 35.4916 136.013 35.8573C135.095 36.2445 134.091 36.4381 133.024 36.4381H123.077ZM124.721 33.1471H133.088C133.878 33.1471 134.582 32.975 135.244 32.6093C135.906 32.2437 136.418 31.7489 136.824 31.1251C137.208 30.5014 137.4 29.77 137.4 28.9312C137.4 28.0923 137.208 27.3394 136.824 26.6941C136.418 26.0704 135.906 25.5756 135.244 25.21C134.582 24.8443 133.857 24.6722 133.067 24.6722H124.721V33.1471Z" fill="white"/>
<path d="M149.736 36.6532C148.264 36.6532 147.025 36.4812 146.044 36.1585C145.062 35.8359 144.272 35.3842 143.696 34.8464C143.119 34.3087 142.692 33.7064 142.457 33.0396C142.201 32.3728 142.073 31.7275 142.073 31.0607C142.073 30.0282 142.351 29.1033 142.906 28.2644C143.439 27.4471 144.272 26.8018 145.403 26.3071C146.535 25.8338 147.965 25.5972 149.694 25.5972C150.996 25.5972 152.063 25.7263 152.938 25.9844C153.813 26.221 154.518 26.5652 155.03 26.9739C155.585 27.3825 155.969 27.8342 156.204 28.3075C156.439 28.8022 156.567 29.2539 156.567 29.7056C156.567 30.4799 156.375 31.0607 155.991 31.4264C155.606 31.792 155.115 31.9856 154.539 31.9856H145.339C145.36 32.3083 145.531 32.6309 145.851 32.9321C146.172 33.2547 146.684 33.4913 147.367 33.6849C148.05 33.8785 148.904 33.9645 149.95 33.9645C150.676 33.9645 151.273 33.9215 151.764 33.857C152.234 33.7924 152.618 33.7279 152.917 33.6204C153.194 33.5128 153.451 33.4268 153.643 33.3192C153.835 33.2117 154.006 33.1256 154.176 33.0611C154.326 32.9966 154.518 32.9536 154.753 32.9536C154.966 32.9321 155.158 32.9751 155.35 33.0396C155.542 33.1256 155.692 33.3192 155.841 33.5989C155.948 33.7924 156.033 33.9645 156.055 34.1151C156.076 34.2657 156.055 34.3947 156.033 34.5453C155.991 34.9109 155.713 35.2336 155.18 35.5562C154.646 35.8789 153.899 36.1585 152.981 36.3521C152.063 36.5457 150.974 36.6532 149.736 36.6532ZM145.339 30.2003H152.938C153.152 30.2003 153.344 30.1788 153.493 30.1573C153.643 30.1358 153.707 29.9637 153.707 29.6841C153.707 29.4045 153.557 29.1463 153.258 28.9312C152.96 28.7161 152.511 28.5441 151.892 28.415C151.273 28.2859 150.505 28.2214 149.566 28.2214C148.584 28.2214 147.794 28.3075 147.196 28.4795C146.577 28.6516 146.129 28.8882 145.83 29.1678C145.531 29.469 145.36 29.8131 145.339 30.2003Z" fill="white"/>
<path d="M160.089 36.438C159.576 36.438 159.214 36.352 158.979 36.2014C158.744 36.0508 158.616 35.8573 158.573 35.5991C158.509 35.341 158.488 35.0829 158.488 34.8033V23.0374C158.488 22.4137 158.616 21.9835 158.851 21.7469C159.085 21.5103 159.534 21.4027 160.153 21.4027H174.625C174.903 21.4027 175.18 21.4242 175.415 21.4672C175.65 21.5318 175.842 21.6608 175.991 21.8974C176.141 22.134 176.226 22.5212 176.226 23.059C176.226 23.5752 176.141 23.9409 175.991 24.1775C175.842 24.4141 175.628 24.5431 175.394 24.5862C175.137 24.6507 174.86 24.6722 174.582 24.6722H161.732V27.4469H172.512C172.789 27.4469 173.046 27.4685 173.259 27.5115C173.494 27.5545 173.665 27.6836 173.793 27.8771C173.899 28.0707 173.963 28.4149 173.963 28.8881C173.963 29.3398 173.899 29.6625 173.771 29.856C173.643 30.0496 173.472 30.1787 173.238 30.2217C173.024 30.2647 172.768 30.2862 172.491 30.2862H161.732V34.8248C161.732 35.1044 161.711 35.3625 161.647 35.6206C161.583 35.8573 161.455 36.0508 161.22 36.2014C160.985 36.352 160.622 36.438 160.089 36.438Z" fill="white"/>
<path d="M179.192 36.4381C178.679 36.4381 178.316 36.352 178.103 36.2015C177.868 36.0509 177.74 35.8573 177.697 35.6207C177.633 35.3626 177.612 35.1045 177.612 34.8248V27.3179C177.612 27.0383 177.633 26.7587 177.697 26.5221C177.74 26.2855 177.868 26.0919 178.103 25.9198C178.338 25.7692 178.701 25.7047 179.213 25.7047C179.747 25.7047 180.109 25.7907 180.344 25.9413C180.558 26.0919 180.686 26.307 180.75 26.5436C180.793 26.7802 180.814 27.0598 180.814 27.3609V34.8463C180.814 35.126 180.793 35.3841 180.75 35.6207C180.686 35.8788 180.558 36.0724 180.344 36.223C180.109 36.3735 179.725 36.4381 179.192 36.4381ZM179.192 24.1345C178.658 24.1345 178.295 24.0484 178.06 23.8979C177.825 23.7473 177.697 23.5322 177.633 23.2741C177.591 23.016 177.569 22.7364 177.569 22.4567C177.569 22.1556 177.591 21.876 177.633 21.6178C177.697 21.3812 177.847 21.1661 178.06 21.0156C178.316 20.865 178.679 20.8005 179.213 20.8005C179.747 20.8005 180.131 20.8865 180.366 21.0371C180.579 21.1877 180.707 21.4027 180.771 21.6609C180.835 21.919 180.857 22.1986 180.857 22.4782C180.857 22.7579 180.835 23.0375 180.771 23.2956C180.707 23.5537 180.579 23.7473 180.366 23.8979C180.131 24.0484 179.747 24.1345 179.192 24.1345Z" fill="white"/>
<path d="M197.054 36.5579C196.009 36.5579 195.031 36.446 194.12 36.1997C193.187 35.9758 192.343 35.6399 191.565 35.1921C190.787 34.7442 190.121 34.1845 189.587 33.5351C189.032 32.8858 188.588 32.1469 188.299 31.296C187.988 30.4451 187.832 29.5047 187.832 28.4971C187.832 27.5119 187.988 26.6162 188.299 25.7877C188.588 24.9593 189.032 24.2428 189.587 23.6158C190.121 22.9888 190.787 22.4515 191.565 22.026C192.343 21.6006 193.187 21.2647 194.12 21.0184C195.054 20.7945 196.054 20.6825 197.098 20.6825C198.076 20.6602 198.92 20.7497 199.653 20.9065C200.387 21.0632 200.987 21.2647 201.498 21.4886C202.009 21.7125 202.386 21.9141 202.675 22.0932C202.964 22.2499 203.209 22.4291 203.409 22.6306C203.609 22.8321 203.697 23.056 203.697 23.2799C203.72 23.4367 203.697 23.571 203.653 23.7278C203.586 23.8845 203.497 24.0412 203.386 24.198C203.231 24.4443 203.053 24.6234 202.875 24.7354C202.698 24.8697 202.52 24.9369 202.342 24.9369C202.209 24.9369 202.075 24.8921 201.92 24.8249C201.764 24.7354 201.564 24.6234 201.364 24.4667C201.164 24.3099 200.875 24.1532 200.498 23.9964C200.12 23.8397 199.653 23.683 199.076 23.571C198.498 23.4591 197.809 23.3919 196.987 23.3919C196.031 23.3919 195.165 23.5038 194.387 23.7501C193.587 23.9964 192.898 24.3323 192.321 24.7801C191.743 25.228 191.298 25.7654 190.987 26.4147C190.676 27.064 190.521 27.7806 190.521 28.609C190.521 29.4375 190.676 30.154 191.01 30.8034C191.321 31.4527 191.765 32.0125 192.343 32.4379C192.898 32.8858 193.587 33.2216 194.387 33.4679C195.165 33.7142 196.031 33.8262 196.987 33.8262C197.765 33.8262 198.431 33.759 198.987 33.6471C199.542 33.5351 200.031 33.3784 200.431 33.1992C200.831 33.0425 201.164 32.8634 201.409 32.6843C201.609 32.5723 201.764 32.4603 201.92 32.3932C202.075 32.3036 202.209 32.2588 202.364 32.2588C202.542 32.2588 202.72 32.326 202.898 32.4603C203.053 32.5947 203.231 32.7962 203.386 33.0425C203.497 33.1992 203.564 33.356 203.631 33.5127C203.697 33.6695 203.72 33.8262 203.697 33.9829C203.675 34.2069 203.586 34.4084 203.386 34.6099C203.186 34.8114 202.942 34.9905 202.675 35.1473C202.386 35.3264 201.987 35.5279 201.498 35.7519C200.987 35.9758 200.387 36.1549 199.653 36.3116C198.92 36.4684 198.053 36.5579 197.054 36.5579Z" fill="white"/>
<path d="M211.921 36.6027C210.921 36.6027 210.033 36.4684 209.21 36.1773C208.388 35.9086 207.699 35.528 207.099 35.013C206.499 34.498 206.055 33.9158 205.722 33.2217C205.388 32.5275 205.233 31.7886 205.233 30.9601C205.233 30.1541 205.388 29.4151 205.7 28.721C206.011 28.0269 206.455 27.4223 207.055 26.9073C207.633 26.3923 208.322 25.9893 209.144 25.7206C209.966 25.4071 210.877 25.2728 211.877 25.2728C213.255 25.2728 214.432 25.5191 215.432 26.0117C216.41 26.5043 217.165 27.176 217.721 28.0269C218.276 28.8778 218.543 29.8406 218.543 30.9378C218.543 31.7662 218.387 32.5275 218.054 33.2217C217.721 33.9382 217.276 34.5204 216.699 35.013C216.099 35.528 215.41 35.9086 214.61 36.1773C213.788 36.4684 212.899 36.6027 211.921 36.6027ZM211.877 34.0501C212.699 34.0501 213.388 33.9158 213.988 33.6471C214.588 33.4008 215.032 33.0425 215.365 32.5499C215.699 32.0797 215.854 31.5423 215.854 30.9154C215.854 30.2884 215.699 29.751 215.41 29.2808C215.099 28.833 214.654 28.4747 214.054 28.206C213.455 27.9597 212.721 27.8254 211.855 27.8254C211.032 27.8254 210.321 27.9597 209.744 28.2284C209.144 28.5195 208.699 28.8778 208.388 29.348C208.077 29.8182 207.922 30.3332 207.922 30.9378C207.922 31.5647 208.077 32.1021 208.41 32.5723C208.722 33.0425 209.166 33.4008 209.766 33.6471C210.366 33.9158 211.055 34.0501 211.877 34.0501Z" fill="white"/>
<path d="M231.269 36.446C230.736 36.446 230.225 36.4013 229.714 36.3117C229.225 36.2221 228.78 36.0878 228.38 35.8863C227.981 35.6847 227.625 35.4384 227.336 35.125C227.047 34.8339 226.803 34.4532 226.67 34.0054C226.514 33.58 226.425 33.065 226.425 32.5052L226.403 21.7126C226.403 21.4663 226.425 21.22 226.492 21.0185C226.536 20.817 226.647 20.6602 226.825 20.5259C227.025 20.4139 227.314 20.3467 227.736 20.3467C228.158 20.3467 228.447 20.4139 228.647 20.5259C228.825 20.6378 228.936 20.7946 229.003 20.9961C229.047 21.1976 229.069 21.4439 229.069 21.6902V32.4828C229.069 32.7291 229.136 32.9306 229.247 33.0874C229.358 33.2665 229.536 33.4008 229.714 33.5128C229.936 33.6247 230.158 33.6919 230.425 33.7367C230.691 33.7815 230.98 33.8039 231.291 33.8039C231.536 33.8039 231.758 33.8263 231.936 33.8934C232.114 33.9606 232.247 34.095 232.358 34.2965C232.447 34.4756 232.491 34.7443 232.491 35.125C232.491 35.4832 232.447 35.7519 232.336 35.9534C232.225 36.155 232.091 36.2669 231.914 36.3341C231.736 36.4013 231.514 36.446 231.269 36.446ZM224.759 36.446C224.247 36.446 223.759 36.4013 223.314 36.3117C222.848 36.2445 222.448 36.1102 222.092 35.9087C221.714 35.7071 221.403 35.4608 221.137 35.1474C220.87 34.8563 220.67 34.4756 220.537 34.0278C220.381 33.6024 220.314 33.0874 220.314 32.5052V21.7126C220.314 21.4663 220.337 21.22 220.403 21.0185C220.448 20.817 220.559 20.6602 220.737 20.5259C220.937 20.4139 221.225 20.3467 221.648 20.3467C222.07 20.3467 222.359 20.4139 222.559 20.5259C222.736 20.6378 222.848 20.7946 222.914 20.9961C222.959 21.1976 222.981 21.4439 222.981 21.6902V32.4828C222.981 32.7963 223.048 33.065 223.203 33.2441C223.359 33.4456 223.559 33.6024 223.848 33.6695C224.114 33.7591 224.425 33.8039 224.759 33.8039C224.981 33.8039 225.181 33.8263 225.336 33.8934C225.492 33.9606 225.625 34.095 225.714 34.2965C225.781 34.4756 225.825 34.7443 225.825 35.125C225.825 35.4832 225.781 35.7519 225.692 35.9534C225.603 36.155 225.47 36.2669 225.336 36.3341C225.181 36.4013 224.981 36.446 224.759 36.446Z" fill="white"/>
<path d="M240.534 36.6028C239.312 36.6028 238.268 36.446 237.423 36.1326C236.557 35.8191 235.846 35.3936 235.29 34.8339C234.735 34.2965 234.335 33.6919 234.09 32.9978C233.824 32.326 233.69 31.6319 233.69 30.893C233.69 29.8406 233.957 28.9002 234.49 28.0717C235.001 27.2432 235.779 26.5715 236.801 26.0789C237.801 25.6087 239.046 25.3624 240.49 25.3624C241.512 25.3624 242.401 25.4743 243.156 25.743C243.89 25.9669 244.512 26.3028 245.001 26.7058C245.49 27.1313 245.845 27.5791 246.089 28.0717C246.334 28.5643 246.445 29.0345 246.445 29.5047C246.445 30.2884 246.267 30.8706 245.889 31.2065C245.512 31.5647 245.045 31.7439 244.49 31.7439H236.446C236.468 32.2365 236.646 32.6843 237.001 33.065C237.335 33.4456 237.823 33.7591 238.468 33.9606C239.09 34.1845 239.823 34.2965 240.645 34.2965C241.201 34.2965 241.69 34.2741 242.09 34.2069C242.512 34.1621 242.845 34.095 243.134 34.0054C243.401 33.9382 243.623 33.8486 243.823 33.7591C244.023 33.6919 244.179 33.6247 244.334 33.5352C244.49 33.468 244.645 33.4456 244.801 33.4232C244.978 33.4008 245.156 33.4456 245.312 33.5128C245.467 33.58 245.623 33.7367 245.734 33.9606C245.845 34.1397 245.912 34.2965 245.934 34.4308C245.956 34.5652 245.934 34.6995 245.912 34.8115C245.845 35.1026 245.601 35.3936 245.156 35.6847C244.69 35.9534 244.067 36.1773 243.29 36.3341C242.512 36.5132 241.579 36.6028 240.534 36.6028ZM236.446 30.1317H243.201C243.445 30.1317 243.645 30.1093 243.801 30.0421C243.956 29.9974 244.023 29.8182 244.023 29.5271C244.023 29.1689 243.89 28.8554 243.601 28.5643C243.312 28.2956 242.912 28.0717 242.379 27.8926C241.845 27.7358 241.201 27.6463 240.445 27.6463C239.579 27.6463 238.868 27.7582 238.268 27.9821C237.69 28.2061 237.246 28.4971 236.935 28.8778C236.624 29.2584 236.468 29.6615 236.446 30.1317Z" fill="white"/>
<path d="M254.608 36.5133C253.652 36.5133 252.785 36.3789 251.963 36.1326C251.141 35.8863 250.43 35.5281 249.83 35.0578C249.23 34.5876 248.741 33.9831 248.408 33.2889C248.075 32.5948 247.897 31.8111 247.897 30.9378C247.897 30.0646 248.075 29.2809 248.408 28.5868C248.741 27.8926 249.23 27.3105 249.83 26.8402C250.43 26.37 251.119 25.9894 251.941 25.7431C252.763 25.4968 253.63 25.3624 254.563 25.3624C255.363 25.3624 256.074 25.452 256.696 25.6087C257.318 25.7655 257.852 25.967 258.252 26.1909C258.696 26.4372 258.985 26.6611 259.141 26.8626C259.341 27.0418 259.518 27.2209 259.652 27.3776C259.785 27.5344 259.829 27.7359 259.785 27.9822C259.741 28.1389 259.674 28.2733 259.585 28.4076C259.496 28.542 259.385 28.6763 259.252 28.7883C258.896 29.2137 258.541 29.3705 258.207 29.2585C257.985 29.1465 257.741 29.0122 257.518 28.8555C257.274 28.7211 257.007 28.5868 256.719 28.4524C256.43 28.3181 256.119 28.2061 255.785 28.1165C255.43 28.027 255.03 27.9822 254.563 27.9822C253.697 27.9822 252.963 28.1165 252.363 28.3629C251.786 28.6092 251.341 28.9674 251.052 29.4152C250.763 29.8631 250.608 30.3781 250.608 30.9378C250.608 31.4976 250.763 32.0126 251.052 32.4605C251.341 32.9083 251.786 33.2665 252.363 33.5128C252.941 33.7815 253.652 33.9159 254.519 33.9159C255.03 33.9159 255.496 33.8711 255.896 33.7591C256.296 33.6696 256.652 33.5576 256.941 33.4233C257.23 33.2889 257.43 33.1546 257.585 33.0202C257.741 32.9083 257.896 32.8187 258.03 32.7291C258.163 32.6396 258.296 32.5948 258.452 32.5948C258.629 32.5948 258.807 32.662 258.985 32.7739C259.163 32.9083 259.341 33.1098 259.541 33.3785C259.696 33.6024 259.807 33.8263 259.829 34.0278C259.852 34.2517 259.829 34.4533 259.718 34.6548C259.607 34.8339 259.429 35.0131 259.185 35.1698C258.963 35.3713 258.629 35.5728 258.207 35.7744C257.785 35.9759 257.252 36.155 256.652 36.2894C256.052 36.4461 255.363 36.5133 254.608 36.5133Z" fill="white"/>
<path d="M269.112 36.4684C268.334 36.4684 267.623 36.3788 266.979 36.2221C266.312 36.0653 265.734 35.8414 265.246 35.5055C264.757 35.1697 264.379 34.7666 264.112 34.274C263.823 33.7814 263.69 33.1992 263.69 32.5499V23.056C263.69 22.7873 263.712 22.5634 263.779 22.3619C263.823 22.1604 263.935 22.026 264.135 21.8917C264.312 21.7797 264.601 21.7349 265.001 21.7349C265.423 21.7349 265.712 21.8021 265.912 21.9141C266.09 22.026 266.201 22.2051 266.268 22.3843C266.312 22.5858 266.334 22.8097 266.334 23.056V32.4603C266.334 32.7514 266.401 32.9753 266.557 33.1545C266.712 33.356 266.912 33.4903 267.179 33.6023C267.423 33.7142 267.734 33.7814 268.068 33.8262C268.401 33.8934 268.734 33.9158 269.112 33.9158C269.401 33.9158 269.623 33.9382 269.845 33.9829C270.045 34.0277 270.179 34.1397 270.29 34.3188C270.401 34.4755 270.445 34.7666 270.445 35.1473C270.445 35.5727 270.379 35.8638 270.267 36.0429C270.134 36.2445 269.979 36.3564 269.779 36.4012C269.556 36.446 269.356 36.4684 269.112 36.4684ZM262.001 25.6534L265.401 25.6758L269.579 25.5862C269.823 25.5862 270.067 25.6086 270.267 25.6758C270.467 25.7206 270.623 25.8325 270.734 26.0117C270.845 26.2132 270.912 26.5043 270.912 26.9297C270.912 27.3103 270.845 27.6014 270.734 27.803C270.623 28.0045 270.467 28.1164 270.267 28.1612C270.067 28.2284 269.845 28.2508 269.601 28.2508L265.512 28.206L261.935 28.2284C261.557 28.206 261.313 28.094 261.179 27.8925C261.024 27.691 260.957 27.3775 260.957 26.9073C260.957 26.4819 261.046 26.146 261.201 25.9445C261.379 25.743 261.646 25.6534 262.001 25.6534Z" fill="white"/>
<path d="M274.044 36.4685C273.622 36.4685 273.333 36.4013 273.155 36.2669C272.955 36.155 272.844 35.9758 272.799 35.7743C272.755 35.5952 272.733 35.3489 272.733 35.1026V26.773C272.733 26.5267 272.755 26.3028 272.799 26.1013C272.844 25.8998 272.955 25.743 273.155 25.6311C273.355 25.5191 273.644 25.452 274.066 25.452C274.488 25.452 274.777 25.5191 274.955 25.6311C275.133 25.743 275.244 25.9222 275.31 26.1237C275.355 26.3252 275.377 26.5715 275.377 26.8178V35.125C275.377 35.3713 275.355 35.5952 275.31 35.7967C275.244 35.9982 275.133 36.1774 274.955 36.2893C274.755 36.4013 274.466 36.4685 274.044 36.4685ZM274.044 23.28C273.599 23.28 273.288 23.2128 273.088 23.0785C272.888 22.9665 272.777 22.7874 272.71 22.5635C272.644 22.3396 272.622 22.0933 272.622 21.8246C272.622 21.5335 272.644 21.2872 272.71 21.0857C272.777 20.8841 272.91 20.705 273.11 20.5707C273.31 20.4587 273.622 20.3915 274.066 20.3915C274.488 20.3915 274.821 20.4587 275.021 20.5931C275.221 20.7274 275.332 20.9065 275.377 21.1081C275.444 21.332 275.466 21.5783 275.466 21.8694C275.466 22.1157 275.444 22.362 275.377 22.5859C275.332 22.8098 275.221 22.9889 275.021 23.1009C274.821 23.2128 274.488 23.28 274.044 23.28Z" fill="white"/>
<path d="M284.003 36.5131C283.691 36.5131 283.425 36.446 283.225 36.334C283.003 36.222 282.825 36.0653 282.692 35.8414L277.581 27.3999C277.336 26.9968 277.27 26.6386 277.336 26.3475C277.403 26.0564 277.647 25.7877 278.092 25.5414C278.558 25.2727 278.936 25.1832 279.203 25.2727C279.47 25.3847 279.714 25.6534 279.958 26.0788L284.003 33.2216L288.047 26.146C288.291 25.7205 288.535 25.4295 288.802 25.3175C289.047 25.2055 289.424 25.2727 289.935 25.5414C290.424 25.8101 290.691 26.1012 290.713 26.4147C290.758 26.7505 290.669 27.0864 290.424 27.4447L285.336 35.8414C285.18 36.0653 285.002 36.222 284.802 36.334C284.602 36.446 284.336 36.5131 284.003 36.5131Z" fill="white"/>
<path d="M298.09 36.6028C296.867 36.6028 295.823 36.446 294.979 36.1326C294.112 35.8191 293.401 35.3936 292.845 34.8339C292.29 34.2965 291.89 33.6919 291.646 32.9978C291.379 32.326 291.246 31.6319 291.246 30.893C291.246 29.8406 291.512 28.9002 292.046 28.0717C292.557 27.2432 293.334 26.5715 294.356 26.0789C295.356 25.6087 296.601 25.3624 298.045 25.3624C299.067 25.3624 299.956 25.4743 300.712 25.743C301.445 25.9669 302.067 26.3028 302.556 26.7058C303.045 27.1313 303.4 27.5791 303.645 28.0717C303.889 28.5643 304 29.0345 304 29.5047C304 30.2884 303.822 30.8706 303.445 31.2065C303.067 31.5647 302.6 31.7439 302.045 31.7439H294.001C294.023 32.2365 294.201 32.6843 294.556 33.065C294.89 33.4456 295.379 33.7591 296.023 33.9606C296.645 34.1845 297.378 34.2965 298.201 34.2965C298.756 34.2965 299.245 34.2741 299.645 34.2069C300.067 34.1621 300.4 34.095 300.689 34.0054C300.956 33.9382 301.178 33.8486 301.378 33.7591C301.578 33.6919 301.734 33.6247 301.889 33.5352C302.045 33.468 302.2 33.4456 302.356 33.4232C302.534 33.4008 302.711 33.4456 302.867 33.5128C303.022 33.58 303.178 33.7367 303.289 33.9606C303.4 34.1397 303.467 34.2965 303.489 34.4308C303.511 34.5652 303.489 34.6995 303.467 34.8115C303.4 35.1026 303.156 35.3936 302.711 35.6847C302.245 35.9534 301.623 36.1773 300.845 36.3341C300.067 36.5132 299.134 36.6028 298.09 36.6028ZM294.001 30.1317H300.756C301 30.1317 301.2 30.1093 301.356 30.0421C301.511 29.9974 301.578 29.8182 301.578 29.5271C301.578 29.1689 301.445 28.8554 301.156 28.5643C300.867 28.2956 300.467 28.0717 299.934 27.8926C299.401 27.7358 298.756 27.6463 298.001 27.6463C297.134 27.6463 296.423 27.7582 295.823 27.9821C295.245 28.2061 294.801 28.4971 294.49 28.8778C294.179 29.2584 294.023 29.6615 294.001 30.1317Z" fill="white"/>
<defs>
<linearGradient id="paint0_linear_219_402" x1="28.5683" y1="0.558365" x2="28.5683" y2="55.5234" gradientUnits="userSpaceOnUse">
<stop stop-color="#8959FF"/>
<stop offset="1" stop-color="#C8A2FF"/>
</linearGradient>
</defs>
</svg>
