<svg width="145" height="143" viewBox="0 0 145 143" fill="none" xmlns="http://www.w3.org/2000/svg">
<path d="M56.8635 127.796L92.1405 82.9814L131.49 80.5114L56.8635 127.796Z" fill="#2441BA"/>
<path d="M56.8635 127.796L92.1405 82.9814L131.49 80.5114L56.8635 127.796Z" fill="url(#paint0_linear_549_644)"/>
<path d="M92.1407 82.9818L85.5244 14.4645L131.49 80.5122L92.1407 82.9818Z" fill="white"/>
<path d="M92.1407 82.9818L85.5244 14.4645L131.49 80.5122L92.1407 82.9818Z" fill="url(#paint1_linear_549_644)"/>
<path d="M13.46 62.3403L56.5589 127.991L92.1409 82.9823L13.46 62.3403Z" fill="white"/>
<path d="M13.46 62.3403L56.5589 127.991L92.1409 82.9823L13.46 62.3403Z" fill="url(#paint2_linear_549_644)"/>
<path d="M85.5246 14.4646L13.4598 62.34L92.1408 82.9819L85.5246 14.4646Z" fill="url(#paint3_linear_549_644)"/>
<defs>
<linearGradient id="paint0_linear_549_644" x1="87.1543" y1="105.215" x2="71.5329" y2="80.8848" gradientUnits="userSpaceOnUse">
<stop stop-color="#450B94"/>
<stop offset="1" stop-color="#C463FF"/>
</linearGradient>
<linearGradient id="paint1_linear_549_644" x1="102.101" y1="28.6288" x2="118.487" y2="82.4289" gradientUnits="userSpaceOnUse">
<stop stop-color="#8D65B4"/>
<stop offset="1" stop-color="#9044FF"/>
</linearGradient>
<linearGradient id="paint2_linear_549_644" x1="36.8664" y1="76.4323" x2="42.207" y2="126.608" gradientUnits="userSpaceOnUse">
<stop stop-color="#8D65B4"/>
<stop offset="1" stop-color="#9044FF"/>
</linearGradient>
<linearGradient id="paint3_linear_549_644" x1="114.262" y1="49.3763" x2="114.48" y2="24.4764" gradientUnits="userSpaceOnUse">
<stop stop-color="#C463FF"/>
<stop offset="1" stop-color="#E5BBFF"/>
</linearGradient>
</defs>
</svg>
